<mxfile host="app.diagrams.net" agent="Mozilla/5.0 (Windows NT 10.0; Win64; x64) AppleWebKit/537.36 (KHTML, like Gecko) Chrome/134.0.0.0 Safari/537.36" version="26.1.3">
  <diagram name="第 1 页" id="W_oyvoluCvuckTwAYK_r">
    <mxGraphModel dx="1232" dy="1139" grid="1" gridSize="10" guides="1" tooltips="1" connect="1" arrows="1" fold="1" page="1" pageScale="1" pageWidth="1169" pageHeight="827" math="0" shadow="0">
      <root>
        <mxCell id="0" />
        <mxCell id="1" parent="0" />
        <mxCell id="jOGzr96rdC9lRrHa4xcc-32" style="edgeStyle=orthogonalEdgeStyle;rounded=0;orthogonalLoop=1;jettySize=auto;html=1;exitX=1;exitY=0.5;exitDx=0;exitDy=0;entryX=0;entryY=0.5;entryDx=0;entryDy=0;" edge="1" parent="1" source="jOGzr96rdC9lRrHa4xcc-1" target="jOGzr96rdC9lRrHa4xcc-31">
          <mxGeometry relative="1" as="geometry" />
        </mxCell>
        <mxCell id="jOGzr96rdC9lRrHa4xcc-1" value="" style="shape=image;verticalLabelPosition=bottom;labelBackgroundColor=default;verticalAlign=top;aspect=fixed;imageAspect=0;image=data:image/jpeg,/9j/4AAQSkZJRgABAQAAAQABAAD/2wCEAAkGBxIQEBAPDxAQEQ8QEA8QEBAPDQ8XERARFhEWFhgRGR8YHSghHB0mGxUWITIiJS0rLjEuGB81ODU4QyotOi0BCgoKDg0OGhAQGi8mICY1LS83LTctLS0uLi0tLS0tLS8rLSstLS0yMi0tLS0tLTctLS8rLS8tLS0tLSstLS0vK//AABEIAOEA4QMBEQACEQEDEQH/xAAbAAEAAgMBAQAAAAAAAAAAAAAABgcCBAUDAf/EAD8QAAICAAIIAQYMBgIDAAAAAAABAgMEEQUGEiExQVFhcQcTNGKBsyIjM0JSc3SRobGywTJTcoLR8KLCFBVD/8QAGgEBAQADAQEAAAAAAAAAAAAAAAUBBAYCA//EADQRAQABAwEFBgUEAgIDAAAAAAABAgMEEQUSITFRIjNxgbHBMjRBkdFhcqHwsuEj8RNCgv/aAAwDAQACEQMRAD8AvEAAAAAAAAAAAAAAAAAAAAADxxOKrqW1bOEF1nJLPtvPdFuqudKY1fO5dotxrXMRH6tajTWHm9mN9bk9yW2k2+2fE+lWNepjWaZfKjNx650prjXxb58GyAAAAAAAAAAAAAAAAAAAAAAAAAAAAAR7W3WqvAQy3TxE1nXVnw9efSP4vlza2sbFqvT+nVp5eZRYjrPRTWlNI24mx23zc5vm3uivoxXJdkXrdum3Tu0w5q7dru1b1U8W1oXGScvNSeaabjnxTXLwyPpD4XKY01S/ResF+HyUZ7da/wDnZm0l2fFfl2Na9h2rvGY0nrDYx9oX7HCJ1jpPt09P0S/RetVF2UZvzNj5WNbLfaXD78mSr2Bdt8Y4x/fovY21LN3hV2Z/Xl5T/wBS7xoqQAAAAAAAAAAAAAAAAAAAAAAAAAIrrnrhDBRdVWU8VJbo8Y1J8JT79Im5i4k3Z1n4fVoZmdTYjdjjV6eKn8ViZ2zlZbJzsm85Sk97ZdppimNI5OarrqrqmqqeLwkemIbWhvl4+E/0szBX8MpIZa4B0tF6cvw+SrnnD+XPfD2c17MjXvYtu78Ucev1bePm3rHCmeHSeX+vJL9F63U25Rt+Jn6zzrfhLl7ciTe2fco408Y/n7LuPtazc4V9mf4+/wCdEhTz3renwa5mgqvoAAAAAAAAAAAAAAAAAAAAAEJ1311WG2sPhmpYnhOe5xo/zLty59ChiYc3O1Xy9UzOz4tdij4vRVFljk3KTcpSblKUm25N7223xZaiIiNIc7MzM6yxDDGRl6hs6G+Xh4T/AEszBX8MpKZa4AAAb+jNL3Yd/FTajzrlvrfs5ezJnwvY9u78Uef1bGPl3rHwTw6fT7fjRMdDa2V3NV2rzVj3J551yfRPk+z+8k5Gz67cb1PGP5X8Xatu7MU1xuz/ABPn+UjJ6qAAAAAAAAAAAAAAAAAACvdeNedjawuCl8ZvjbfF7odYQ9brLly38KeJha9u5y6flIztobv/AB2uf1np4Kybz3viyugzxfAAGLMsw2tDfLw8JfpZmCv4ZSQy1wAAAAGBZWqOPd+Gi5vOdcnVJvi8kmn47LRz2dai3dnTlPF1uzb83rETVzjh/fLR2jTb4AAAAAAAAAAAAAAB8bArHXjXrzm1hcFLKvfG2+L3z6xh6vrc+W7jXxMLTt3Pt+UPN2jrrbtff8K+KaMAAAGLDMNnQ3y8fCX6WZgr+GUlPbXAAAAAAnfk+9Ht+vfu4EPane0+HvLo9i9zV+72hKSasgAAAAAAAAAAAAAMbbFGLlJqMYpylKTSUUt7bb4IzETM6QxMxEayqbXfXZ4naw+FbjhuE571K/t2h258+hZxMOLfbr5+iBm583Oxb5deqElBKAAAABiw9Q2tDfLx8J/pZmCv4ZSQ9tYAAAAACeeT30e369+7gQ9qd7T4e8uj2L3NX7vaEpJqyAAIJrbrx5uTowbi5rdO7JOMX9GHJvu937VcTZ+9G/d5dPyiZ21Nydyzz6/hF8Lrlja5bXn3NZ74WRi4vtwTXsaN+rBsVRpu6JdG08mmdd7XxWPq3rPTjY5R+BclnOmT3+MX85f6yLk4ldmePGOrosTOt5EcOE9HcNVugAAAAAeOLxMKoSttkoVwWcpSe5I9U0zVOkc3mqqKY1nkp7XTXGeNk6qs4YWL3R4Sta4Sn26R9r5ZXMXEi1G9V8Xo53NzpvTu0/D6oqbieAAAAABiwzDZ0N8vDwn+lmY5lfwykp7awAAAAAE88nvo9v1793WRNqd7T4e8uk2L3NX7vaEpJiw+NgVrrnrm7drDYSWVW+Nly42dYx6R78/Djbw8Hd7dzn06Od2htOatbdqeH1nr4fp6+sIKiGAZU2yhJThJxlF5xlFtST6poxMRVGkvVNU0zrTOkrH1V16jZs04xqFm5Ru3KE+0vovvw8CLlbPmntW+XR0WFtWK9KL3Cev0n8eicktaAAADV0lpCvDVSuumoVxW9vm+SS5t9D3RRVXVu0xxeLlym3TvVTwUxrdrXZj55b4YeD+Lqz4+vPrL8Fy5t3sbFpsx+vVzeXmVX6tOVPT8o8bLSAAAAAAAdHQWgr8bZ5uiGeWW3ZLNV1rrJ/txZ8r1+i1TrU2cfHrvVaU/dY2L1UowGj7XBbd8vMqd8ktp/GwzjH6Mey9uZPx8mu9k068uPDylRzcWixiVac+HH/6hFCy54AAAAACe+T30e369+7rIm1O9p8PeXR7F7mr93tCUkxYcLXm2UNH4lw4uMIvL6MrIxl/xbNrBiJv06/3g0to1TTjVzH91nipk6VxwAAAAJVqrrlZhdmq7O3D8Evn1L1eq9V+zvoZWDTd7VPCr1VcLadVnSivjT/MLRwONrvrjbTNTrlwlH8n0fZkKuiqirdqjSXTW7lNymKqJ1hsHh7c/TemKcHU7r5ZRW6MV/HZLlCK5v/WfS1aqu1btL5Xr1FqneqUrrNrHdj7Nuz4Ncc/NUxfwYL95dWX7GPTZjSOfVzWTlV36tZ5dHGPu1gAAAAAAEt1Q1ItxmVtu1VheO1l8O1eony9Z7umfLSycym12aeM+ihiYFV3tV8KfVbmjdH1YauNNEFXXHglzfVvi33ZFrrqrneqni6C3bpt07tMaQ5uuvoVvjT76BtbP+Yp8/SWjtX5Wry/yhWh0LlQAAAAAJ95PPR7fr37usibU72nw95dHsXuav3e0JSTFh5YrDxthOqxbUJxcZLqmsmeqappmKo5w810RXTNNXKVPa06s2YGee+eHk/i7cv8AhLpL8Hy5pdFi5dN+Ok9Pw5LNwaserXnT1/LhG20QAAAAdLQenLsHZt0y3P8AjrlnsTXdde/E+N/HovU6Vfds42Vcx6taZ8vpKw5eUHCrCvESzVqyj/43z3Nrgnw2d38X77iJVs+7Fzd+nV0dG07NVvf+vT6qp09p27G2u66XVQgv4K4/Riv35lezZptU7tKNkX671W9U56Z9Wu+5hgAAAAGVVcpyUIRlKUmlGMU3KTfBJLizEzERrLMUzVOkLO1Q8nqhs349KU9zjh9zhHvPlJ+rw8eUnJz5ns2/v+FzE2bFPau8Z6flYSRMVn0Dh67eg2+NPvoG7s/5inz9JTtq/K1eX+UK0OhcqAAAAABPfJ56Pb9e/d1kTane0+HvLo9i9zV+72hKiYsAHlisPC2Eq7IqcJrKUZLc0eqappnep5vNdFNdM01RrCp9b9U54Nu2vOeGb3S+dU3wjLt0f+u/iZkXo3avi9XL5+z5sTv08afRGDfTAAAAAfGs9z4GGYnRpX4ZrfHeunNHiaWxRcieEvFSPL6TDNMPL6AAAdDQuhrsZZ5rDw2nu2pPdCtfSk+S/F8j53b1FqnWqX2s2K71WlELi1U1RpwEdpfGYhrKV0lvXqwXzV+L5kPIyq709I6OhxsSixHDjPVIjVbYAA4Wu3oNvjT76Bu7P+Yp8/SU7avytXl/lCtDonLAAAAAAT7yeej2/Xv3dZD2p3tPh7y6LYvc1fu9oSomLAAAxsrUouMkpRkmpRkk00+KafFGYmYnWGJiJjSVW656nPDbWIwycsPxlDe5U/5j35c+pdw86LnYr5+v+3N5+zZta3Lfw9On+kOKKQAAAAABr34ZPfHc/wAGeZp1fWi5pwlp708nuZ4ffnxhkmGNGWYYSnVHUu7HNWTzqwue+xr4VnVVp8f6uC75ZGnk5dNrhHGf7zb2Lg1Xu1PCn18FwaK0ZVha1TRBQgunGT+lJ8W+7Ily5Vcq3qpdBbtU26d2mNIbh4fQAAAOFrt6Dd40++gbuz/mKfP0lO2r8rV5f5QrQ6JywAAAAAE+8nfo9v1793WQ9qd7T4e8ui2L3NX7vaEqJiwAAAHxoCt9dNStjaxODjnDfKyiK3w6yh6vq8uW7haw8/XsXOfX8ufz9maa3LUcPrH4QIrIYAAAAAGFtSkt/Hk+aMTGr3TVNPJpOiSkopOTk0oqKbcm+CS69j5VRu82zRO/y5rM1N8neWzfpCOb3OGGz3Lo7Ov9P380ScnP/wDW39/ws4uzojtXft+VkxikkkkklkkluS6EtXfQAAAAA4Wu3oN3jT76Bu7P+Yp8/SU7avytXl6wrM6JywAAAAAE/wDJ36Pb9ofu6yHtTvafD3l0Wxe5q/d7QlRMWAAAAAV9r5r2qdrC4OSd++Nty3qrrGPWffgvHhRxMLe7dfLp1TMvPijWi3z69FX0YrlN5+s3v9pbpq+jnrlvXjDbPo+AAAAAAHrhcTOqcbK5OE4POMovemeaqIrjdqjg9UV1UVRVTOkwtDVPXeGI2acTs137lGXCu1/9ZdufLoQsrAqt9qjjH8w6TC2lTd7NzhV/EpiTlUAAAAADha7eg3eNPvoG7s/5inz9JT9q/K1eXrCszonKgAAAAAT/AMnfo9v2h+6rIe1e9p8PeXRbF7mr93tCVExYAAACste9fM9rC4Ge7fG3ERf3wrf/AG+7qVcTC/8Ae5Hl+UjNz9Oxbnz/AArXIqozCSDMS9sPiNndLhyfQ9U1PnXb14w3Uz6NcAAAAAABNdU9ep0bNOLcrKdyjZxsqXf6UfxXfciZlbPivtW+E9PpKxhbUmjsXeMdfrH9+6zcNiIWQjZXKM4SWcZReaaIdVM0zpMcXQ01RVGtM8HqYegAAA4Wu/oN3jT76Bu7O+Yp8/SU/avytXl6wrI6NyoAAAAAE/8AJ16Pb9ofuqyFtXvafD3l0Wxe5q/d7QlZMWADGc1FOUmlFJttvJJLi2I4muip9e9eniNrC4STjRvjZat0rusV0h+fhxs4mHuduvn06Iebnb//AB2+XXqgRRSgD4wyxaDMPSi9x3P+H8j1TVo8124q4xzbylnvXA+jWmNAMAAAAAAdnVzWS7Azzre1U3nOmTezLuvoy7r25mtkYtF+OPPq3MXNuY88OMdFt6B09Tja9umXwllt1yyU4Puundbjn7+PXZq0q+7p8fJt36daJ8vrDqHwbAAA4Wu/oN3jT76Bu7O+Yp8/SU/avytXl6wrE6NyoAAAAAFgeTr0e37Q/dVkLave0+HvLotjdzV4+0JWTFhhbYoRlOTUYxTlKTeSjFLNt9sjMRMzpDEzERrKnNd9dp4xuihuGET38VK9r50ukekfa+it4uHFvtVfF6IGZmzdndo+H1Q43k8AAAPjA2dGaLtxVqpog52S5LhFc5SfBLuz53LlNuneql9bVuq5Vu0ws3CeTKEcK4SubxbykrFn5qLy+TS5x9bjuT7E2Np1Rc107PT6qtWyqKrekz2uqBaRwFmHslTdBwnHinzXKS6p9SzbuU3Kd6meDn7tmu1Vu1xxax7fMAAAAAD3wONsonG2mcoWR4Si/wAH1XZ7jxXRTXTu1RrD3bu126t6idJWpqnrrXitmm/KrE7kv5dr9XPg/Vfsz5QsrBqtdqnjT6Olw9o0XuzVwq/ifBLSepAHB149Bu8affQN3Z3zFPn6Sn7U+Vq8vWFYnRuVAAAAAAsHyc+j2/aH7qshbV72nw95dFsbuavH2hKyYsI55RNv/wBZitjPPZrzy47HnYbfs2c8+2Zs4en/AJqdWrm6/wDgq0UUdC5kAAAAEh1U1Svx8s4rzeHTynfJbv6YL5z/AAXPvq5GVRZjrPRuY2HXenXlHVcugtB0YKrzWHhkt23N752P6Unz/JciJdvVXatal+zZotU7tMOkfJ9XH1k1eqx1exZ8GyOfm7UvhQf7x6o2MbJqsVaxy6NXKxaMijSrn9J6Kc0zom3CWum+OUlvjJb4zj9KL5r/AFnR2b1F2nepctfx67NW7XDRPq+AAAAAAACdap6+Sq2aca3Ovco373OH9XOS78fHlKytnRV2rXPp+FrD2pNPYvcuv5WZRdGcYzhKMoSScZRacZLqmiLMTTOkr9NUVRrDia8eg3eNPvoG5s75inz9JaG1PlavL1hWJ0blgAAAAALB8nPo9v2h+6rIW1e9p8PeXRbG7mrx9oSsmK7C6qM4yhNKUJxcZRks1KLWTT7ZGYmYnWGJiJjSVNa8alTwTd9ClPCN8eMqG3/DLrHpL2PlnbxcuLvZq+L1QMzCm1O9T8Pohxup4B9DOiw9TvJ3KzZvx6cK9zjh96nPvPnFduPhzm5OdEdm39/wrYuzte1d+35WlTTGEYwhGMYRSjGMUlGKXBJLgiTMzM6ysRERGkMzDIAA52ndDVYyp1XR7wmv465fST/3M+1i/XZq3qXxv49F6jdrU3rDoK3BW+btWcXm67EnsWR6ro+q5fc30mPkUXqd6n7dHKZOLXj17tXL6T1cs+7XAAAAAAAdvVrWm7Ay+C9uhvOdMn8H+qL+a/8AWamTiUX448J6t3Eza7E6c46fhP8ATem6cZo26yiWeTo24PdOt+dhukv34PkTMWxXZyqaa46+kq2dfovYdVVE9PWECLznAAAAAALA8nPo1v2h+6rIW1e9p8PeXRbG7mrx9oSwlq4BjZBSTjJJxkmmmk009zT7CJ0JjVVGuvk/nVJ34GErKXm5URzc6n6q4yj24r8rGLnRVG7cnj1RcvAmJ3rUcOiIYLQOKumq68NdKTeW+qUUv6nLJR9pu1X7dMazVDQpx7tU6RTK19TtRasHs3X7N2K4p5fF1P1E+L9Z+zLnHycyq72aeEeq3i4VNrtTxn08ExNJvAAAAAAamldG1YmqVN0VKEvvi+Uovk0fS1dqt1b1M8Xzu2qLtO7XHBTmtOrVuBsylnOmT+LtS3P1ZdJfny55dFi5VN+nhz6OXzMOrHq6x1cM2mkAAAAABjIyzD30bJqxJNpNSTyfFccn13pP2IS968JdgPmAAAAABYPk49Gt+0S91WQtq97T4e8ui2N3NXj7QlhLVwAAAAAAAAAAAAAHhjcHXdXKq2CnXNZSjLg/8PueqK6qKoqpnSXiu3TcpmmqNYVBrfqnPAy24Zzw0n8GfODfCE/88GdFiZlN6NJ4Vf3k5rNwKrE71PGn08UaN1PAAAAB8kGYeujvlY/3fpYep5O0HzAAAAAAsHycejW/aJe6rIW1e9p8PeXRbG7mrx9oSwlq4AAAAAAAAAAAAAABhfTGcZQnFShJOMoySaknxTM01TTOsMVUxVGkqm101NlhG76E54VvNre5Udn1j0f39Xfw86LvYr+L1c5nbPm126ONPoiBRSwAAzAxYZh66O+Vj/d+TMvU8naD5gAAAAAWF5OPRrftEvdVkHave0+HvLotjdzV4+0JYS1cAAAAAAAAAAAAAAAAfJRTTTSaayaa3NdBroKu131JdO1icJFune7KlvdXWUese3Lw4XMLP3+xc59ev+3P5+zt3/ktRw+sdEFzKqOAAMWGYe2jvlY/3fpZl6nk7IeAAAAAMwLN1EwTqwiclk7pytyfKLSjH71FP2nObRuRXe0j6cHT7LtTbsaz9eP4/iEiNBRAAAAAAAAAAAAAAAAAABXOu+o+e1isFDfvlbh4rj1lBf8AX7uhYws/lRdnz/KLnbO11uWo8Y/CuCyhAHxhmHro75WP936WZZnk7QeAAAA98FgrLpbFNcrJc1FcO7fBLxPncuUW41rnR7t2q7s7tEaymeg9R9lxsxclLLeqYb45+s+fgvvZJyNp6xu2o8/wtY2ydJiq9Ov6fTz/AL901RHWwAAAAAAAAAAAAAAAAAAAAEG131JV+1icJFRv3ysqW6N3WS6T/Px41MLPmjsXOXXp/pKztnxc1rt8/X/arJxabjJNNNppppprin3LkTrxhz0xMTpLCRkh7aO+Vj/d+TMvU8nZD5gG1o/R9uIls01ym+bS+DHxb3L2nyu3qLUa1zo+tqxcuzpRGv8AeqZaI1FispYqe2/5Vbaj4OXF+zIk39qTPC1Gn6z+P+1nH2REcb06/pHL78/RLsLhYVRUKoRhBcIwikvHcSq66q51qnWVei3TbjdojSHseXsAAAAAAAAAAAAAAAAAAAAAAARDXXUyOLTvoyhikt/KN6XKXSXSXsfLKhh502ezV8PonZuBF7tU8KvVUWJolXKVdkXCcG4yjJZOL6M6CmqKo1jk52qiaJ3ao4vfRlLctvkk9/Vs9PM8kh0boq7EvKiuU9+TlwhHxk93s4nyvX7dqNa509fs92ce7enS3Gvp9/7KaaI1FrhlLFS87L+XBtVrxfGX4eBHv7Uqq4W40/X6rWPsminjdnWen0/M/wAeCWUURrioVxjCK4RjFJL2ImVVTVOtU6yrU000xpTGkPQ8vQAAAAAAAAAAAAAAAAAAAAAAAAAAHN0toHDYrJ30wnJLJTyyml0zW/Lsfezk3bXwS172LavfHHtP3ho4fUzBwafm5Sy4KdknH7uD9p96to5FUaa6eTXp2ZjUzrpr4zLvV1qKUYpRilkoxSSS6JI0pmZnWW/EREaQyMMgAAAAAAAAAAAAAAAAAAAAAAAAAAAAAAAAAAAAAAAAf//Z;" vertex="1" parent="1">
          <mxGeometry x="560" y="270" width="70" height="70" as="geometry" />
        </mxCell>
        <mxCell id="jOGzr96rdC9lRrHa4xcc-2" value="VS Code&amp;nbsp;&lt;div&gt;v 1.98.2&lt;div&gt;&lt;br&gt;&lt;/div&gt;&lt;/div&gt;" style="text;strokeColor=none;align=center;fillColor=none;html=1;verticalAlign=middle;whiteSpace=wrap;rounded=0;" vertex="1" parent="1">
          <mxGeometry x="565" y="350" width="60" height="30" as="geometry" />
        </mxCell>
        <mxCell id="jOGzr96rdC9lRrHa4xcc-25" style="edgeStyle=orthogonalEdgeStyle;rounded=0;orthogonalLoop=1;jettySize=auto;html=1;exitX=1;exitY=0.5;exitDx=0;exitDy=0;entryX=0;entryY=0.5;entryDx=0;entryDy=0;" edge="1" parent="1" source="jOGzr96rdC9lRrHa4xcc-3" target="jOGzr96rdC9lRrHa4xcc-8">
          <mxGeometry relative="1" as="geometry" />
        </mxCell>
        <mxCell id="jOGzr96rdC9lRrHa4xcc-3" value="" style="shape=image;verticalLabelPosition=bottom;labelBackgroundColor=default;verticalAlign=top;aspect=fixed;imageAspect=0;image=data:image/png,iVBORw0KGgoAAAANSUhEUgAAADcAAAA9CAYAAAAJQPEgAAAAAXNSR0IArs4c6QAAAARnQU1BAACxjwv8YQUAAAAJcEhZcwAADsMAAA7DAcdvqGQAAAbqSURBVGhD7ZrZU9tWFMY/SZYt2bKxDTYQCCQsk42SaSbLQzPTPvSfzlO6PTRtyExJUrJDEmJjbONFtmUtlnqOIDPZpolkmQSGbwAZGUv63XPuWe5F8Eg4phIPjsdSxxpupG7JFx44DvROD5Zlw3VdOknfAo2pICAmiUglVShKAqIY/ThHDjcYDNDvm6jUWugZFtodE5vbHdRbJhzHQ98aIBGXmA1JRcLpqRQm8yomxjUU8hmoanSgkcKZpoXtcg1PN+t4/LKLatNBQx+g1/dg22xJj+BpLuwbDiL9UBICUoqAhdkEVhbTuLBUQIoAU6kUJEk6uHI4RQbX6xkEVcJva7v456kFveciyJVFgi3mJVxeipElFXy/chqTxTy5bnjASODYYs+3Srh9p4y1xyY6RvhL5tIispqAH6+M4drleYyTq4Z106Gdm4NEq63jyWYTmzsOTHK/YcQDU2152NjqoVzZg2lZ5AHhBmsoOA4euq7j3sNt3LrTxuuKA5uCxjDiz3fIpdcembj9VwkvX1dovoYbsdBwbLGtVyWsb5Tw65qOph5sjn1OzsDD348c/H5vF7sUeQcDSiEBFRqu1W7j/uMq7m40UKo5GLgRkh3Isj2sPzXI5avknsGtFwqO3bFSqeOP9R7d3KbcFT3YW9WaAzx81kRb75G3BLtPKDjTpMRc6lFiHqDbj9YdPxR7I3sGBxce1CAKBefQTapNm242Qqp31O55VMIZ++VbAIVzS6oXaw2CCz7HQ6nV8dBsdQ8HzrappDIHI3XHd8WBxXZcqk2dQDkvMBxfnCOXMxD8qv+w1HcEgnQOfvsyhbIcV71UCh6q+EGDViqB4QSu5OMyYjF6fXDuMKTEPeog4v79v1ShLBeLScikJL91OQwlqS1SEjFIPKIBFOrx4vE4Fk+p1I4cju2mxkVMFXJ+5x5EoeC4BVEUEXyvAF4SWglZoAGVA7kkKxRcgnx/blrDbDGGfEb0O+pRKU5gp6fimCxkA3fmoS03WZzAD6uK3zmrysEbI1AxJ2BlKYe0ph6O5VhaKomLy9O4eqmAs9My5Fj01tNUEdcvaliYm4AsBwsmrNBwPIrTU5M4t3gKP13NY6YgRRpgMikRNy8ruL46jVwu3FJDaDgWz4F0WsPq+Rn8fG0MZ6YlyEMCxuMCsmkRNy4quHnlFOZmi+QVwa3Gimz1q7xTw/oj6srvtbFZpuY1RMegENiFMzGaZzKurkzg/PIcEhQlw2ooy72r7Fga8zNZnJtXMVsQkfRTxZdbMZ0UMTcpYWUxhQsLmYO89o2sW7K4mazWG6js1rH2bwO7DWqNmi722h51Ed5HnTSH+UxSQH5MxPn5BFaX8zgzN+mnGi4UgkbHDxUp3FtZluUv9/VNC7u1Ll6Wu9C7Dly6lUNNoETBgZ+bk3NxXMXZmQzG0kmMkfVlObwbfqiRwL0VX5p7MG5VPHd/icCm11yb7ltF8IMSVx/DLp1/SiOF+9qKDI4vw8sAvL7oeftds8PdM0XNdsfwjy7NSZfek8QYBA429KUmZAo+MQr3lEbIJUUqWLlblOg47G7PUHC8Euw4A9gEwq+bbQMVmmOdbh+G6cK0XXJJF422TX9D3TS9ti3uy0Q/4fOzp1TJ38pK0rlUMkZzT/G3uCZyKaqCEn7E5P27GOW6oAEmNBx/jPfh2EJGv+8Hkd16D6/KOhotg+AYhreuXOg9OtKUMwmM11Z520qmKSaS9dTEfmBR6ZxG6WAipxKsjFNFDdmM4s9HLvUSicRo4TjUs6X2mgTQ7OBNpYt216Zjj44OdINcsOuhRd+80RhUfmpI7YMzKAVQShPUO86mUcgnURjP0Pk4ZALmquVzQeizcGwZhjLISjvVNrbLTbKOgRelPuqUw9giBlnEJitFLZ6WCapa2KoTWU7yCgpUvWQzcZyZySGf08iVk370/ZT+F67T6aBUafjbv49e7OHFG8svrdjNgi5tRyH2SnZMrj0XZ2QsnVaxsjyO4kQOmpb8yJIfwXG04zn0ptzAky2qF590yN1c7NTZerzx+22IITOa6Jd6lxY1XCJILgRyY5pf4XCkfQ+OA8RutYmnL2tY22hhs0QRUPdGsoMTld5CLpAlC1kZy3Mazi8WMZ4f24fjIMEu+GyrgrsP97D+3PTrwa/hemHFkOy2U+MSbqyouPbdNEROvJZloqX3qMg1UW876FvBF0C/tvhp2RYGFei8+7TXNCBUa3Xv8fMyHjzv4P4zhuMq42iBfSjuC+emqH699cs97/ZdHeUaBRKiPtpY70v884GBrR3X77eOExhLfL0TbkngKEi0hvzXim9Zka2hfIs6gTuqOoE7qjqBO6o6gTuqOoE7qjrGcMB//WNlPI24ZgwAAAAASUVORK5CYII=;" vertex="1" parent="1">
          <mxGeometry x="85" y="189.5" width="55" height="61" as="geometry" />
        </mxCell>
        <mxCell id="jOGzr96rdC9lRrHa4xcc-4" value="Backend Developer" style="text;html=1;align=center;verticalAlign=middle;whiteSpace=wrap;rounded=0;" vertex="1" parent="1">
          <mxGeometry x="80" y="261" width="60" height="30" as="geometry" />
        </mxCell>
        <mxCell id="jOGzr96rdC9lRrHa4xcc-27" value="" style="edgeStyle=orthogonalEdgeStyle;rounded=0;orthogonalLoop=1;jettySize=auto;html=1;" edge="1" parent="1" source="jOGzr96rdC9lRrHa4xcc-6" target="jOGzr96rdC9lRrHa4xcc-18">
          <mxGeometry relative="1" as="geometry" />
        </mxCell>
        <mxCell id="jOGzr96rdC9lRrHa4xcc-6" value="" style="shape=image;verticalLabelPosition=bottom;labelBackgroundColor=default;verticalAlign=top;aspect=fixed;imageAspect=0;image=data:image/png,iVBORw0KGgoAAAANSUhEUgAAADcAAAA9CAYAAAAJQPEgAAAAAXNSR0IArs4c6QAAAARnQU1BAACxjwv8YQUAAAAJcEhZcwAADsMAAA7DAcdvqGQAAAbqSURBVGhD7ZrZU9tWFMY/SZYt2bKxDTYQCCQsk42SaSbLQzPTPvSfzlO6PTRtyExJUrJDEmJjbONFtmUtlnqOIDPZpolkmQSGbwAZGUv63XPuWe5F8Eg4phIPjsdSxxpupG7JFx44DvROD5Zlw3VdOknfAo2pICAmiUglVShKAqIY/ThHDjcYDNDvm6jUWugZFtodE5vbHdRbJhzHQ98aIBGXmA1JRcLpqRQm8yomxjUU8hmoanSgkcKZpoXtcg1PN+t4/LKLatNBQx+g1/dg22xJj+BpLuwbDiL9UBICUoqAhdkEVhbTuLBUQIoAU6kUJEk6uHI4RQbX6xkEVcJva7v456kFveciyJVFgi3mJVxeipElFXy/chqTxTy5bnjASODYYs+3Srh9p4y1xyY6RvhL5tIispqAH6+M4drleYyTq4Z106Gdm4NEq63jyWYTmzsOTHK/YcQDU2152NjqoVzZg2lZ5AHhBmsoOA4euq7j3sNt3LrTxuuKA5uCxjDiz3fIpdcembj9VwkvX1dovoYbsdBwbLGtVyWsb5Tw65qOph5sjn1OzsDD348c/H5vF7sUeQcDSiEBFRqu1W7j/uMq7m40UKo5GLgRkh3Isj2sPzXI5avknsGtFwqO3bFSqeOP9R7d3KbcFT3YW9WaAzx81kRb75G3BLtPKDjTpMRc6lFiHqDbj9YdPxR7I3sGBxce1CAKBefQTapNm242Qqp31O55VMIZ++VbAIVzS6oXaw2CCz7HQ6nV8dBsdQ8HzrappDIHI3XHd8WBxXZcqk2dQDkvMBxfnCOXMxD8qv+w1HcEgnQOfvsyhbIcV71UCh6q+EGDViqB4QSu5OMyYjF6fXDuMKTEPeog4v79v1ShLBeLScikJL91OQwlqS1SEjFIPKIBFOrx4vE4Fk+p1I4cju2mxkVMFXJ+5x5EoeC4BVEUEXyvAF4SWglZoAGVA7kkKxRcgnx/blrDbDGGfEb0O+pRKU5gp6fimCxkA3fmoS03WZzAD6uK3zmrysEbI1AxJ2BlKYe0ph6O5VhaKomLy9O4eqmAs9My5Fj01tNUEdcvaliYm4AsBwsmrNBwPIrTU5M4t3gKP13NY6YgRRpgMikRNy8ruL46jVwu3FJDaDgWz4F0WsPq+Rn8fG0MZ6YlyEMCxuMCsmkRNy4quHnlFOZmi+QVwa3Gimz1q7xTw/oj6srvtbFZpuY1RMegENiFMzGaZzKurkzg/PIcEhQlw2ooy72r7Fga8zNZnJtXMVsQkfRTxZdbMZ0UMTcpYWUxhQsLmYO89o2sW7K4mazWG6js1rH2bwO7DWqNmi722h51Ed5HnTSH+UxSQH5MxPn5BFaX8zgzN+mnGi4UgkbHDxUp3FtZluUv9/VNC7u1Ll6Wu9C7Dly6lUNNoETBgZ+bk3NxXMXZmQzG0kmMkfVlObwbfqiRwL0VX5p7MG5VPHd/icCm11yb7ltF8IMSVx/DLp1/SiOF+9qKDI4vw8sAvL7oeftds8PdM0XNdsfwjy7NSZfek8QYBA429KUmZAo+MQr3lEbIJUUqWLlblOg47G7PUHC8Euw4A9gEwq+bbQMVmmOdbh+G6cK0XXJJF422TX9D3TS9ti3uy0Q/4fOzp1TJ38pK0rlUMkZzT/G3uCZyKaqCEn7E5P27GOW6oAEmNBx/jPfh2EJGv+8Hkd16D6/KOhotg+AYhreuXOg9OtKUMwmM11Z520qmKSaS9dTEfmBR6ZxG6WAipxKsjFNFDdmM4s9HLvUSicRo4TjUs6X2mgTQ7OBNpYt216Zjj44OdINcsOuhRd+80RhUfmpI7YMzKAVQShPUO86mUcgnURjP0Pk4ZALmquVzQeizcGwZhjLISjvVNrbLTbKOgRelPuqUw9giBlnEJitFLZ6WCapa2KoTWU7yCgpUvWQzcZyZySGf08iVk370/ZT+F67T6aBUafjbv49e7OHFG8svrdjNgi5tRyH2SnZMrj0XZ2QsnVaxsjyO4kQOmpb8yJIfwXG04zn0ptzAky2qF590yN1c7NTZerzx+22IITOa6Jd6lxY1XCJILgRyY5pf4XCkfQ+OA8RutYmnL2tY22hhs0QRUPdGsoMTld5CLpAlC1kZy3Mazi8WMZ4f24fjIMEu+GyrgrsP97D+3PTrwa/hemHFkOy2U+MSbqyouPbdNEROvJZloqX3qMg1UW876FvBF0C/tvhp2RYGFei8+7TXNCBUa3Xv8fMyHjzv4P4zhuMq42iBfSjuC+emqH699cs97/ZdHeUaBRKiPtpY70v884GBrR3X77eOExhLfL0TbkngKEi0hvzXim9Zka2hfIs6gTuqOoE7qjqBO6o6gTuqOoE7qjrGcMB//WNlPI24ZgwAAAAASUVORK5CYII=;" vertex="1" parent="1">
          <mxGeometry x="75" y="391" width="55" height="61" as="geometry" />
        </mxCell>
        <mxCell id="jOGzr96rdC9lRrHa4xcc-7" value="Frontend&lt;div&gt;Developer&lt;/div&gt;" style="text;html=1;align=center;verticalAlign=middle;whiteSpace=wrap;rounded=0;" vertex="1" parent="1">
          <mxGeometry x="75" y="451" width="60" height="30" as="geometry" />
        </mxCell>
        <mxCell id="jOGzr96rdC9lRrHa4xcc-8" value="" style="shape=image;verticalLabelPosition=bottom;labelBackgroundColor=default;verticalAlign=top;aspect=fixed;imageAspect=0;image=https://www.opc-router.de/wp-content/uploads/2021/03/mongodb_thumbnail.png;" vertex="1" parent="1">
          <mxGeometry x="230.52" y="180" width="59.48" height="80" as="geometry" />
        </mxCell>
        <mxCell id="jOGzr96rdC9lRrHa4xcc-9" value="&lt;span style=&quot;color: rgb(217, 48, 37); font-family: Arial, sans-serif; font-size: 14px; text-align: start; background-color: rgb(255, 255, 255);&quot; class=&quot;t55VCb&quot;&gt;MongoDB 8.0&lt;/span&gt;" style="text;html=1;align=center;verticalAlign=middle;whiteSpace=wrap;rounded=0;" vertex="1" parent="1">
          <mxGeometry x="230.00000000000003" y="269" width="60" height="30" as="geometry" />
        </mxCell>
        <mxCell id="jOGzr96rdC9lRrHa4xcc-10" value="&lt;div&gt;Node.js&lt;/div&gt;v22.14.0" style="text;html=1;align=center;verticalAlign=middle;whiteSpace=wrap;rounded=0;" vertex="1" parent="1">
          <mxGeometry x="390" y="269" width="60" height="30" as="geometry" />
        </mxCell>
        <mxCell id="jOGzr96rdC9lRrHa4xcc-30" style="edgeStyle=orthogonalEdgeStyle;rounded=0;orthogonalLoop=1;jettySize=auto;html=1;exitX=1;exitY=0.5;exitDx=0;exitDy=0;entryX=0;entryY=0.5;entryDx=0;entryDy=0;" edge="1" parent="1" source="jOGzr96rdC9lRrHa4xcc-15" target="jOGzr96rdC9lRrHa4xcc-1">
          <mxGeometry relative="1" as="geometry" />
        </mxCell>
        <mxCell id="jOGzr96rdC9lRrHa4xcc-15" value="" style="shape=image;verticalLabelPosition=bottom;labelBackgroundColor=default;verticalAlign=top;aspect=fixed;imageAspect=0;image=data:image/png,iVBORw0KGgoAAAANSUhEUgAAAJoAAACWCAYAAAAmPZFsAAAAAXNSR0IArs4c6QAAAARnQU1BAACxjwv8YQUAAAAJcEhZcwAADsMAAA7DAcdvqGQAACxISURBVHhe7X0HYFzFufXZpt6brepeZFuuYIMB2xgMpsS0QEwqP7yQhAR4IfAMgbwfXhICCSQQUt8LJbQQIPDotjEGjA3uRbZsy0WyZHVZxerSFr3vzN4V69WutJJW0pW9By/aO/fuvXNnznxl5psZQ2trayeCCGKQYdT+BqEDHDp0CHfffTc+++wz2Gw2LfX0QJBoOkJ+fj5Wr16Ne+65B3feeSfq6uq0MyMfQaLpCA6HA0ajUX127NiBWbNm4eWXX0Z1dTU6O0e2hRMkmk5BsqWnp+PRRx/F7bffjrfeegtVVVXa2ZGHINF0DIPBgMjISBQUFCjC3Xfffdi1a5d2dmQhSLQRALPZrEi3e/duPP3007Db7dqZkYMg0UYQSDiq1JForwWJFsSQIEi0IIYEQaIFMSQIEk1noNF/OiJINJ2Bxv7piCDRghgSBIkWxJAgSDSdYSR2xvqDINGCGBIEiRbEkGDQiFZYWIhNmzahoqJCSxle1DUUo6Bik3YUhCfKysrUZ7AQUKLRvigpKcGDDz6Iyy+/HLfeeiu++c1vYt26dTh58qR21dCBY4ItHfXYevgZvLTpFry14z68sOEmFJ3YCpu9Tbtq6MD8NDU14f3338fChQuRmZmJv//97zhx4oQ6N9R9aIx/o0B46KGHcMEFF2Dp0qV45JFHUFRUpM4FEgGbM1BZWYmPPvpIBeqVlpYiPDxcpTPDbW1tOO+883Dddddh3rx5iI2NVecGE01tJ1BY/Tnyjr+HE42H5E2d6RyPZn3OyrwW41LOQ1pCDowGi/PkIIKNcOPGjXj33XexYcMGRSp+WDbTpk3D1772NVXpJF5YWJj2q1PBeyxYsAC//e1v1QD7QHD8+HF88MEHeOONN5TWcdWX8AHjxo3DN77xDUW+UaNGqfSBYsBEa2xsxPr161UB7t27V6V5djqytVqtVhVbNX/+fCXlcnKkggehc9Jqb8HR8k9xsHw9Suq2QeSEEMl5zv1FOx2diApNwaRRi5Ez5hrERqRpZwKPgwcPqvCenTt3KslusVhOkV4kEIkTEhKiiOdLsgWCaHw+w8UpVbdt24aYmJhu9cDnEKyjq666CsuWLfNJfn8xIKIxIO8Xv/gFDhw4oMjUG3F4DSUcPzfccIOKHB3oC7ijpaMaGw78GQWVn8OB9i4p5qo2ry/qMCHUHIMFE76NmWOv1hIDg/b2dvzjH//ASy+9hIaGBlU+A1GPAyVaXl4eHn/8cfWX+eitvlhPrDMKh//8z/9EcnKydqbv6DPR+LK1tbV47rnn8Ic//AGjR4+GyWTSzvoPVgJf4uc//zkWLVqEqKioflWCo9OO9o4G7Dv+DrYUPssEEalf3offenxBnpTrO20OJEeNx7lTvof0hNkwm0Kd5/uB5uZm7N+/X9mqtHeio6MHRDAX+kM0/oaTXJ599tl+1xdnZFG9sq5WrFihpGBf79EnojFm/ZNPPlEko00WGtr/yiBcEo72G0U0C7EvEq6lvQ5HREXml72HioZCGFzvzjeSevWLZAQvFCJ0Sl5MpgjMSL8c2amXIjl2kvO8n2CFcFLJ22+/rUwJ2j2BNA/6SjTayjRrXn/9dfWdqnkgoP2WnZ2ttNGFF17YJ1vbb6Kx4Gjos4WyQPsjxXyB0i0uLg6zZ8/GzTffjOnTp2tnfKOw6jPkFr2N0vqdIsTEQ3Jn1QCFB+23+MgJyIqbiVnjr/fLfqNx/Ze//EXZYZy15GmHBQL+Eo31w8ksNPSPHDnil5r0F7w3G9CECRPwrW99SxHOH/hFNHpDNOADTTB3ULp1dHRg7ty5+N3vfqdUqS9U1OXhvT3/hVZblSKXqlD5R4IEDLyn2MQz0q7A4hl3yqHviuV8TBa6q0IDTTAX/CUa7cKnnnpKXT8Y9eXSRLz3L3/5S7/I5hfN2ffjunFfwAz5C1YOC4+/oefVE6pOHkS7rV6RjOBvAkoygnk3dKLF1igSs+dZ4yQaJRjLZ7BI1hcUFxf3q778Bd/R9a4tLS1aas8InAHhBko+tibOS6SU4ksHEgaTxSlxCPIrwBzrgjzCZOqdOH2tUJYHGxO7fAJdNkRfpSrriI2cdTYY+SECSjRKFjKcBuO9996rvK6bbrpJtXa+TCDRVYz84n+Z+g11y0EgMMuBNg5Nkbvuukt1GfQmwQcLrC/m55xzzlFzRrkUA4UDjf5AI6BEq6+vV8NOtCGuvvpqzJgxQx0/88wzqpeZfUmBwmAJMRfU/QNMYL4/HZ4nn3wSP/rRj9RowJ///Gd89atfVWU3WNLEG1xa5/7778fDDz+M5cuX49prr8Xvf/97lR8Oi/mTH97DHwSMaOxbY2/zbbfdhsTExC7RTZd60qRJysDnwiW9STb+ri9ifzDBFh+InPA+7Ft74okn8Le//Q0zZ85U5UIVl5GRgZ/+9Kd45ZVXkJqa6nfFDQQkGQ14DoV9ZcVlaOksxj83rsSHuQ8hKs4u0m0V1qxZo/LtDSQg80nVP2XKFC21ZwSEaHxwVlaWGiPrCexh7o1otHcGy4jtKwJFd1YspcXFF1+spXQHyXfLLbcMitryBFU1NUxIqBn7S9fgjW334kRbFQ5Xb8AbW+9Gcc0OjB03FmlpaadINRKP75KSkqIk4L/+9a+hJRrBcczTDiJZA6Wiaaf2hqGQZi7wWXaHFdUNBbDZm1SrMhgNaOyowommo0KqU/NCwrG/89JLL1XRHhySYvSJv/CbaEMlZVQBDGGB94gAqU7dg63J1aL418M0Y+AEzSFGltDJmzNnTp/5EDCJFqjBcYpnX7bBSIY/dievGaoGrWxhqf4IS4xzXJfSW4rdYg5HiInayYCpU6eqRv/DH/5QjTIwmqO/mitgRDstESDVyUrlODE7vn2BFcrx46FwhNhndvToUbS1WnHWxBtx/pTvIj12NjJi5uHC7DsxLWs5jAaT6u7gUNb3v//9AY9rDynRKKn8cZl1gwCpTkqprVu3Ku+Sg+6eZXD48GEVbkXjeqAD3/6ApPnf//1f1Xe2dfMuTB29AhfPuA8Xz1yFqenLYTY6SZWQkKAcgkBgyCUaXeKRgkApcEopNrItW7bgjjvuUOOD7O6gB/78888ricGuIQYlBjLawxeYH9YDyc9OYxr2Bns4osKStCsCj4C9VaB6t5XtMATqwx8ogmjfAwFKNhLuzTffVN0DtH1+/etfq9EUnhvq9+Yz+Vm7dq2KCWS+SPbB0DoBI5q/meOL9QTXy/cEk8EoKm1wK8V1dxrIgQYdJ9pkubm5KoiwLwQbDEeJ+eGHQ4a0y9hZ6+9gub8YMNH44nR/J06cqKX4BnU+O/t667TtDYlR44UIYkcMBgvcYLeJjdZp6nXyCm2e/rxTbw3KE+wsJSl7+x3J25+OX3qUXL6U6+X+5Cc/UZNpAoUBEY1SjAX8ne98RxmWvYHDLRxL4wiCrxbjTz9acuwUXDX3lwi3RMLuEDK4hW4PGCSv3NPa4cBZY27Aomm3S+X2XLHnn38+rrnmGhXuPBhqh/ekSuPYMedZ9CYBOYOJ1zGqluTsixSkR8qOWQZwUrqtWrUKNTU12tn+w6/AR85u+sEPftBViCQCM0QJ9dhjj/k9DOEOhhf/5je/6So0GsG8L/tqOLcwKal3w9Rmb8f2ghex5/g7sNoa5G36KeFcP5OsGDstiA1NwSVz7kdyTLZ2wj+wnBhXzyhkvtdADXsShGUeERGhjPavfOUr2hn/wC6Vn/3sZ0pK9Tc/FCSUdCQdRwX8GeHwBr+JxigMF9E49MAwF0ZoDASMWOCkiY8//hjl5eWqIPpCNBcq6/cjt/hdHKvZqCaquE9O8QtSAny31PgcTEhciGlZVyAspH9zTyl5OGeAcya55Q4bZF8rmASjVKGZsWTJEhVqxUkl/QGdNM63ZX8YbULeu68qmx4qZ7HTS2UYUX/gF9E4L5GDwi6CceSfD+xNhPsDFgQjVGmAvvbaa5g8ebKarRMfH69d4R86O20orP4CR8o+xOHKTeg0aCqspyzKm7PgoyPSMCfrqxibNB+xkRnayYGB4e+ffvqp8uQY8eqaoNsbqOpIzMsuu0x9GFYUiL41SjfuMfXqq6+q+qSU7K3+WDbsZOakb0pTCpa+ktQFv4hGRnMjBdpWJABbaaBBwnGCB9UnydY/tdOJDlszSmr3YO3uR2BFI4wmbbl0z7eUY7vDgKmpizB/wk2Ii8ySgh+YqvME34VLRDB+nw2JKqin96IBP378eGUXUbL7S05/QalNO5ISl2FbrEtf+aFEpR1NT5QqkzOeBiJY/CLaSMVH+36tpJuts5HN05kof4zGEESGxmHptFXITJzrTB9kcESAHaMMKHS3l1j5/M6K/fGPf6yCIftrB/UFVIW032gWedpvlKp0bmiX91Wz+MJpTTQxpVFRtw87jr2O8todaHe0ISlqAialXKhmpVtMgZUYvYFSm1MWuSQBp8FR0jIqgqYIpxky8HEoQU3FvNAx42oD7BZhZMbKlSuVyu6vmvSG05poLrR2nBTC7UGbrQ2jYiYiPmqMtOK+F+LJlhI0tp5Q382mEESFJatPX0B1SvuNE3upmjh9jpUbqOiX/oDqdPv27Uo9MgBzMBbhOSOINlCU1OzEpsN/Qn1zrchIGusGUXlAiNGMlJhJuGDKbYiLytKu9g9UT1SbQzGIrgcEieYDXNOjqa0aucWvY3fR65LCcU9XNIf8X7OL2WEcZg7F4ql3IDPpXISHxKoQmyBORZBoXlDfXIzCqq3ILXoVje1Vzn45elwuh8ILHDYHEiMzxfa7HmNTzkF0WIqkamwMIkg0d9jsHThYthZ5Je+jujFfSqePw0lSkmZjmNiBU5GTdTUmjl6snQgiSDQNXON23d77USXGfmenM+SJ8qjPhcMfGEm4SGSK47F4xv19dhj0BHaEW+3N4qFz6S3ffYC94YwmWmenQ+ywKuw6+g/sPv4ujGZH1wC9r7U8DDCJM8DlAzrkoJeiE4FoRCjOnfwdTE69BJFhidoJPaMT7dZGVDQcxOd5f0KNlI/RYBabtQPpMZMxe/yNyEiYBYs5QrveP5yxRGtsrcaxE5uQW/gWalsLhWTSWl0lQXPMg2g8jg5NwfhRF6jukbK6fSio+hg2h1V1ePqE3MYhv02OnIh5E24Uh+Es5TDoE52oay7CxkN/RH1bC9KjxyMjfhYiwpJwsrUUpXW75b0PIyNuMhZMugXR4f6vb3vGEY0RH0cqPsb+snUoq99B9xIGDlOREVpJUKp1EU3+WMSLHD/qYmSnX9K1uLLdwfusx4HSdSiu3u4kak+2vzgSnG2UmXi2WgorM3m+7rxT9je+u/unCLPEYeHEW9DW0Qiz2TlKYZK8JkRPRGV9HjYd+ouaLfWVuQ/LO/g3aeWMIlqb9SQ+zP0lSur3CVFaT4ljI7FOiWuTY67vFxOaiSXTfohUIZinuiA5qWYOlazDhvz/Fj0ptp0f44EmRGLSqHNwQfbtCLXoR7pt3P8nlDQdxuU5/yHmgQnPb/g3FgM4yyNUGmNqbBauOetJNLSW45UvbsdsaTDzp97s/HEv6L91N0LA/rCWjjrsLPgH/rp2hajLrYpkhEtqqUF3/nUdOwwIMcTh7PEr8e0lzyMrZYFXm4Th5GGWGMwcdy1+tHw1poy6CBYhUW+q1G5owYHKdXh6/Y3YX/KeNIAGRdrhBGet7y5+CzmjL0RMeKqyX21STjmZS3HdnJ8hPXK0qM2jYi5skvNpmJmxHHvKVytP3R+c1kRrlwrkPgPv7Lwbnxf8D0yhpm7RuIpcrGMmyyfMHI/sUZfihoVPiR3yPXWNv7ho5k+xfNb9yIqfD5MppIu4p4DPEWLTg3MYW7H+wGNYvfu/cKR0vaiqwK221FdU1O2HxRKJjCRnkAHbnlH+i4/MFGk+HYlx01Q5GTXPc3rG1bDa2tSiiP7gtCSao9OK/PK1WJv7K2VPVDcWSMWSUFrFe9a/HDtsnZicsgwXT1+FC6b9CLERfY9Lo801JuVcLJ3+H7h42ipkJc6Hw+75MA2uvAhK6nbg4wOP46N9j6O4ZpvK/1CDoyAklruj0ilKc3/Jaqze+wgOSHlmJU9TK5YT0RHJ0mbsynTwB6cd0ehNfrD7F/hk/5MoOrFZxH+Lsptc6ym7yzOquE4hQkJEFq4/50mxxf4dY5LmI6SPrrsnIsMSMGn0Ulwq0m1Zzj0INcYLk7WT3tSqJFk7W0Wtf4b3Rbqtz30CHdZm7eTwgNm0OexiMoQiNZqh+gbUNpTKX/eGY0JYSIz2vWecFkRjOFBLey0Oln2Af275LgqqN8BKgvHtWGIuG0z7EEwOMcdi7phrcd2Cp5AaN2vABPNEmBj62elX4Mbz/oqxifMkO5HKyfAGlTeRujZHEw5UvIcXN96APM1++zLXg4fo8BQ0i0d+oqFQSxEaiZkRG5qOsyZ8A1NHXyS2bjPqm0rUuZrGI0I9ozgJvhe1dseIJxr3Gsgv/RBvbrkTa/c8ojxLb0KjC0K6CEsiJiZeiCtmPoTzsu8Qz8+/VtlfcGTgyrMew2Ui4cYkLYDZIITugTsGkwGt9lZ8lPc41oiEO1qxUW09NJhIS5iJ5PBkUZUfiO3ldJY43dClAuIjx8PhsKG5o1bl5dODf0VSdCYSYnpeE88F0wMPPPCg9n3EoajmC3xx8L+RW/oOWuy1QjApFW8kc6U5TJiUuhjzJ34Hs8fdMKj7P3kDDeusxLMRJ89t76hHY3MlDTvtbHfwddiVcLxmJ06cPIRY8fwiQwdvOCsuMg17jv0LkeGJQqLx4hhFK+cgLjIDZpMFMREpSIzKRH7ZJyio/BiXzPqp38NrI7IfjVLrk32Poah+N6zWJu/kIrQ3Y9dBhDESl8x5EKNip2kq0ncFDzbYddAmRnRR9UZ8tv8JtIvxr+xF7Xw3MKti41mMsZiZtUxU2f+DxRRYNU9wmftdhf/AliOvYP6EGzF33ErJF1f4puLrVHneJA07v2Idrjrr50iPP9v5Qz8woojGnmtuyfPFkb+jwy4qUqSBqw/MGwxGo6ipSExLXY5zJknlmIc2dNsfnGwux8b8P6nlPO2GNrJQO+MdPB1hiMWy2aswKi5H1L5/NpK/4CD6zoKXsKPoHRisbUhPmo3UhFmorMtDYeXnCI9IEqfpBxibfL5c7X9jHRFEI8GO12wXY38NCiq2wGRhK5MTzLmXd2X/VYiQavyoRWKMX4aMeKdLrmfkl3+IA2UforxuD+ydPXeCUvrZrXYVhjQ980pxZGYE3JGpFaegoiFPjenaxDYzm8wYFTUJWSnn9svk0DXR6E1WcnJJ4b9wTOwx9usor82XXSOnHHYHspLPwrS05ZgwepF4TgNbQG4o0dpRh8PlnyC35E3x6oqV1+dVaLgamYi3UHMCxiXNx5wx1yMxdoI6HWh0wi6PVC68M6Ef0C3ROEy0+eAzyCtbiw5Ho+S052x2CsGMoiaXTP8hJoy6QFRKtBRL/wtmuMAhszaR4HnH3xGV+gwsFpKt5/cgCSyIlsa1BAumflfsN/0tXK07otGFLqndhfd2/1xUSIOys9wnALsacxfkwCQFOzFpAZbN+pmWeHrgZHMRPt73BMqbD6pokR7tN1VEnUgRZ+fCqf+O5JiJmhGvD+iKaGzNRys+w2cH/4QWW7WyRQiXwe9q1zyiHcZ2PCZ5vnhiVyIjUX9hN4EA+6wOl69DftmnqDy5BzZuuecNLBQpIJZLYsQkXDzzHiHdZOc5HUBXRGtur8Ub2+5U8yd70nocP0yPm4WcrBU6DyQMHDi0VlKzGbuL31UD2SbGv/kAyZYUPRVfXfC4btSoroi27cjzarvqUwIP3SFJZlMczp9yMyakLDojCOYOSvaWjhrsK34T246+ik6j7+hezspanH0bZo39mpYyvNAR0Trxh3cXAyGi/uhtudlllG7GzghkxWdj8fRVKnLgTMfJ5mKsy30EFU2FUlTa+sEenAs3JePmC1/Rha2mG2ux3dYAm6ugXEavdjw6Zhoum30/rjz7sSDJNMRGZuGq+U9giUitmIjUbiQj7Cros1Y7Gl7ohmgdttYuAdYFSTCL10ljf1zKuVpiEC5w/Y9pGVdgbPxs7yrU6FBdJXqAfvxfwkth0ZM0Grg+hZeC1BmcY5h1aBLDvaG5ouvTbmVld2tGAQH70EwGs5SRl/JRYUft2sHwQjc2Givkhc1fV4GIXZySrxajBReJXTYx9SItsf8gEVo66mF3dCjt7KobkjkylHuM+tfunJ2qDeIlV6KociuKq7egsiVf7muH1ersfrCEcv4nx2KdhrnB6hB1F4vE2BykxExFRtJsRIWlIsQcqZbP8mXU+4NN+3+LXSXvfFluGkyGGFx79q9UIMFwQ1dEe3HL11VI9WARjd0mb2y/B40t5WSdqly+fLglDtef83u16mNPYGdyZcN+FV+fX7oWlY1H1T2MZo5B0FNmGK+WefdSdXsfgvM8+fzo8DhkxJ+LjMTZyEo6C5H93Llk04HfCdHe1o40yDPNxlhcM+9hXRBNV6rT5QN0g0dL7S+a2k+goakMRhPJYVQBhvzeZqtHs7Vno7m1/SQ2HngcH+57VM1DONFSCLN4yOzPUqNjGnG74C3PTJMPJR2f3yxSMb9iNT4Roqzd+ysUVvRzXX8liU994EAk5GBAV0TzWTa+CBgo8LkO3xVTUZeH1zbfidyy1WhoLXNmVP6xr499W4pn2ucU8JbebutK418hnR0dKK3biTV5jyH3+BvOc32BqHJvheS1L3KYoC9nYDggdaHq3UedNLZWYtORp1Hffsx5DT/eyOMveqh7m12kZv6fsbf4NRWE6C+4HohnpvREMmJkEG0gFesJz3v1cG+rvRXbCl5Eae1OKSi5kNd6uZ5SzTWtLsQYhuiQZPWJCRuNmJAUSXMGXKrK9/U87d4k2ObDLyk70F+EyHPQyzZCww39Ec2jIrjWbH/Wm+0zjN0lQE3TURws/8h714FcTg85zJyAKaMvwZJpP1FOy0Uz+Lm324fzRc+deCtmZKxApPyGv/XFOdqMH+9/Sjs6PaA/onnUNzeRV95coODJJxJG/njj0q6CV2BX80LlwP28/MBmdSA7czFuEG+V80Fzsq5ENoMtRy0RL3Ku+qTHz0J64hxJW4Spcm7uuBtw3uTv4/pz/4q5WTeoe3gjG8d6qxoOoaw2V0sZ+dAV0ZTX6Vnyihjqf4GB5/214077qSfYV3aobIMQ0BsVOjE+bb5IqYcQE56uwqj9CbLkumrsM+MGrOdNuw3XLXgcZkdYt9fjM0NCTfji0F/lqPd3b28tlQwPbMfAwYa+JJq3umJa73UYcNRxsFr77onI0CQszV6lHfUfqSLx5oxfKa93qmngWvClvqUS7Tb/lhzwBKWi5zojw4mR4QwEUKB1u5ePeze2OXc48QQN/9T42Wryy0BhMlrUwsqc73nKkyRPysEwWFHbJN5uP+G2GcqwQ19E81bpgSQZ4ckdH42ew1UO6nKed7uGSUrFBwhJMRORGD2h+z3l2CbqsLapSEvoO+yaJ6wH6IpoXs0h5nAYVIBRpI3JJOrHI1Ps1S85sRUNzWVaysDAcdaMuByYEaVmbLl/uMsyV/jpDbT9vBaefnimL6J5kxS0XwydAcymF8nhDckiZTg7XPV9eVzTZmvA6j3/H/nl63CyudS5cPIAkJ15ORZP+z7On3zbKZ8LxWGYkn6JdpVvRIanCWG99aPRRdFHFeuKaKpRelSq6t5QQyyDBHmmN3kZHhKDmDDviwHTyK7vKMe6fY9i7b5HsIbrsB34I/KK3kNV/UG0ttfLa/jfJUOSZGdcgZzMFad8pqRe4oNAp8Iuap6S1hMsz562bRxK6IpoPuGNCf2Fn/cyGMw4d+ot4BY8Xn+jBJ0NlY37UFD9CfaUvIlP85/CW7vuxYsb/w3PfbIS7+y6G9sP/11NCj7RkI8mbcOyQMMk1ajsSTe4xmEZuqQH6I9oPip1OJCReDYSI9KVCvUJ5k3y7IBdvMR2tNtOot1Rg2ZrNY5Vb8cXhc/ig70P4oVNt+Jv66/D3z65Cm/tuAs7Cl5BcY3Yeq2VaskHxsj1Fyeaj0o2vlwlsqsI1XjnMBWeB/Qv0Qa7nOT+vh4REcoZV7chypLcr3zQkeCHQ1gWkxFmi1EFTB6v2YWNh/6CN7fegxc2fAsf7H4AW448h8KqDYp0fUWoqFf3YTJmVR26pQ03dEU0r90GqsCcXwcFPdybhnRm0tlYMv1OxIYnO7sL3K/vC/lc76F96NEylo1T5spOcn2Rl1Ws24f7fqUWs+Eq2X2CZ15IMj5LJ9AV0bo1QNdxXyo0wDAZQ9QCyNfO/zMWTroZFoSohWS6EKC80cHosLeIOt2C9fufxPs77heyOVdePB2gP9U5jKTyBUo2zik4e8K3cdPi17Bkyp2It2Qi1JQgKjFKLfWu+tuYd1f+Xa2mH+/j4MLJdVvx5pa70GHrfdFk9qN5PiYYj9Yf6EgFcL1bbmDxjSXP4+vn/xXLZz2A+eO+ickpl2Js0nlIi5+HpOgpiA/LRIQlwUk0UbkMC+pL5ZO4FY2Hsf3oC73200WGpclzzNqRBh2VGTEyiKZTcHCdix/PG/ctLJu5Cpfk3IdLZ96LS2fci2U58lGxaKtUnNp5U76P7LQrMTpqmgqEtNvET5VPjzDYUVSzA/XNx7WEXuDGY88RjeHGyCBaILXAIGqUEEukIl981FikxGYrRyI7fTmyMy/D7LHXY3H2D3HFvIdx43nP4Zr5v8GsrKsQYgpV0sdrpIXkta6xACcaj2oJvUBnUswduiKa8jo9CyvQxPCjMrgDXkNrFU62VJzyaZQ0xqn1BxzT5Bq6XJiG22BzV5Ul0+/Cjee+gLGJi0QCeakKySuXqaptOd5jPxv70dT6aTqGviSaNxIwzQ9yBBJHKjfgxY034bkNK/HcZ19+Xv78VtSKhAkkosOTxc67D0nhU7WUU0EN2NrR0CPB2Y/mGXgZdAb6g0CWmee9vNy7qZ17FjhgNhlgNhudf+XjQDuqGw5pVwUO3Id9WtqlXsN6aGtx4nJfykBRjtfriGz6Ipq3cgl0WXlKRx/S0iEP5qOdY4b8y/iuNpTVHnBeEGCEh0eKnaYdeIDSzJkb/9B1pTe7b5igK6J5dZSYwyEur4iQaKkjNcFOgX9deTvRVID6Jj+9wD6gquaw19dUM60sUSo/vmD1QsMvU4a48HxAV0TrNgQlx5wFF9Ci8vIMT6THzYQZzlBtPpuXuPJW3bgf+4rfUg5DoNDQUo680jXyLI835btLUnRIEhiI6Qtx4VlqBMMdvBPVrsmoj3V99SfRPCrevZIHBfJMj+pFTGQqYkOT5blukoIXURWJrZZX8T62HH1GVNrAyXayuQyb8v8HbY6G7hmRYy78khQ3QXmtvmATRd+9e0SOB7Xg+gZdEc0bVFF5luFA4Me9GNU7d8JKWD2Nc6k4Sgkb2rC37E28vPFWHCh+v187B3Mcc2/RW3hnx49xtHoDU5wn3CGPj48ch8SonjeqCBESslG44HpFJuklHk1/y1a5V658tYjrzt71QCxbVVq3G69vvrP7itZSI9fMexLpibO0BCde/+J7KG/Ml4qTqvNBUA6ws0JTIsdizKiFao9OsykUUeGJariK+7O3tNeojdI6rC0iezpQdOIzlNUXijrkbHW3G7t95QYdFks4Fk7+LmZmXqelesf6vEdxoGLNqV0a8tVkDK6P1g1DRrQvhGgWN6LJM6ggr/VCtKb2Sry78/4ve+Z9kE2lM9vCOFfu3SfX0yTgh2mubXeo6pQUUr9zXncq0ToxKXUpLpl5n6jNnsO5uRBfbsV74hV/+VDem+uj6YVo+nYGCBa+WwUMGJ736uHekSHJWDz1DiREjlfHavzQ2/VdRHEGOiojnPFm2ofx/K40/r7LnvJCMIKNbWbWdSro0p85Awreyk5H0J8z4A7X8TAVIoeFRsfNwBVzHlI7u1mtIjECkBfVN+fZmaq9q9FgFoLdgoXy4dIJ/QW3NtIT9JUbQmctk2SLjcjA9Qv/Ww0VJYSOhhlhzpOSV8+20WfIPdhjF2KMRmLoWKyY8yjmjvsW+rLxq7d4tC8b7YBzGBDoj2ge5eJVnQ4TpqZdimvP+Yuaczlp1DKxfWYiKjQZpk6Tijnj2rTu3l83yCl1DT9yfWz4KIyOnYWpo5fj8tkP4sZFz6pViPoKb/FoKhvCNq9Lbg0D9O0MCMyw4OJB9jpJDm/OQE/gTr3cn6mxrUJNo2u3NqC6qVjS7eBieu22GrS01alhJYsxEhFhKdKqzeKJRiImPAUWcxQSotMQaRmtVKSabd5P7Dr6EjYfe75bhEdwVW4v8Lr8u8Bgh/I6p2Ys11L6D69ep6A/RPME1+pQa/pL9ul7kmwOcTMpUNiF4SQSJYxJPE+zpAemx56E/2jfb3CwfO0p5cZ8WMzxWHnOU6L607XE4YNuVKfRbBKSyRdP1Sk5/OjAo2o6Gne/Y4UOCIOkSWjLce0zxpxxvbQwS4yarhceEoewkFi1nwDT2ccWCJI5HFbUiwRdk/sIDpSukZQv5YXrFU0OI0JMgd1zvb/QDdFo66RGT2YT1VI0SKkxZfPhZ/Hmltuxv2Q1WtrrnOfOQHCpBa7dtvPYq/jnF7fiUMU6GLjPgZuXyfKiJE2OykJ4qD52ANQN0YizJt0shrJ24ME32lX1bWXYkP8UPtz7MAorv9DOBAhe1rDVGziQv7fobazN/RU2H3kGVrSrPjqWlacTwvkI86fcpB0NP3RFtNS4GZiaeikc7K/yBilTe2cbjtduxwd7foHXtnwPtQ2F2sneUV67T21g4QmmWDyiH/SG4zU78fLn31abaVQ3HZZM+zYhGEA5Z+xK1QeoF+iKaLRhzhr3dWTFzYWhszshuiCnHGhBxcl8vLr1DuQee71Xdco9oDYffbrLfukCBYHDJDZVovNYR2DAY0NrOT7KfRhvbLtbPNwq2EWKiUehRhfcIzbUNyXULJicugTzJ35T2Y16gW68TnfUNRaLDfIKiuq2o7m1ylmgLElfOZUWPDpmBmaMuUpa8RTERHC9MGd3AV3+6sZD2HDwKVTW559SOQqicpIiJmDF2Y+J8R6vJQ4/TjaXoODERmlEb6Ghrbx7vj3h6ERMWJqQ7CLkZF2DyLAE7YQ+oEuiEZzVU1q3V23uxWWf7AZu66yd9ISks1uE5BoVOxkx4WmICIlSvGxqa0BN0yHUt5ap37PrwZ2w/F1Oxgqcl/0D5TUON7i/5uHyNThUvgHlDXnOxB44xs7fEGMEpmdcjomjFyElLlvKwc/x0SGEbonmQoetRa23/9H+X6GxpV6tyOMNrrpQLyMHrtBnu80uBOOgthyIVPAcYzTBjKXT78aUNK6s2EONDgHqxZv8YPcvUN9eKoZ/m+RG8uMrS2wvdodI8mycP/1HSI6epLpO9ArdE80d24++iJ1Fb6DDzqWd/OxP49v1UFkcAlo2YxViI1O1xKEFZzg1t1eLF/ks8orXOBsS1aRnN48buEhgiCEWC8avxMxxX9VS9Y0RRTSivqkIOwtfQ2H1p2ixNvZuu/iCvLXFGC7S7C5MSr1YSxxaKDus6jPkFokd1lGhJK9XaI2FXT+x4SmYmHKhigAOs8Q5z48AjDiiEVa7qFNx9/eWrEVBtXN3E1915AtciuDc8T/AjLFXSh0O7QQOm6MN+4vexcHKj1HTmC++jN231BVQ3XMwnssqTB59PlJip3WbjKJ3jEiiudBubRJDvwA7jjyNY9V7ROV0wmAS1cNK8/JW7NSkiZYeNwNLp/0YcVFjRUsNLclqGo5iw/4/oqppP6wcG+2lgXCb7OSYiWq8NyFqjK7tsJ4woonmjpPNxWLjvItDVZ+KA2FTUsIl5Ti2aBapNSo6FTPGfB3pCTPVmORQgf1hXDJ0X/Hb2CK2GDuNlZr04py4wEYRYU7BvLHXIGfstSLBRibBXDhtiOaCo9Oqugia2mqcwzOCEEs0okNHSeUOdQdmJ5rbTuBI1efIPfZP1DaXfhmiRKJ5M/jFDosITUFGQg4WTv4eosKStRMjG6cd0fqLprZq1J4sQtaos7SUgeNw+Xrklb6Hkvo8IZUfc0AdZkxJXYrsjMuQJup9IDFqesMZTzR2DOeXf4jNR16GVbzYjITZalLIQLo7TjQcwUd7HkGdtVwM/xYKti5QxnoWOAfAkyPHYumsu5EQOUENxZ1uOCOJxiiINmsDyup2Ydvhl8ShOAaj1hFMmynUFIOlOXchI34uwkKiJVUz9noA4+Q43nq48kN8fujv4iW2qfAdsor2ljeCodMgpIrFrMwrMW/8N0esoe8Pzjii0WbaU/QGDpa/L9/rVT+cMpfkY9BKgn8YATFGiJYz7ipFuFCx83yBareo6gvkFr2N6pYjzggRuQkNfs8hLxciQ5ORETcPc8Zep3a4O91xRhJty6FnkFe2RiSOWN7yzzVof4oHKMccrA8NjVX20uys68Vbne08p4F7ARwqWy+qd61Ix1y5ldXZvUJueRr6JJ3DAbMhHJNHX4hJaUuRHp8z4r1Jf3FGqk4uqV7TXIAPGHpjbeu+RII7yEEhibEzCnPHXIEFk76nktutJ/HetgdQ2XQEdkObSnONUiiSyT8euQqXaSGmaCzLuQ+ZQljLaWiH9YQz2hmgrbb9yAvYW/I22h1NkuKjKIRoVK/sPE0MHyuqbhIOVXwqV7c7JZgGT6I5YYTFGI2ctMuwMNtJ0jMRZzTRXCip3YXc4++huHqTGh5SoqgnkEhkXg+gGg63RGFc8hKxw65GAvf/7PXGpy+CRNNgtbWioGoj9pe8j1LxRrkOmi8B1yPkZw6bOBKJ8zFrzAqkJ87t06zz0xVBormBHmJ7RwPySz/EZ4eflhQ/pJsbKMWiQ9OwKPs2pCXMVFPugnAiSDQfoLH//vYHUN54BA7N2PcFctGIKMzJugyzxn5DN1Pc9IQg0XoAuy+OlH+MvJLVqKjfC1unM5y8K25MbDUuvJeZMAs5WdeJFOv/TPfTHUGi+QF2yJbV7FErcleLhOvoaEREeCJSoicjOXYiUuNyeuzQDSJItD6BM6qs9jZlixmNJjHyQ+Wv/iaC6BFBogUxJOihSzyIIAKHINGCGAIA/wcuMBqm3YvytgAAAABJRU5ErkJggg==;" vertex="1" parent="1">
          <mxGeometry x="378.93" y="181" width="82.13" height="80" as="geometry" />
        </mxCell>
        <mxCell id="jOGzr96rdC9lRrHa4xcc-28" style="edgeStyle=orthogonalEdgeStyle;rounded=0;orthogonalLoop=1;jettySize=auto;html=1;exitX=1;exitY=0.5;exitDx=0;exitDy=0;entryX=0;entryY=0.5;entryDx=0;entryDy=0;" edge="1" parent="1" source="jOGzr96rdC9lRrHa4xcc-18" target="jOGzr96rdC9lRrHa4xcc-23">
          <mxGeometry relative="1" as="geometry" />
        </mxCell>
        <mxCell id="jOGzr96rdC9lRrHa4xcc-18" value="" style="shape=image;verticalLabelPosition=bottom;labelBackgroundColor=default;verticalAlign=top;aspect=fixed;imageAspect=0;image=data:image/png,iVBORw0KGgoAAAANSUhEUgAAAMQAAADDCAYAAADdo77TAAAAAXNSR0IArs4c6QAAAARnQU1BAACxjwv8YQUAAAAJcEhZcwAADsMAAA7DAcdvqGQAAC/tSURBVHhe7d15rH3X+AbwY57noaUtbYRSQ6otNRNBhZgSkRhL+YeYhdIYfuYQQ6LE9I8UMST8Y4iIEP8Q89AiVAkdqJrn+f7uZ9dzvXbPufd77zn7nH3uXU+ysue913rf53nftdbe597LTSaTjc3S0NCwicv/Z9nQ0LCJJoiGhoImiIaGgiaIhoaCJoiGhoImiIaGgiaIhoaCJoiGhoImiIaGgiaIhoaCJoiGhoImiIaGgiaIhoaC9rXrHLjc5S432diYbb5DOb4dtru2j9xrN9c0XBZNEAvA5S9/+ckVrnCFbv1f//rX5N///ne3bj/0SRry5rxZyPUV7pX7XelKV+rW3Sf73dt1lv/85z+78xoOHU0QcwDxppEaGZWdCB9hzEKIPwuu3+mcht2hCWIOXPGKV+wIKStUIOq06A6J5FnfDhGM5TTx1OfWbLTTfRtmowliASCMdJl0U/oCCfpCOdQuU0jeJ3qeOQ2e1bpMu0cTxBxAumnR+MpXvnJH1r/+9a/dkmD09yOcEN2+7fCPf/yjuz/hEBmCR3D2XfWqV+22//a3v/3niv/Cc2YJs2E2miDmwDWvec0tkiIugl/talebXOMa1+jISgDIHyEoteuzmwzh3BREt+93v/tdt/73v/+9KwQUETjeBLF7NEHMAcQngGtf+9qdOK5ylatsdVWQMQKo3ST7Q2xC2Q7uk+sV61VQSJ997itT/OlPf+oKgfz2t7/9z5kNh4omiP8g5ERC6Hc5bCP/ta51ra7IAASAlLVASPuXv/ylu4fIjaAIq9gmCMvt4HnJMLKPrljtehFi/9mWeb4um+f98Y9/7ERi3XMdd191CrIPnJP7HTTsa0HEwbOciwScn3UIoRCPOJA+IpARkDLROl0UxAr5lGQIRNwOeeYs7ETKiEOd0lW7+tWvvtVdc72ijer15z//efKHP/yhq5f6QhU99O0wDdkf2+0naNnBDAWbQHZkrsQTee1HKhHYekiGCM4X+REMuZCCMJIFatR3fsiT9bq9U4aIoIO+QOq9nKvuKfbd6EY36upPLETjekIgDPX/zW9+syXmSm73UpItDxIOtCAq6oA4XSLjgpoBdDuQyToyI9U0hKg1SteyVyQzpcwSVI4TRtqlLckgRKJuBEHcv//977eyRj9jHDTse0FUAkGfmIhBABkYI499gChIgiwhzKF0E/K8VXUpkln6UV/b0v0jeEsCIKwIXpvNXuXaney337CvBVGdCNW5ynWuc50tMSAI0sgG6Wdb6jbY1yd3SAd9guS5Wc7CToIR3SH37i/TDUJqpdYBCNsz+sLI2OO6173uViYkFvWVAc1OEYele9YCaVf/efsB+14Q1WnIgAC6Dcikj40czhEhkSEDT8u9wnPrsxdJnNwbpglKN0k7nZMxQH1+vy66T4KC4EAY7ALu/bOf/awLBukm1ufV9u0n7GtBILvIGUfqQ1/vetfrCudnRkgX4de//nXn+BDONelPZx8gQYiAeHX7UBCyQu4/NOozU1+FfbRTsc4mskYypmtkSmMNRdYA9yO8nSYF1hH7RhCcl5LtREjOJoIb3vCGXTQEziQC2UDXIOTkaATZDcnXGcitVGEQBDtd//rX3xpPEcavfvWrzlaZTGCrKupkJ/dZltgXjbUWRN8hiVz2cQpnJiuIfJzNmTICB2cwqVsQuJ4YXH9QIHjUAMAGma5lP90pGSPZlDAy5ezaiKDeI/vWDWstiFlGJwTHjBF0A0Q7TpbyOVP6J4RpcB3HHpQMEULPCgKEUbOrYEMUZqPY0nUJQBV9ka0L1r7LhOiKaM8BHCHVc6IlZyE/B0r3xgmc57wsFXD9OjpxryCEoNqBXWJL685LppUtDLwdI4jYNZk69+wLZF2w9oKIIzmCozhMNNMP1hXisF/+8pddVoiTnK/7pAuQ6x2rTnS/dXXqoUK7+wGgElp2YMOcI/Mm0Mi8zpV12VbW8JIvQnIsIlknrLUgCCD9fw46/PDDO2fJGMh+wQUXdE4yXsgA+1DhHuvo0N1gL20USPIpC3vzAfEQxc9//vOt6WrHZ3VLx4y1FoQIBox/gxvcYEsMSeNSOiEk0jsG+53ohwr2ENFTgpo1QbRPNqkZgL1lZNnYuWxu5i6ZYh2nZddaEJwihR922GGdYxKpLr744k4UUrx9VQBxdhAiZL/zKzkOImKLafaox+yXmROMZAt2v+iiizo/rCNGLQgZoH5Ah+Aht9R94xvfeGugp+skZf/iF79Yy1S9zpCh+SJdKOMJgrjkkkv+551FFVft7o4J+hD/d+nq+BDyywTp74pM+rDS9JFHHtkdM0YwcE66zjUHPdIPjdhYtzTFtkCWSQ3bmQEUxFzTz9pjwqgFAYQgM6Q/6mWRWSRpWro2y6GLRBA1mySlNwyHamP+yZQ2H/ENATiHXyIWmcFyrL4ZtSAYU2FMYEypmRhEobxkM5iLYHJNE8PwYOPYG4ghxLf0Io+fHJe5ZYVk+bH6Z9RjCJkhYrB+05vetBtAMyYRGLw5npQsHYP1sRp8v6EvCOsyA38dccQRXdfJPlncGC+BK13gsWHUGSKkFmUIwaCNsWWGCy+8sBs8xwkRQa5pY4jhERv37Y7oApWsIKvLFLpRYFyRLDJGjFoQjMuQvklSbOsimUkykM45iVAVcVbDcOjbmB/sA/tlA+S330wUXzqerD5G/PdjlhEi0cXUKoP6wtKPVsx1yxRQI1MVhszRMCyqjftiAP6Lzyz5MJ99ODZGrDxDVBJbR/S8QTWbdNRRR3WiMKd9/vnndzMZDF/7n86NExpWh74f6gwhv1knCF1g+8wQ2ue8iKsKaxUYTZeJUQDRGcnvF8wmMY7ukXcMDFjHDA3jBl/yE59ZRiCKbKHrZExBHHxqf86tgXKZGE2XKYIAL94MoM1QGJhJucYO6Xeu0mANu0MIzneCmpkmkyG+LuDjDLZXnRmC0WQIRmMQYtBVMogWPbxwU/pdpJYlxg9Bjp8SvPhQ18l+QvAbC4LhZ8ciHlhVwFupJDU6mYExDLRMr+pnMhAh+C4mRqpZpIlh/KgRP77jN9neewk+zseZfI8DsMpMsfIcpfEKg0mjDGRbejWQrt8m1ajRBDF+JOorNfj5lIN/FX7lc93j+NhyVf5daZdJ4zU8g2ifZZiBMK0qguRdQ9BEsF6Y5S/78y7CrKJuMg4QkH2Wq8LKM4ToISIQRP0Ru1LBiE0Q6wdBT0mmyD6+9G6Cn4mD7/UQVpkdYOmCYAypU9FwkcH0qiI6eNfgTXTSa8N6ox/I6jYu6DbpDdiHA7pPfB8hKcvESjKESJG06K1lMoOIYcxQo0nD/oVsEL/7WBMIAh+qiJYpiqUKQsNqhNB/NKNkQGVu2qyScYPjTRAHA3xNEPl1HUHkhWx4gje2lyGMQQVRG2C93yCNN3bQbTKQNh3XhHBwUAfPfG88gfjGEgIlviSA9rnT314UliqIQB8xL+BkCZ9kMEbE0MYPBwfV1xEFTniLnR8XTesxrKUgkvKCbHtLmb5iukpEEfSva9jfiCh0l02oGEfqRus9+OYJlsWJpQuCsgkiKdFgKp9mSJfQuk0HB/we3/M7PsgSuKIH4fOOZIOaFYYSyKCCmAaN8ppeQ80/iwr54wBSZcPBQe0uWVdwASfyAaCudc7bF4JIykvU992KrpLG+SloxKCB+ZoVki2WhWrs1PlQYNpYgXy5Ccuu/zQgUoJMbV+tm7bmxzr2m+CAZfyAp5I6mQJwQqYQMIlCXdTNcQKpbVk0BveaLxkDxkYagyX7TbdFEDBkQ6ehOh1x1E8dqjC3AyeJZorr8htiGEO2QyCkUzc2nyZSfqhdVCSsy2Wh+h4ncCP198cl1FH9fS07pG0HF0Q1toE0QSCefqIS8mnssgVRiZ/oxAHW1WWnom3aIorFSQhmvQp9lUBsbcofZGDn1DXtcI591iOa6rdloD6bX8IP+zIBk+M1sywagwoiDUgaNmvA8BxgIF0JGYIFtocGw6qjQgTqJcLHOY5vVwKOSybUPvdK21eJ2N14LdCNSl21M4Eg9Y5oloHqY8+t27jhx0Tq4pgswT/q79hQXTo1GExuKs/ISdfHHntstzTFet5553UNDBijkowz6/GhgAie61knnHDC5AEPeEC3X0TdaSyhzpz24Q9/eCsC+2GTqUMRTdpfJfS3TV8+7nGP2wo29vEJUkUEunpE8/GPf3xy7rnndj5ijxqwhkDfx30OAM4Yo6n/d77zne546j5U/dRg0LIpiI2b3OQmGyeddNLG8ccfv3HUUUdtbBp9Y1Mw3XLTEJe5xv7+viHLpoE3zjjjjI3Nrs7GJkk2NjPYxqYTti1w0UUXbZx55pkbm0Tb2HRwd69NB05t0yrK3e52t42LL754Y1OwG5sC7dqnwKYQuqX2bvbNN0499dSNzS5tZ4u0ZcgyzcfsFm5Y3wwwGyeffPLGcccdt3H00Udf5vxFl6Xkxs0Gdv3ATRJtzSBs+qHbtpwGx4ZGukcg2qinfZb5wGy7IrptCn3yxCc+cXLKKadsdU18i+P4GKCO+UsXoJ0yl26epeygC6XdBqy2nVMj91CY5WO2c4xv9CZMWuhtGKvNmhxYFAYVhIpLixoj7UnPBMERlVghDwMM2dg+EMGzPVc9dXt8jpzZIvu3K2mPOr/97W+fHHPMMV0X5Sc/+UnX5lUDebRRm/L3rNRV3RBO90n9TX9rsza5Rht0SZYFdfJsqJxQRzbWBSUG67qk9vPXEBhcECKNP1uvwdZ//OMfzzR2jLAKqBsjy2TEEKFsV5CHkxDL+5U3vvGN3bjDfewH5HMuINoyBa9N6mGpDtpFHLYJgUAIhj9kDDOAsoNMsUw/eBZ7T4Nj6iZLsF/e+cSmi8ag3tHIEAQYGiFWRfpFA5mIAbEQ7N73vvfkta99bUc4zgvYAdmcp+2ENJRDKxJg1Ge7ki4S8YScswi6bKQNbKd+AgxODVW/wQWRz7s1KvPK1pdBiKGRbpHIm0xw2mmnTZ70pCdtzTBlpirttQzphoZnIBHCE+92xTnJasuq305IplWf/L9A2UwWX0tBIH8EwehUjhAas58EkSworcPrX//6yd3vfvdunQ2cJztayhzItwzE1ojUJ39dZj2CGItvUn9FMFVHgjCeGAqDCkLXIDMvZgs4ZihlrwohEVIhO9H7StN44vjjj+8yRWzgXI4Fs1hDY5ogqghSdPfsF4lz3RhEkfoEgop66aamG75oDCqIfKahYSFCCLTfhBGyEYW38He+850nL37xizvnCQZ1MC1T1N9/DAXkYftpIkh9iSHr8c1Y0OcKDtmHU/Xt+yIxqCCQIRGqjh9gvwgi7SB+b61Bu3WfHvGIR0ye9axndd1G7SYEzjTm6Ee/IaBuCBRBhPz9kgxRCTg2/xC3X9Spq/Whuk2Dd5k4nqEZfqg0tyqE5Hlx5E/3Ez5BZCbkFa94RZctQEAQHMz5L8MWnh/7e25Kf7vuB9eMQRCIz65gqY6Eq26Zfl005hJEugEZOGYdIURM3QeV92IFGHzdRIG8oB2iE6T7p6397lAil/PZRL/3gx/84OT2t79950xvjWUIiM0q2G5R3QHEdr/8tiCZQJsEKOuJuPbZVifbYwAbhjPWwXsU+9iQKNQ3BdR9npeKcwmCwbNUVMZShTkCrNfz0rB1QBVw2gZIb/CMZPZrK2EgGbiOU5BNUHDsPe95T/dPCEPG2ImYOFdxLwJa5PjCM5RkgVrUI8Kwnfapx5iAM5VD2gOysLpmG+q5e8HcXaYoU0VCHsZFGpWNscE5EcTYjD4N6lijTUikTb5w1V7GV0R1S+ewiXOQ3CyT751ufetbT17+8pd3gmCbZBXX5J410+huLgLu796ekQwRIdj2uYpiv3PH5J/UofKGfdXVsfobCcj5VSC7xdyCqBWq3SGRUQVj7IDRYQwG3wlpmzZASIrk73znOycf/ehHuyiV9llHNLCsTnSvBz3oQZOnP/3p3ZiD0wgn3aecW4PKIhBBIH+EYDvLWvqRdtUIR8IZUE/+cCxdpmARnJpbEBXVqcgBfUGAio/B4DshBMkyXRsR3t+gffaznz05++yzO6H4+6Sg+4R8yRj5apY9ZApZ4qSTTtpqvwwUoTmfcJR5olyF5ySqRhApnpdjlradPxbfqEef5BEEsNs844VpmFsQ1XicqAFIYT8D6yIkQgbrJggTBKA99olKMiBRnH766d2XpD7ui6MyBki057R8ymEK9g1veEP30s69ci7BsAmi1kw7D9g5pE+GqMKwnuIc9RmTX9SlCgKH1BOntMsxtg2f7IN6zW4xtyAiAmBYFSQIBo+DLWtqWxekOxMxaytigfb43cNnPvOZyZlnnrn1FpUo8hY65HJMxvA9Dqfd4x73mLzgBS+Y3OxmN+uOu2e1j/V5nBqEJFUEEYKl56bYXgShhgS7VE6pL77FT6Du83BtLkF4uIolzYPKSGVJwZZQM8Q6gQgSPRk/4wTFiyLi9+2SMYV2O+48pIsg7NN+H6XFHg95yEMmD3/4w7t94JqA3XLtvIgPppW0Q9G+KogxiiIcUnd1VfCtZlT1nodrcwvCwxkzDlRZBKBag8fsd04qat88Kl4m1FO9LdWbExKRtJ8ztO2Vr3zl5POf/3xHrhxznfOtW7qebcD93vSmN01OPPHETlR5twHJQouA5+iu8YvspR75lFpRN3WWxUB7UtdVIzaH8Azswy37jOfUv9pZW8O13WIuQUwzmoqoGKjcLIzB4PNCO5GLQDjrKU95SpcZfMKR9unvKuzCwRxp27iEfc4666zu/US1B1IuahzhGeqGJP2SrpI623auesR/q8Z2HAm31HUa+ffKr7kEMQ0qlwpyRK1Y1sdi8HmBROkGEQYh6Ar5y9UZLBs7yACg/dYzSEd6/1dPd8s+diEu90s0nBfu0x9DpBCErKHYrs8ci49Sjz6PUtfKt0Vg4RlCFFRBx2o/uo9Z+9cNHCNacZzI/7nPfW7y6le/ukvlmXUC5NPmGix0ZewzDWtgbhyBmObXF2Uf9yGwCCBi6Be+SoYYC2bVxf5wiz1xro+9tmNuadVIYl3USwVj5KBWcq8VHhO0U2bQbmMDJDfD9JKXvGTy6U9/uhtkaydhJJKxB+G41tStddc89rGPnTzmMY/pMoh9BDUv1MvzkyEsU2yrb91nO34Zg39qHeo6G6ovsCPO9Xm4Vywu12xCRVQwUVBkmmbYeSo8JtS2IbHuk6jvA77nPOc5k29/+9ud44jFkiPZpr6IIwbHZIe3vOUt3SDbfRf1PZNnzMoQnpv9qd80f60S07iijtoEyRCL4tTCBKGSVRCpdPbvR2hrhWlYL95khO9973uT173udZNzzjmnO8YOyAfJFOyjEIN7GUf4czb+1Eqdht0rPNNzQvx+yfghgpAhgrH6TL0qt6ogbM+LhWYIULEYkzP2M5DIIJgjpG2E9qm1bGEw/YEPfGDyiU98onshZzvdKsc50rV1Nom9/A3T9773vQtxLnieEvHV9ZoxcgyqD8eKcGvRdZ1bEIyYCoUYDGwfx2c/gwcx/H6AtoL2pb2cpcuD9K961asmn/3sZ7uulLn+fpCIXbJft+tWt7rV5DWveU2XbcBYg6Agtq5CmgXPl2m841AfzzDtm8xA0DnPOclKtvv1XBUqV9gqgYKt2YL92SL77ZuHXwvPEA3/RUj75Cc/efLTn/50a8AskxAI0lVS2uZYn3T4+em97nWvzsEG7s6rU7Z5Obgd3Ms9EWlaQaZkCdsRQUR3ENEEMSAQDYEt/QVuf726fudEBIlsgJSZtTr66KO7L2Pz81P3sF+WEcnzZnk7uLdoGfIrhJX1jB8iikTWJoiGQaCbg+Bmlb75zW92v6828PYzSN0gIAqEBUS3HYL6ItYnIaZgHdPtca/+YH4WEJsoqgiUbNf9NUMcZDRBDIh0gYhCZvjYxz7WzSIRSsYb6f8qyO48SwSVBe5///tPzjjjjO48InJPgkl/fztEEDVD1JLsQRhNEJeiCWJAIL2+PmIaMyDgW9/61u6TcV0pJER05HasEtJxmcBg16fij3zkIzviKnmvsRM81z2TCZJ5UrI/922CaIIYFAiJ7In+SO97p6c97WndINv+CttI6TzXusb1hOPTDoNt7ygITddqJ7ife4X4lfzWCSQzTradC56tHEQ0QQwIhNTvNzuEfCEcQj70oQ/9H8LKBkpmm0CXybW6XMYRH/nIR7pp07yI2glVYETVL1UkzslzmyDmAOcwPDAiQ+dlVaYI7c8UJLjmIKE/I+Qnp9/61rcmL3rRi7ptER8xQbSWFQgoU6s+BdHluu1tb9u9tLPfOSFt3ldAZrEcIy7n6nbZTiZIiViUTAPzk/MijlWjckXd0mbcwjHtw7nst28efi08Q6hQBHIoaf0g493vfvfkQx/6UDdYRvBkCgLRXWK/iAnR2fWe97zn5PnPf35HWl/FIoa3495wuxaxESd+mJUdlAjDc20TgWuQKwQbK8KttHNRWBhjGTAOYFjbUfQiK7yfgLxmkL70pS91DiYK9kNyJGU3XaZEa8T3l8Wf8YxndL+7cH2y8EUXXdSJqCL+cC/E7w+qbaek2wRjFoQ2VW6xjXpn/7xYaAiPA+LAmuIqnNdwaVfH/6N75jOf2b2bQNL8xFQGCEFFb4R1TMYgCi/t7nSnO3XXpZvkemDz2J0vXNsXgxKhZN258c1YfDStHtqGW1AFsQjMLYhaEeucF0eKeLXbVMUxTSgHDbpGSP6Vr3yl+yvhbAd5bxGnZ79soJtEFHe84x27f9/lL3/IFMYZOc9S94mN+STEr6KwHjI5XwmxUlaNWXxJNoXUv9Z3nrrPJYhppFZBhnasDvz6mLX/IAEpwYu6973vfZP3v//9HdmNKdiR4zNLxZZxdAbbd7nLXbpPzMF5BOSY8yKI7TIEIkUs1p07JmzHnXArou5jr/xaaJcJVDCGjVOCrI8h+owFCGwqNT8q+uIXv9iRF0FzHNhU5mC7ZA7dKh8OPuEJT+hITUDpcjlPcV3NEFUYrlfsc04yBD/tlVCLRrjS5xFuQeXbIrDwDKFyaUTtLvUxFoOvEuyDmAhuwCzKI7jfT+RFnkhoqXgXwW4ZX+guEdNLX/rSycknn9zdi2hkFOshinMJrJaIRLFuXyXWGPyzXR3CrYi+j73Wfy5BqAhnqpyKWYpo5r0d099NxSg6FbePk9YBiJL2pb2WiVDzwH2QO2RkO4Nsf87GdojrWZ6PvCALxK7OucUtbtH95Q4CAd2uZBFga/uUZAL3N4ZxPSESkn3aaqmsGuqZdqpPbG4fbtmHa+xWORgf7QVzd5k8WEUCBtYQFUvlYAwGHhv606QJEgbZpmNB5gg4vtoXDL7tM2Plf1AAm2fcAYTkGoQiCFmFOHIvhX/iy+rPMSEc0r7wS921I1D3ebg2tyBUqBowKVhlKZkT1ykjLBNxZKKgJRL7p41e2hlk+3bJ1GqcjNTIDK5P/993Tg9+8IMnz3ve87r9on9s7nzn9cljPRlDiSDGCnWsnMIx9U/mBPVPu/eCuQURA0YAtlXS0j5Thf0U5lhIcJARx8kUbGTbks10Bfxr3y9/+cvdgBvBFXZLZnF+7A6yif98+rCHPazzAZs7jkBQiZLnOWesQgifAvWMfbSrcs259sE8bZlbENOgkiIS6O8mdQdpQMOlEKnjfKQHzj/33HO7GSTjDF2gRH0E93/7XMO+ttncoNuUrR8VGWQ7zvZ5mw2xu/OnwfGUVUMd+uTWnsykJTsuEgsTRK04p+mn2tcXxCJUvF8g2gFB1Ohtm32I4rzzzps897nP7UjvDxAQByB5Ij+b6hZZuo/ukzfZRx55ZEcavgjB3RPq84KcMxZBhCPhDEQQjmlXbcciODW3IDLyr5VhdG9P7dOAOL4aehGVX3dwZmzDHukKhQCO+221X9mdddZZnU2JAPnzuYZ94OWe2SL2dvyUU07pZqt89Oc+sXsdQ/ShDrWsGqlD5Q17aaNj2h6BQ84PJ/eCuQXBeaksqIyKJZLZjoP75x50sJOuUNZD1jiZ43/4wx925Pfvu7761a92+9IdBdOPthHFPQww/esu44kXvvCF3fdOfFC7TbAdadxHGQtwpnIodccx9axtqefuBXMLIoMaEIlSpDPOUVmDQlBZTrdvXYSBaAgaQ6u/pTYuAub/g9wz/WJLzxIJEfzUU0+dXHjhhVt9aPVSklnUMeQwnpBNZJc73OEOXfaAvBtaVP2XgXAG/LV09We3dJlSABfnGVfMLYjtkL5ruk2ptOWYItBYgQQIHzLAox/96C7asy3kGNHoNtk2+NZtQhrCeMc73tG9tBOYXEdQ/XcgYwdRELj2CRI1Sy4SgwrC1CHiM74BYRPB7pAAknGG9xFf+MIXuv88FGKke1W7RPYlCFl6k/3mN7+5ux6p+GEoQi0SgimkncStTfYT/BAYVBDSdNKdxkAamcjWMBuZRdL1zGBalPf3nT71qU91x9gXEEWfWgaQKeyXCXwXJTA98IEPnJx22mndvdYlO/S5gkPEoW2Znl40BhWEinOiiJTBY6BhDdtDdAf2Q242u+SSS7o+sgGzbEEohCCbIE6yijGHv/Dhkw73IZT8j2zr69RlIgyCJ3QQaNeyywSiEwdyCoVrnNK6TzuD4zO9isQGxKD78IMf/KD7T0UyALEIPEjjmLGDLpR9iaiWij++rAu1Dl0mHAlXvHAkfm0h9nQVF41BBaEx/nQjQXCWgR2niGQa1rAz2BAQgB3NssgIuk6f/OQnJ29729u6v+LBvgQkQ+R9BRL96Ec/2upu+UbqNre5TfeTVT9DHTsIAV8yfoi4CSJ2WTQGF0RN5xykUUM1Zr9BN1O0T/dGv9knG/YbILPly172su7fd4FsnHN1lzKeIBTX8IX997nPfSaPetSjuvPGjggiXW6C0I61FES6RRzDsVJ+lD4NGjnr2FDwzNp9s63kDbC6p04iE3LBMiYFRHXod2+yXx0Q3l8C/PrXv97Z9+KLL+66S4gja6i/DAEhl4H14x//+Ml973vfrbbl3UZmq5bpB8+aRXBZ8Zhjjunawk8XXHDBVtdwCAzaak7RWANBzhPBpHzrMUIKaPBQDZ0G45rqeJmMA+yTzUDEzUDVPqSzre++aqiraEkU/varrhPyq5t6siUfCEYyCiFkoE7Y/kS/P1bA/u4jCstCvoFaph88K0GpckIxhuIDnCFuttemtRQEqLgIRwwaw1EcyADbRYZK1KHAsCF7ZjCQKRFZHRHIEpkiZKQRtVYNthPRBRz1Pv300zvyyCBEoG3qDCFR/KEN/lORn6xm4O46ghKFl4FZPtaucMMsmTbZNh4dSggBNg423YNMopilxvlTjBpG6d///vf/c9alcDxRAqRFThwS9Znq5a9Y3PWud+2MjkgRcEhkn/boXrzrXe/qBqmrBKIk6hM0Qvvm6alPfepWBgu5tIUI1F972FbRLn/YwMu+CMiS0Jw/JPo+nsYBM2Laps44U32hnovGoIIQbRJZVf7YY4/d6nL4rDn9dHAOY2hwtodo8HbgEN2GjBOAUyB1UUdtIOoxANmB3TJ2MPN0v/vdr8scyKPu2qF9ROMc5xoT8YFf5Z111lndP4kEXcPMWA2J6mPtUL/6TNnh5je/ebdfffw+JCJyfriySMin/3fp6uKhcaKXBmiIfirj2xZlOSON0ujaSNs1WgwJjgHPUzfPhjhMnezTBuv2EY5ou2qolzqFxNa/+93vdtnYp9+27VfXkEnkt59YTL8ae4jEukq6Jc6pwWkoVB8nIGYbb9SfnQVVGY+YU6ect2gMKgjghKieAzRQ40VZAkkK18BqoLo+FNQtERaqM1KnCvtCwDGIQZRXDzN3bBxhI4/ZJmME52gn24Pz2N229rkG0Vzj/9n5q+REMVQEruj7O89jf2067LDDOnEStPbkuLoNxY3BBaERUbmGiE5eKun/aizHOAbLFoS6KZ6TZ6ljshogjD5s6pjMoH6rhjqqK5In6qsrm+ouqauMzN5EoA3a6bzYV7dJm3VPtMv1ROF4AtlQmOVv9fYxKFHomiomCYJwZwgMLghgaMQK+YwtNBh0mziLU2o2iaOXDfWrxrYdMcAYMkMFm8ZO6ppMoJ7f+MY3Jscdd1xHMJlCpCUc5+Vchd21MV1aXxS4FnTF3Mv5ZqMiFP60b1FA8vDDM4844ojuWYTtZaL9yQxDiQEGFYQGBYkACrIruk0ax0mMnOOwCjHsN7ClfwXsf0ogk3EbWycrI7UlIlo6xi/A/sYU7uE6y/jJdYv2T+5HGDJaxkSm63XpoGaRoTCoIKLoPuzjBAO6RBzGto+xZ13XsHsgvxm9E044oSOWTJGMx96yAlvLAtbZ3zmClc9E8iFdpnhhkdm7Bk3PxgmCsO75ukue67wqiHrdIjF4hqgNSCMYU2ZgeIWBE7mgdp0a9g5dJcTys1Nvqk888cTOzsitq8rGyBYf8UnszleiNFKK0s6JEBbpmxr8dMl0lWQkQtBVimCdBzl3qKC5lDEEMHBtFKOKPIygiFAGTo7FAEM0+CCB/RCeLf3NWAPnW97ylt0LReTnE3bni/jEtmusG+c5x38nQkyCcC/HFu0f9zOrZAzj+WaVZKc8Qz2WwYelCqIuNY5TzGpIzwwiQ4hgji3LAPsZAg6wo6xw9tlnT4466qjue7Ia7TOmcH72gf3Odez888/v/MVPzluEf3IPPQLi012yLpsRROoRLIMPSxME1AZVYTCCrpNlnNMEMT/YM3ZGZtvnnHNO96s5+9NFlRWyjuzOBWMOQnKdAa6IjaSLyg7uAwIi4eni6SWYWfI8UM9lcmGpggjiJEvkZxhzzhnwVec0zIfY0FQ3eyO3mafb3e52nZ1tVxEkY9h2jWjtHGS1TiQh8rwkzX2MVXSVjHeIwXPc2/YyxQArEUQFB4hQjK77ZEBlO985MdqyjbJfwJYhOvuyq7GAdYNln34bTxCELpTBs3VZwXquRUz7nGOwK3rzS3ySABfYrscr3CtC8CxCMJB2b3XRVVJPcP2y/b5SQcRwoOGMwomQNB6jOLdv+IbtEUIDIgISEkXm9v2VP5nA5xrJFrotERM/WNqvyOCuVyB+2Ym4CWzukXNNphg3yD6E5vMR993pXkNi5YLgBFmCIRgtWYIDGakOrOyLsZo4dge2raIweaF7cvjhh3ddFtuIHxE43zoBKOwuYPGXQCWDV+KG8BX2OSd+tp5rdI+J0cyX+sgMBGFdPS1XgZULAhI1kJ/hCIIw7OcMjgHnx6AxdsNsIFZsFoKxbwhHBIhthkfJoJnt032yHaFEVPal+5X7eo7j0PeRY0qCm4xgEK27ZJ/sRAzpKq0SKxUExHgMxriMzOiiFsNxhD6r83Juw6Ghb7O6bcnmyGjd90syQLpIlskU8Uu6sK5zbsYZuWcEkHMiFsg63xKC7GA94waBzzX1+lVg5YII9GMTeRjPtuk4YCCGt5+hVmWsdYWsACFbyBkCEwX4/QFiGnDr38sgbM0vxEAU/GAfQRiHxGdgv/tB7h04xqcyEfHJQjISMegaO66eySK2V4HRCALiqBg53Sf9Tcc4xbJv7IbtgVyicaJ9YD9iEwFS5p2DcxzjA74gAsuUBCf3tM4vuV/uH0J7JniOb5S8jSYMWd+nGZb1mv71y8altV0h0nCGBg5J1Mpvlg28RKxEOliVwdYJSAhsG3ID2yElshIDuxLE1772tW6JtOlKOR7C5372yQ55d+T6EL/CvhTXOl+GsO1dQ943OGaZ7DPtXsvCqDIEiBCJ/gykiFyMyYnSOIcwIgczYKJfRRPMfzPuNLCd47FdIj37sr/pUKSv3SRL+yyJwICcT/jCefwC7ukeznEu0fjTNjKEjJCPDVOHfj3j/1VgdIKo6Ec03SfGj2OAMx2vQoI4pWF7sBHbsSObARsr9vGBwuZZz7brLAmhZiBwX9smR0ztCmjOIQSDcQIaI0YtCGDEpGyDbF0nAkjkCvrkd04TxPZA+kTndHvYms3ZTmS3rKSPCJyXdeck01RhmCUkBrNKzjVY9+5DFhorRi2IRHlGz4wHJ+lCKXUWBJItoIlhZ7BXBGEd2BqpBRw2jj3ti1BcQyDOZXvXRlwJXvzkkwyZwX6zSZlehbFm8FELIpEHGL6KQraoA0PHmwh2h4iBTa3H3tbTpWFf2cO+RP8U+4gihR/ciwhkBgNo+/O7aNc77hmuHyNG32XiEMSPExg9Ecl8NuPGGXEwOKcJZGewE5LGVjVy12gO7IzUlsAftmWFiEGg0kVSzFgZMxBEjss6Ed8YMXpBVEfViMQRXu5wKCMTSBwE1ckNs8FG1U41qMTejsee7Ks4Zsnm1tnf9LggxR8yjKzg5VvGDOlWuWasGLUgkhkYkTMSvapTnMMRBnC2Ras4sWF7xL6gW1SDSM3KCjKzf7U90rvGMbNJvk+yzNRqFYNr40uozx4TRi2IvsEqyR3zmTLyc4hxhWlZGcM+KZqTpwmDExXnHmTEvrFHbJV1NkVgAkj3KeOJDJ4FIu8sZAb29JGeP19jWf3X98MYxQCmEC7LmDVBpgo5zkufvAU1z62IUMSRqJS+cJzhXI6qzgo5lLE6bdlgCxE99o5giMA0uK4rOxsvEIJ3RI7bt24Y/RhiOySFZ1AnU4hYCidxCgciNlGE+BwKVQgVuW7W8f2CdEF3Qro7bM12Bs6Cj4Gz8YL9xJAP9djaNQlE64S1FkR1JodFGJyh+5TPPTjG/popOFIEqxHvoKHfbrZgG/sVAQbY1nmOs6lvnRSQif31cN+dRTCwrtl1rbtMwIEQB9jmNKnc58z2G9gZb3CedG4fx2XJ0cDplSDrGOH2iogAYgd2YQP7dUtNXmQCQ/eJCGQGBZwnAAk0TRArAPL3DV8JThD53MO5Zj/iwHwLVeE61yNBFcZ+hvamzX2wB4ILMBkvsIvg4sM+4wXkX8exwiystSASwYIQOiKR8o0lDLjTfTJVKFPo6xKFblYVlesPihigbzNgp/wORTYwlWpbl4gYBBT2y8yTYMNm1Rfrase17zIxfO02cQInK4lcHGwQaHpQlAPOFeFEOk62nes4dlrE3I9gP22OINgyvz8RRIy1nMNOPs7zO4kqniD3gWnH1wVrL4jtIENwTsgtWxCGoitFPDIGZ5uiFfUIAxAj69XZ4LqUIRGhe85uBKq+Sv8a++rS/Z3j/taTDQhBdjBOYBMiUHQ5gS2qffYT9rUgOL6SliOlfo6XNXyAFtJxLufrTskYulIhTkW9n3uErNOiYkTknHrdvKjE3u29XZPr1Zs9ZANCyGA5983XqbqWAkcVWM7Zb9j3goA4LmRIEQllisycAOcTBgIQhm4XUvQJj+zTIjCBKdbTx7Y+bblThK1ZaRrSrkpM98797e+TVt1kTkvt1242kBGcKwtoNzvkZ6S1QL3/foOW7b9WFYQgfZLEmUiHGIoulT6zKIkwyRS6VERi+jYiqPfsC2NZUPfalu2gPbKBNiqym8kGdSf2dB21WUkA2Ml++w37XhCHCiJAGNEyEVPmQAyiIAbRU0Ee0V3ZjhwicSXQPMKpxEzJpMGs5yO9OsgCRGCpjdpKTOkKETsxaON+mkLdCw60IERNJK2EQhSkQaZ8ykwclpA+NZGYpXIt0aTU+/WJisQVOwkkggLLlLodODcCULSDsNWbEBwDAiBq9TdeImr7qhBcSzTp8h0k7GtBcCxU4lTYH5L2z3EtwSBUskaIlfs6jkgIRSSIJsoikv07jRH6AuljVr0DdVIH5FVPJWLOfvcgvAhZJoggIMenPWtW/bJ/J0GvI/a1IA4FnIs8wMHVyQgVsjindqlCPHA8JLFMSV884kBKS9vuSzzbIZHeMoRPFlAfmQtC5vpshVA9gwgU254bsScrODeo7T+IOPCCmAemKpE0A1XryR6IFaEB0ir2K9YJbjsgLLK6pxKiB8RWnyfqZ5xjnSAbdocmiDmQDBHSitz2pctift8x6yF1iA07ReOQvQpJIQT7RH3rMk+yj+OOgX0Nu0MTxBxA2GmkJgjRX5R2DkHYViIOoiCg7YDgEUO6Xop1+2Qk29OIP6tuDdujCWIOJIJDonJFfx8RpMBOhM393SelIvepqPuaIHaPJog5gYCJ+ICEIWIdQwSV2H2C95F7WlaiBzIFeH4Vj+fvdO+G6WiCmANIOot42x0LppG84lCun+f5DZdFE8QcEJWRrk+8ZIxEcOvTyH+oXaaK+jwZyHr/PnneTvdvuCyaIBaASvhpApmFaSKp2M199vL8hsuiCaKhoeCyObmh4QCjCaKhoaAJoqGhoAmioaGgCaKhoaAJoqGhoAmioaGgCaKhoaAJoqGhoAmioaGgCaKhoaAJoqFhC5PJ/wO8TeYDimlngQAAAABJRU5ErkJggg==;" vertex="1" parent="1">
          <mxGeometry x="230.52" y="391" width="60.31" height="60" as="geometry" />
        </mxCell>
        <mxCell id="jOGzr96rdC9lRrHa4xcc-19" value="Next.js v15.2.4" style="text;html=1;align=center;verticalAlign=middle;whiteSpace=wrap;rounded=0;" vertex="1" parent="1">
          <mxGeometry x="230.82999999999998" y="460" width="60" height="30" as="geometry" />
        </mxCell>
        <mxCell id="jOGzr96rdC9lRrHa4xcc-20" value="react V19.1.0" style="text;html=1;align=center;verticalAlign=middle;whiteSpace=wrap;rounded=0;" vertex="1" parent="1">
          <mxGeometry x="370" y="460" width="60" height="30" as="geometry" />
        </mxCell>
        <mxCell id="jOGzr96rdC9lRrHa4xcc-23" value="" style="shape=image;verticalLabelPosition=bottom;labelBackgroundColor=default;verticalAlign=top;aspect=fixed;imageAspect=0;image=data:image/png,iVBORw0KGgoAAAANSUhEUgAAAb8AAAHSCAYAAAB8ecX2AAAAAXNSR0IArs4c6QAAAARnQU1BAACxjwv8YQUAAAAJcEhZcwAADsMAAA7DAcdvqGQAAP+lSURBVHhe7P2HdxxJkuaLOgitNUAAhCJBrVksluju6u7pUTtqxV117+7ep/6R/T/eOfedc/edfbt7d2emZ2d6Zrq7WpUW1FoCBEFoDUKrZ7/PI5IgC0RGggDITMRX5YxEZmRmpIe7fWbmZuZZzrlVazFixIgRI8auwZ7gGCNGjBgxYuwaxOQXI0aMGDF2HWLyixEjRowYuw4x+cWIESNGjF2HmPxixIgRI8auQ0x+MWLEiBFj1yEmvxgxYsSIsesQk1+MGDFixNh1iMkvRowYMWLsOsTkFyNGjBgxdh1i8osRI0aMGLsOMfnFiBEjRoxdh5j8YsSIESPGrkNMfjFixIgRY9chJr8YMWLEiLHrEJNfjBgxYsTYdYjJL0aMGDFi7DrE5BcjRowYMXYdYvKLESNGjBi7DjH5xYgRI0aMXYeY/GLEiBEjxq5DTH4xYsSIEWPXISa/GDFixIix6xCTX4wYMWLE2HWIyS9GjBgxYuw6xOQXI0aMGDF2HWLyixEjRowYuw4x+cWIESNGjF2HmPxixIgRI8auQ0x+MWLEiBFj1yEmvxgxYsSIsesQk1+MGDFixNh1iMkvRowYMWLsOmRZW/UPY8TYHLKybBhZy8ra47L2WOPv8Pl1sLrqhxzH1dUVHvjHKzwfD8fdAD9m/FhRC8aNf379ceOHRjBWEmNmxY7Px1CMGFHBKItHTIxNY092tsvOzXM5ufkuv6jY5RUWudy8fLcnJ8dey3ku2ILzwdLiolteXHCLC/Nucd7awpxbnJu1NuNWlpeDs2JkMnLyC1xeQaHLtZZXUOQf23O0nJxcP2ashYDkGBvLy0s2fhbc0oKNHxsvczPP3Nz0tI2nebdsz62sxOMnRjTE5BfjtQDxifSKSlxpZY0rsVZQUioCzIEEjRz3rLEGwfzsjFuwNjc95WamJt3s1ISbmRxzMxNjIsUYmY/C0nJXWFbpisorXTHNHheWlbui0jKRIcpTto2dEBDfopHbkilM8xDezLTGy+TIoJscHrQx9cwt2HPx+IkRFTH5xUiKrD2ewHLzC0VshSagQi09v7DY5ReX6vni8goJsbyiIrME80SMvG+PvT/kPgbb4ry39CDB2WkTZM+eudnJcRHgkr22bIJuBQ0/sAwX7NwF0/Jpy7IaF72rK8ZbB+++3OOVosIiKUYJi86UoWyz6nJyc12BkV9RWYVIEMJjTBUUldpYKtG5XmlaQ35m0XHfsfoYO4yFWVOcpsZG3DNrKFJzz6ZEgOFY4XUUK94TI8bLiMkvRlJk55rQysuTVVfX3O7qWvbrMQ3Cg/hoefn5LrfACzgIU6RpIyyLfxKOz1Vp8SK3RWvzJsyszZvQwoWFK2vBCBDLcNo0e7T7CdPsx4f6TMMfcPOBkOP9Md4+7LF7n52T5wpMIarc2+gq6xtdSVUwVkwxgtwKikrsWGznlLi8wkKXa2MrN9+UJXsfYwd3OdoSJBoOG63vMW5Y41te1P3HEpyfwfU5qzExNz3ppsdGbbz0u4mhfjf4+KEb6n5oStW4/5AYMdYgJr8Y6wINHg0dgYRLM99aZUOzaz5y0jUfPekq65q8YJOb0wsyrDvkFVDsAY3naHo2QPAH56wuO7P0Vo0E/drfwiwWIes4UybABkyQDbiR3m439KTTDT997GZMy58eH5H1iDWgdaClJbeyhDUYD+WdBJaZLDQ11nizXU4+63hFrrii2tW37nf1bQeMBPfZWGlypdV1RoAVsvjyCrw1mJ2bozGT8AyE42YDhOcTILW8RFuR4jQ//Uxu0OGeLjfU0+me3Lriuq1NGhEu2fiQxyAYM/FYicGQi0dBjO8Azb3KyK6qsdmV1za4MmsV9Q2uaq+R3t4GV1hSrobbM8e0dtb4hJDl1o4qey58OgGEl50TBOqJvCCxZTsuLc6ryZVlDQvwmWn00+PWJjh6i1DP23MTg71ufLBPbtIYOwdclpBcSWXQ7HERa3elFfZ8pSurrjHCs+fs74KSMlOg8A4Q4FJoSpWRJVae3KQ2HBgPfGgUaRSMJ06FAFesce9pc0aAM5OMkxFTlrrdSE+3G+194kb7e9xY/9Ng/IzGYyVGYgzFiPECymrqXfupd1376XdNez9k7aCRYL3cmnnWsrJYx8O16dd4EgEtNprWG1DBq99BqIB7TZw3W8tatUcrXksPNPUVI0Yi/KYnJ4z4xt3YQK8bMUtwsPuR67l7zfXcviaijLFzqDBFqLb5gKtrPeBqW/bbscPGyF5XVlUrCy8nP8fl5IVRv8F4kdlm4yUxIuzo/09JEL0wnuwPn/JAugNW3ZKNmyU3O0lA1ZQbfPzIPb5xyXXdvGxk2OmGn3TGYyVGymMuRoaj3EivvK7RBNl+13z0tLVTsgAr9zbLXbVnD6kLSBvPU2tHjx6+7miyjxaPcgz+DoGAm5uZ0frgs9FhrQOODzx1/Z333YA1tPrFuTk3PzutdR4aGj4WJUQaY/PA7a0ITVlwxWqVRn7VTa3yDsi1ac1bf2bpFRZ796Q1wFhJjBce60n+eU2E4yQEfwduUaVDzC/IK9D36I7re3jH9T+6Z+Plno2bXnkP4vXA3QvGzVYMwRgZgv1n3nOH3v2BSK+6cZ8Jt2bvriosUS6fBE3go/rOwNmqkYQACx4+f2Afb9IzXN9bmPcRf6wPEuSAW5TIv6mRIQm7/s67EnREkBIdGLu5Xg8QW11bh6vd1y6Lj/XesupaBbPg4lQQi7XcvOdRnd/B2jGzVWMFrBkjehj87T0HK1KGZqfGtFb89MEd13v/tjUjwwe33EDXfX9yjF0HhslWDsMYaQgCFXyScaE79eM/cWf/4J+6tpPnTIMvc0WlpUY6WSZIECbBYHmTI8ZGbMIy1HHVyHBF6RFTI8NuzCzB4SddrkturksKdpibmjBrcUqWAGHv3kXGh8VDfz0wHiAv3/zaHG7vlmNnXNOhE4r2rW054IrKy430imzc5Af9aT3KcZ3HbwSMEQ4JC3TZ9T68Zxbgfff4+iX34NLnruvatxoT4biIsXtAIs1/9A9j7FaQaNx6/Kw7+sHvuQNn33eNB4+aVl8XJKmbBm8CDEEmOfYmhdkaINT8tdgjO7KGxLoj1UHyTSCTgkFwTk1Tix33yULJtt8yPzfnVsIom1Bix3gBuC2J7N3bftA1Hz3jOmxM7D9zwTUfO2Uk2OEq6ho0ZvKI1mR8wCx0ZdiddG1wfOPQQPEIb7nSKnJ9OoXWI/fsUWoN0aAxdg9i8ovhKmr3uqMf/sS9+yf/yjT7466ivlGpC3v2mIDA6kOIvQ2CbC1euKaA+EieLi5yJRVVrqphn2vYf9hVG/kRhFFUWq78wcmRIbMACXn3ATUxvouymr1GfIfcvqOnRXxHP/yxPAF79x+UK5yITh+xmWv9jknlFZAX78lbBLsmXZaNZazU4gqilItE3LjyKbZAigQEGGP3ICa/XYzSqlq5r3BndZx73wTcOyo1JcFGonFIfJvFGq07gfWee13YZ8ryMw0+dNkh1KgzSqUZBJ4qjKj+KGXYqoN1KoIysrQeuFvzvugfEs9JWahubHENB47YeDhtVt5pt+/wcbk7CWopNoUiXNPz0ZsB6W3LDd0Ar/l1pFagJGnE7Ml2OXl5Ij2qwVA3FJok3SZG5iMmv12MvWYZdZz70HWc/9A1HTxmwq9Z+XqEpCMcXosOREj+mMB6z20Vws/kooML50B0Km6uwpJSkX3NvnZH5RHy0iiqTDFkAiFIp9iNyDMFAJcwEb2tx866Qxd+4Paffte1HDlh1l+H3N8FxWWmUOS5PWusPHVx0M9bBsZH0NYdI7wWHDcL3oqek+Uo15evykQExBBBrPJpqhrzzJ8cI6MRk98uA9YRBIdV1HrinDv83g+1nkPYenFZuXd1mmhI2RBCqgRNAix8bi1efu3ltg3AgqWaSGFpmSc/rBizbgnVzzYLwCdGT3mLURYNLlQE5FZL9rcH/EbVaS0ulUu4uqlNilD7qfPu4DvfM0XoqKtpbnXldfUuv7BE675riW/LsPbe0wT/Bep/trjiqHux6k8j1YYTvvO+FGAfx71mbRilSIXWVW92ThYgylCMzEdMfrsMuDQJW2dNBzdn6/HTZg21qlIL2j3SBFETGSZ8kIvGqZ7YgiMShsobkjSB8Eo85jw7KfEezg+Oavan/tGD10T4GXx94riqqjQFJSVaHySHsay63hSCYrn0uEYKbGcqARLIVNvS7lqOntEYgPTaTpyVi5NgFikGNhZwC6p+OLfNv3Xz4L7S1txzjZvwsTX6m4LlSlFYomydr+FJ0/qsneNP5oDb8oWnUoPeyAOqwyzKJc4WW1PDA2607wkvxMhwxOS3y4CbB+JrOXbWtR475ZoOHZUbMCc7zwSPSZMUpZwED0IoaBAaH4IgW1kOoir1oUhQKreYBm9vMrlq53sri+YFmg6CntsqhJdgn853s85DCkdZTa2rMuLb235YliGnYAlSY5TdADI19J31T+7/oQsfKaCl/fR513L8jIgPaxAi2JNlxLdqN0H99poI7yv/8JixYse1yg9N5GdjhrW3cAcHKvuI/GBhO0nl0GzcMH5waevzrKUM3heMiRwjerwB7B5CMeyBzns6JUZmg2GzFcM7Rpqg3ATcsQ9/oujOhgOULdsvdyCyJXLw45pRg3a+MD+t3RjmZqZUXHheW8oYiVhTEeHgg7XLA8WPqeJvzdcEpcAxe//Z0SwSjlgmBGJoKySEnSSjPuL5YH2NUSthCUnbj0brR8hSOLv/0V3X33XPDXU/UpsY7FcUIESYrqD//C4KJaqxSYoCrk5SW3B7Kxq2pl4BQKGektBXXgeQS3D0FjTK0LLfzorNiznOz/rHc3NSOuZnZ1XYnMcQ3rJZfyG0NRZ7/FmDoAtLS4JjuStkTdLGi0gba5U3RLl+XaAPcFleWnCPb152V3/1d+7WZx+rWMLUKJHBcXGETAW3/3WHeYw0Qs2+Nvfun/5rpTUgBMmHwxWKfJKLKxkCoRYKGIID2HlhcqRf7iIa6QSzU1Nu9tmkhMcyAsTelJ3jt0YijaKguFiCixqQ2sxUrUo5ZoW0krIESSLA+a7wOwX+Dh+nisRvsP+U8rDiZqfZ+21cAm/oSZd2Bui+ecV1Xf9Wj9MVkEVFUHqM2pukf5CrV1nvC5UXlJSr2DQKh/qUN222XwNIuQia9BbrX7wArKtRlJzC0s/GR6wN63FYoFzlxqwRgELBagZkeClyc5rJyFggFYdGgBbjmSAmX5ChXAQYeSwDDQRT0NyKFKDOq9+6zmvfuie3r6rF5c8yF7r1/mGMTAZEgoAjsOHDf/bv3QfWsAZkXdl/GgRRRoL3FUlbx000NToschju6XSD3Q/dwOOHKi+mXRcmJ9ySafc0gFWXnV8gYissLXUlRnalVTVBq1VkofZ+Y6cAa36rpGJdN+kL2jZH1iDXvOf55b7OCA4EdHjEGhnr79UOAA8ufuHufPkb9/TeTa0HichZh8IV95bnCBLMg3uTSE2S1evJ2zt8UmktjR1HZW1TpBxCgSgik8WrQB8CYx5clL4g+YJcmH6szGnPvcnhIVnTUpiGzbKW4mTPmdJBvdbpsSFFXm4EUi9oIvMDh5WeEZI5CtWePYwVX5whCuSGzXb6fhQfasXe/PSX7tanv5D1j5K0eU0rxtuKeM1vlwArT2t9cnedVcIyax1eallLNrd1GoLNCze05O5bV13n9W/c4xsX7fFlkd8428aYVk8E5ZKR4/Ky30Mt/AIFNODSWlhQftWcWYdo/wjBsf4ekSj1Fvsf3pEVyZ5+WAtsWkoQBN9PcnJWdrheGBz5cP2zOeitQR/wmRBHbkGBkXCNr2hi1ihWFGQhN9lbXg0EZaLhwFHXfvK8azv1jpLUIQpqcrIVlcqWmRLxWrmc9Hu4bmdHluDYNw+lCOVnpPeJ63t0T+Pk4eUv3cNLX7ju21dcrykTA513tbsCSsaUkSFFyVWCzqzDZIoF92DJ+p8x9sxIky2L2MoIovXjI1s5nFHHQzh+5J41Fsy2fhnte6oxzj6BnvteVzuI8bZB99w/jJHJYIeG/QQ3nHwnSGI+aZM8z2v9yUZAKBzsP6/Rr8giuv3Fr9yT29fcmJEUxKWth+x1uRIhuRXeIckRfA42Jh8GYVkL1vP8cY8JY573ri3W/GqaqSHpW11Lh6ttbnfldXtF5KQv7Mm299j7+Xh9BUe+J/i6zYE3425bkQWC+xZB2Hnta/fo6jcKiBh+8sg9Gxv2p7+lgPhIYzl4/ntmIbW7+rZ2WYFZeyBw0lkMBLS8BqzrtXaqI7fVDnPT7KgxaZbdoHZSYB2174EvIs0OHFKecIMmxkjQ7DHRwSKZJAOS8QFxs37sixrk2Nj+wHWc+0DjvLHjsKxdPso+Ovl44NqtaWybVT89Oe6+/Jv/4r746X+2+/1AhLy8GK/9ZRpiy2+XAKuPAId9h04Ea32VSJFIRBEKOYJaxgf63IAJBNbCum96aw93EetlPjQ9JD8+eL0Pt+cQgBJ8EKkXOLxXBYYX5hNBEZyDu3HBrD6/HjcsC3FiqF/kw3oj7+P7EIIiUf7jemmbgifjULiyhoTLmL/JC9N2PoVFCtThi7Bykgnr7QYuYdI0sE5RELjHbafOy+prPHhMlmsxSf12zSpgINLbZAfZ2+hfhg5WPTtmsC7GZrH9XQ9c74Pb7und61KKnt67oZ01hnseycLTllN2b+U+tnvtx4t3IXMPI/cj48fOV1CMWYBsWwQBsuOHvWiKUZHWjYkcRUHifm4Ifo+ORJHC5k5bHrEOKSt/yXspYmQWYvLbJWg8eFzbFSEYiwhyyS+0OR4tpw9BR0PIIdwICiAYgP3RJgb7jABmRGJbDYQiQgehCemOPO1yw08fKxKTwJTFhQWTVwgsEtmp1UiRYq5Vogw5uHnovZ4IWT8jJ7DCrE76DrchblGteRoZS3C/QZCwznWx4z55e0ff/5EKlDd0HHFVDU1m8ZW6nBx22rfOsd+1Wa4W6dG1wXjg988+m3Djg/1GeDfMMv5awSKddmTzWNzXeAVQVBZmp0VW2wU+e9bG5/LiktaUSyprdO+4T3JXB+dtBO+F4NGKjfUJESsk7V3zceJ7piEmvwwGk9/XtixUHhc5XQQHEN2p+oyIhAiCkN2x2UMPi4utgu5f/FyCbbS32yyyiW0hPoDw8XUXJyRAJxQgMWTX0efmFBFo37vi9/jD0kQAcq0IOgQ8LlQvsf3npQyINehDBCr711EMgJJgWFsEcRDRyjl0406TIIFAVOphfY8AEIJaUHCo0tJoxMfO+4VlrO+xtuuJL2XQfeo/b62zrqZ9FGemdD9GentsLDzQul7X9UsKDuozBWmo+6EUFO4dJLmdxAewKFHOGAcEvRQo8tPuW2mZt9IjQEMlyB0kSAcw/tgWC0swRmYhJr8MBpMfwcj2NFTwaDl+WlX5fWFibv3G8MKAdIZpNz055gbN4uq6ftE9uvK1XJ0EA+Cy3ClIBhv8uuOScgoRsATGEJzgd2yYF+kraMXIQW4ve49+i397aljzPggV4UphZEiH0ljlNXtdjlkXi/Pzbh4XKOftAAnyG8nPY3PZfYdPqEQda16NQVAL7ln24ZMCEGXd62Xwu63Z12gM0N+kKkAwjIOeO9fNurtsVh4BT2blPbor1yebB8sTsIPjYi3IBaRvUEzYa5A+IrXG//4kI4CXaXaPCajJWs1SMBZBWCNPH+uUGJmDmPwyGLgCIT524G4+clLVXHDdIRBXV5ILgpD8EHhYXKzfQHyPLn+pSDuswZ0GxIJFyPcTJUiaxaARX+/Du7LCsMgQdoTyQ045Jgz1W4L3b8r6AbzPmrcmSlUYm5Jo5JhheY4PDZh1OiLraLutHMB6JMSHO5vyZIfe/Z47fOEHvkqL/e7s7DxPfJsJagn7y/4hIJTmCz7PKPm75+4N9/DyV67TxsLDK19p7ZeAJyI8PfG9uUhYxsf83LTWh8uM+EiHIKWGH4NCtCH43YnxQSWgfN3TARv38Y7vmYeY/DIYbEFT13pAArKh/ZCKOhMUoZ3Zk5EAgiDQ+gklZ32v584NO952w0+7dtzF9yK8Cw6SUUCCkSEWH8/z9zwh8EqiHjFChKSXXJbcvFgG3iqUGEwiC9eDXxfyQRSsMeJSJqqVZHzW1ohC5W+5Qq2PtrqfILbqxlbX2HFMKSs08vZqmtpk5Xt3NjeOH5fiD7TTn/PDqkiMPiRYBcWn+/Y1pbUQzEIUJ5YeCghrYtwL/d6kA2ubYT+A68A9yxZN1ab8kc+KIqCtjJJ1SfA6h2wbK1Ojg3LrMgekNNq4Sz55YqQDYvLLYLDeAfG1Hj/naprbTBOuU5V+zd0I5KflD2u9RnwEuXTfvqp1vrdx8Z/1PwiQ4BiE9fhgrwnnp45yWURsYg1mZxMAQeRmIOHog+BhZNAneh/rgUSDsnN8sVlcjXKxAXLOCOUPoxq3Emw0S0Hqg+e/r9y9NgqT271lg1msvQQ2IZ9FfPAmb7ZBgpsTd1/vgzuu69pFd++bT90D1ns777mxgaey9Ij2xA391oBLh4SXl7WhsQp14wkw5SS/uNjf7qR9Y/c2B8svxyy/ITfY3al0F615mqK11QpNjDeDmPwyGIWlFcp7ajv5ripgICBZnxKSCoDAulpdTiQpP71/U2sgb13YtwlqBFIY9EDiM9F6z8ZGZZFgoZH4zGPWsFQ6CwHHH2IzfUpqgPyUCoGbtVTVaQi0wAVKegZEokCcIBjotYKC7MP4DjaUpTwZ63sHzn2gXLa6lnZVwyGoBaNkU+D3G6Mr7WR5wc1qLdVbfL33b7knd665JzYGHt+6rHw9rEHWWyH3t4r4BD8WUIbKautVMg/Fp9Aa9UujAqsvJzdbv5VkffIWw5SHnXBrx9h+xOSXwaCIcQvkd+q8Qr+JVERYJ/XamDBEqEEmBLtQ8JcQ9uHuR1rTQftNB+ACpVwZAmxioFfESCDEsgl5yIKoV3GfkYv4T/9sEnyGtTDIiFxAii3jHkVYvs4GqXwGUboHzn7gDrzzvt3TU6rPyf1lXZfgpZSJT4THZ/vGBxDARJ1NXJys5d375hOt5+HyxuJn/YsxkRawexHW+swrLLR7UuMq9zb415Iqfnq72szUhCkCo7Lmw8o15KPGSH/E5JfBIJG97eR5E5rvaa3v+S7tG4BJbwcvsKfdrFlQhLCTu0XU20o6EJ+xO+tVEPW0CeyRni439ATixkW3asSXL8FInyDgElvjRBCK34GMSLMCrbFLRWl1jas3a4w6przog3PMkhoZ1OmbAZYreXsnf/TH7uA7H8riYxuqvPyQ+LhjKYLfy9s4yhpeNuLzgU0oO9S2vPHJL7TGO/KkUwEkKBLpAn5ato133M8UJ6hubHL1re2KfE2q/AGUAvsQ5sDcM2/lQnzjQ33powDE2BAx+WUgsDgIxafyPVZf24lzcv34FAfU/FcjFIhLC3PS9ClS3XP3uut9cEuRfmmFwB0KkVOSjRwuhBhkRAkr1i4hSEUBmkD0+8QlUQ5eBfsIPod1QCJO+U6S4wmA0VZNJFvbffEBOhtbDrp/ZpUSrUgwS/upd13HOx+45mOnjPR80jrJ2/pStRSg6+SBZwCCVbjHg10P3JM7110XdVpvXlFAy8Rgr9b0uN60W+fiXsjVvWyKTpmicmub92tz+Cj9pj6yqcLvhwBxd9JPY2YBv3Vu/xibQkx+GQgEJ0m+ify+Y6f1nCe+JJM+0HixkggaGbbJrqTlxw/kEktfsGP3grT3ydFBrWeRtA9IYM/OzVEZs5y8XD0XcEPK8MRCSkSuK6ooN+u7whQRdqcoNRJZcjPj3oW2EVBc8ktKVdOUhPWTP/wj13zkhKtpapG1ql3WberqElO5Tru2UKjzPgiNHRb6Ht51j29dUerC/W8/V1FxysihGGARKsIxDRGuA1ORBzdxXdtBexIrnYjf5EogjTFDJaEFUwZHn3arnB9kGCP9EZNfBsKXd6o1bbfVNR895ZoOH1XOkqRfEmHJhCcOhDWq4Z7HbqDzvoo5M/HJo0tXEIKPIOQ34MrFqmU9B2tYIfAmKCXwqO1o5/K8ntgEeBsuUPIM2V0AFygRoaHVyY4W3Ii1a6es67FeSOoEGw5TsaX5yGm5OSlO7XeW8GtYbOkUyXW3FvwUIzFFxZolx/onBQKI3CSgBWuPWpw0XLS4OGXtpfxFbw+w+uhz8vzYrR/yCy1z+nsjaCzYkaAlGknv2rLr0T27h1P+pBhpjZj8MhAUMa7S5qUHXNPBw67ejkx4ybEksgyZQFLz7LNxbUfz5PYNhbtPDvVpk9GMQEAEbJGEdTM5PCgiJEoTgY+AlJvYOoNT/T+bgPU1fY77TQEwRqiQIC5LiA/yCYFr1O+yXu9aj51VKsP+0+/KYimvrhMx7tnjCTlVPpI1b21l2W83hAVPovqDS5+rQkuPkR+7F2AFItjTzsWZBKXWf/WtB6VQUOeTrao4boTwlqua0Ir3GlDFhuhXXMUx0h8x+WUgKmr3utqWdrfXNN361v026ZslOKOQH0IS8iNfruf2ddd5/aKKV/M3W7tkAhDuYY1KClNTvYPQfazDbLOsKA5QVlMrsgKbMgDXEB9ltkoqq5RjWVxerTU91k+xJELg6mSNr7KhRZbeyY/+SNtPldfUSVj7tUi7OSkSH9A9tba06C3PyaFBI74v3PXf/dx1XvvGfv89N9bXI+LbrjqtbxJEOrPbBbvZswaLNc567IYBTnbPue+MCWKBWcOF+Fj/pl5pjPRHTH4ZCAJdtA8exNfQrJJmkchPQp78vlVZAUR5UsaKVIEF3HVL6ZHiEBn2OyFCBD5uTo4QIlsosev4/OysBJ/cZAhDGCRVIrQ3hlVhRK58VjZbJu0R4ZVW17qCkjIJZtZm95++4PYdOSlhTUQqpJcl0kMSB58ZBVwv15q1ooo3U2Mjcl8TyUnOJpvKEuRC0M/iLOkrC+qPTAQWNXOitKrOLPpi+5tdOVgGMLzqJ4f9J2TJUof8nt7D8gvcnhnaX7sFMfllICobm1Xhv67lgDZ/JQFbKQ4bebOY7HYwOlB4+PhAv3t05St3/5tP5eZhnShdAx+iAEuQ30livNbDjCzoBwJVICfSIbJzjIieS8TUYHKStbq8ArMsjfT4TIpiE8DCemyVWXzsunH4wkcqy1VMYItZiP6upP6dXCYWH7tckKYw1t+rsmR3v/qdu/Plr93Q42BbKNI/7LdDzJkK1l5xfRJ8xLppWXWNAsBEfMnIz/5BUWHd76mRX+/921o3Zi5kmnt4tyEmvwwEaxsNBw5rzQ/LoqSi0pPfBvLNT3S/xsFEHxvoVRFrrASCBjKZ+IBqgpLTZVbSvFlCs1N+XYdgGL8+tKogFixBusp3WGqAPLE4WPNj7Y/i2LkmhPmbUlzaYf/IKV+YGrecvslaKrwUvIU8Rwo8z0yOyuLru39HQS1d175xT+5cleuO+4q1m8nEB3BjUx2HCjwQH9WO6H/97I3Ij4PdZyx11ktJ9mcdfJZ1Ueu3N1nAO8brw3TDGJkGFVzOKzChWmiPCd1nGkdDGCG3NI9gpIxTZgvGlwHxQwzjA0+1Ye/1T37hrvzq71TXFKsQtygl38IgklSAsEWHwAWNQKbqSMP+g+7A2Quq04lrTsI20ETU81G7H2EdNLyzczNTbqi703Veu6T0hdtf/EpFqSdHBoI37B4wjsnNI8pXUazcv6CvXgnuVfCQ86gLm19UqBJphaVlSouJkd6IyS8DwToRSdW4dlhjQjIykaPIUU9+C94qWMq84IdkQFB68ut13beuuBu/+0cjv5/Z42uOepcUyl5dWfLEt5HwXA8IVCO/LCO/AsjPrPK9+w+5jnPvuXYjP/bhY21QFl/UGxZAl2L/hEKdzWaHnnQZ+V008vvM3f4c8ruk/L3dBlzaWPO4s3Hzku4R6d4F/U9/Uugad3VJeaUrKjHyk0s6RjojJr8MBMEbCctP5GdIJkgRBtZ8WbBZN28WztJudeuYiYabV7VBiQg1awmr6covf+rufPUbrf1MDPaLYPbsWfVWYBRhGkLEZm/QXnuQHWuJrEDwnH85MvgIvc1v5zTU0+XuQXZf/EapDNTmZDsehD8u7Ux3ca4HglUgvvGhfq3XoeDQbVHhFQq7S7l+E2Pc1MoDjZHWiMkvA4HlxwTF8mNn66QbmgYvcwhTAHATIUx3oaxMgHUdoiCnx4ZFfhf/4S/drc8+1r6GVL+B/LKy2bvPTk5FmhrkAqVvzRLEGlQLn4va5whlPfARukrEfvzI3f7yd6rNicWH9cpGs5Sr263Ak0Fu4/hAn/I5cW1HRXhbIUA2RmZe5eTna47FSG/E5JeBEPnlUS2kIJGrJoGaTKjaBEcrphIK1l/GpTakCKw/v140LQIhxwsyoUGA7CLPfm/zs8+8NYGkDKVlFARklzLpAb6H6zNrjiAdbT/04LaqtXRdv6iNZ0llYO0SNy7u7N0KuT1nppWrym707Oqh/o6A56dh+eXJ9ZmntfTY8kt3xOSXgVAJp9xcXxWESZqCQEZQLM7Pq7EDemoSOfOBu5Mo2Fuf/co9uPSVkcxNbZq7OD9jfU3fW3enSoKpwD7Xu+FMUTHiY20W4sPK+/bv/7s2nCVpnz0NseBjoCN4Cx4XNkeKnCcUjgjQuZBfjpFfUclzj0qMtEZMfhkIgiZY6/PkF6wlRcTzaE/2vYs37XwZbGnD9k63P//YPTTye3LnpnLoFhdmHMt2YSBM9B7fBPQdbD7rN86F/O5d/Mx98/f/w0jwU7P47qs+Z7z7gIcq+iyaQgf5LUB+FDfgBf96MniSDCy/omKt+yUrjxbj7UdMfhkIKtYzOdFOVb1emmsSIK2tsc7F+hBC1Vt+MV6ASULW13CjsUcgeZCUCnt46WvVQR03y3BbAksgVO6PfTYRp9PjY3K/Xv7l37jrv/0H13f/ltybimbcxS7OZFix+4KCRwEDgoRS0VKYUxQkgATxrsRIb8Tkl4Hw+9LlyPpLTNIksjjgPhMKS7L8Fo0AsSxirA/WRIefdBrpfe4efGvtEiXDrhn5DUi4evLbOgKUjLbZyv3BnUnOYdeNS+7SP/6Vu/abn2nTWcqYce8yvSDB64D7gtsT8rM/pFBEI0C/P6D2ZqQAgaKcYqQz4juYgVCitE3OPWzPwy7l0Wa3TkMokOKgtREJiOC1GC+AYCAiCEkj6O+8J+J7cvu6G+p+pKLVJJnLbRyx6yPBhDUW54h9J4EtlCvD+mNbItycfj0rs0uVvS7CWq7PFZRotwiS9GvpeYFSGYvOdEd8BzMSvkqIGlOb2R1RCKtmYSgcIL8YSQEJElnJ1kBP7990vQ/vuImhPrPCZiU0aZtG8H5cdAhr6nSSrE7ifc+9m9qlIUZEWP9p/Q/lbmnJK3fJkNAjvOVHIBnuz9jyS3/EdzADIYErqcmO1eHf0bC6QmHrUDOOyS8K2B2e/fCwxp4aIeGChPwopRUGwGwWeiv/mOBmXzmqzHRev+Su/urv3NO7N5RrGCMa4DEIT8RnLbJyFxAghclzsPrCtfQYaY34DmYkjPr2eMtPktMmb0KBTQZyxxKWX+R37WqwQ0NVY4vbu/+wa+w44poOHnMVdY0uN7+I7kyh878LvZV/7F6ys0RpdY1rP3Xenfn9P9fWR/nFpZwRIyqM8PBsqMRZ7B7e1YjJLwPhOS8gP2ua4xHnuQICsPwUsRhbflFQCPk1NBv5HXENHUdd06FjrrK+ycivUH3/WjI2eD+WPPezrArye8edM/JrPnxSNUJjRIcf3z7gJR7fuxsx+WUkJCo9+UWAzkqcyrqIXxtBUPBfjO+C4Afyvdgqhy2kmg6fcM1HT7na5v2utKpWydAqMLCV3Wf3kzwzNijeZ8SH5ccWSGxczL6AMZJDI9pIz4/tGLsZMfnFSCDBldE4c1eDqL/SylqRHSTUce59t//Ueb8zwzasB0lQm6FCAey8ggIj3XIjvpPu1I//xB15/8faADdGjBjREZNfDAHiE/lx9E/FeBWso9jPraS6xtW2dsj6OnD2vcSefOpB2GorTQv7LNyfWJzUbGVX8n1mbZ780T8x8vuRq97XpmhEEW9Ci4kRI8arEJNfBkIuHRoBK0jMCOA0ncrRPxVjHbDzenG5d3W2HD3jjhrxNHYcdYUlFYn+284+1Mfz+WYFQsCFJaWuZl+rWZ4fuDM/IQjmhMsvLPYnx4gR45WIyS9D4QnQr21EhYSqHujPGOtAVldFlaI7m4+eltXVePC4Kyot9/1GHwbHbUHw+aurZn3m5hv5lbja5jZ38PyH7vRP/sw1HTrhCorjIJgYMZIhJr9MhIjPtyjQWcGpCpQhTWIPOYL6y7+wq0F/ZLs9ObmutKrONRw46lqOn7XjYbMAW1yJkSE1H0VMwTuSgm59uUUFX2KNa2KnAYJdapvbXcuxM3KFNnQcUfRpQZwG8R1oRCv/lWMqnR4j0xCTXwbCC+CQ/JCSdog4zxEIrCvR4kReD/UJu2TkFbhqXIzvfOiOvPdDBbvQT4J1s/rdd35S6JbYP2tb1HsUwluAFFzOdYWlZa6ivl7khzXafvpdV163NzgzRgjdy+w9dt88AcbYvYilW0ZiDfEZJFz1KDkgPAInFDyhuqAxsIKx7EgorzHCO3D2fXfQCJAIS/pJxPe8u5ODbs2yk7NwS5NTueR8Tc4U8874XnvLnuxcuTrLa2pd48Gj7vCFj1zbSSJPm+y1sBRXfC+Bat6i2HHfNkF+NrOi3+cYbzVi8stwME9lIfg/k8MIL0F+seUnkLO379Bxd+b3/lTpDGXVtUH/+AICkfvWZC1durK86GafTWoHCOpz3v7yN+7+pc+1WzyvSyaHLQq4BnhzdY8S7iv3NriGA4dc64mzIuqafW0ut6DAn7uLoS6F/MxSZif2PVHHd3AfKPyguqCbUVRivHWIpVumA8kctgiQ5YfbM2ExxCgoKjbyO2Hk92dGfu+6spq6526zlPoW4YsQ9eQ3MWTkd/eGu/Pl79z9i5+70b4nnvgCApTM1T8bQwRssnh1JUvrfFV7G438Dhr5nXP7jfyqm4z8WJPc7bBOZUwn9rqMMr4T/W823zI7wi+mVhc0xluLWLplIBTsQgmnRHHqiNLZTkOok8DNnmVaz4ogfDMVBJLUtR5w+46e0lpa08GjZlU1iQw9S0XsHDuN07H42IuPnRnYBomNcDuvXXTdNy+7njs3XO/D227g8QNtibS0OO/fF3xEMogAV7MUAJNXWGzWaZ2rbzvoWo6ddnv3H1IATHFFtUqu7WYo2MXGuLYk0j2MDiy/JSM/EWBMfmmPmPwyEOT3UbmeJg2VOZ5knkOPtD17/G7VBHegHe9mQHQHz3/fnfzoj1S+rLiiQtVVqLJCtZVIKgUERrOZtjg/52Ymxt1wT5d7dOVrd+WXf6PNcAc677ohI73uG5fdna9+5wa67rn52Wkvm4P3R2VBdB1qNufmF5sF2KQ6o02HjrtGu37cnwTG7Hb4QBfiPqPBcySb4Br5LcwbAS7Ell8GICa/DATWHgEUrE+EaxNJJ3rAfgQCkD+Gm0zBHLsOfs0T65eAlo53PnBHv/d7rvHgEVdUXqE8PyxiLK1o7Afo2FUR2qRZdYNdD13n1W/czU9+7rqufaMNcNkVvvv2VXfv60/NKrzvZqfGdQ91/+zmRRXUXJfIL6/Ildex9nfYrh0CPOlqVAO0UpbPbo105HeHLWC1SOBM7gfk5y0/6+QYaY2Y/DIQ3uXp9yxDW00FCHZcnlQPwQrcbcCyq2054A5d+IFrPXlOCeTk8eXhLlxNIcAlkK1Ecy7OzxuZTbm+h3fdrc8+dre/+LWsv7VYXJhzk0MDRnx3tUP7w8tfuyd3r7up0UEjY/ssvHTM1ujyWtfK/aTeaNuJs67t+DlX337IVdQ3mQVYrnXd3QbuidZrw0jmCPfTcySWH+S3IMtvZTm2/NIdMfllILAWlpeITAvcnjJToiG0emje8ktB2mYAKF/GOh/k13bCyK+lzZVWVrq8QrYnMvJD5kXoTvWazS7uBe5Okd8DI7/Pf+XuQH5m6a0F50wM97uBRwH5XfnGPbkD+Q29QHz63Ai3RJdo/6DAsLcgxNd6/KzbK/JrdAUiv91n2cvqI6I5sH6TWfBruxpFchG3Jx6V2PJLe8Tkl4GA8BSSvWQaaoqT1EfD5Rr5EfCye4ZHXkGRtiKqaWqVq7CF7Yla96uOZ3ZuvkgkCulJWlqT69mUj9mpSTdoRPfoqpGZWXKDXffd+GCfm5t+cQd2Cda5WTczNeFG+7pd7/2bigQdsPPH+nrczOS4fd6iPjsC9+lavc6TpVqfJZXVcuOy32Dz0TMKgCEwRlG9YtbMhXZgz8t3eUXFLic/38Y3ll/wYkSQ34fFh+uaoCXSHWKkN2Lyy0AQiQbxeffMciSZHWKPacPZOZTN2l2pDrgB2Rdv35FTShRv2H/QVdTudezGjv4giy8CxH3WbYoMXFhQ5Obj65fcxV/81D2+edlNT4z7E18FY6zp8VGR5FOz/J7cvu66b99wY/29co2GFmAkhAQYDIDiikpFrR5+9wdmAR6231whCx9yyGQwlvOLSxTtyn6ISnNAiYjaj8A6kvW+uWeTbn5mWut+MdIbMfllIHDJLBvxMVlZp0hIvwiT3deLzHE5Zv1RBirTobD37GwVq65r61BaQ6NZfnUt7bIEc3ILRHzeikoCMZ/9bw3FY9asu9H+p+7xrSvuxu9+7p7eu2mW4IQ/dwNg5Y08fez6Ht6R9ff45jU30vvErI5nup9hEFMkQIDBwyIju4b9h9z+Mxe09ldaXWfWUKms/EwGZJdvvxPyw/pDuUuJ+AykD+HynHs25RYgP6zwGGmNmPwyEOHaBOtInvwMG032QDoi4BXwklcgN5F3ifnXMhH8Piy+iromIwNy4s64lqOnXXlto/VXtrf2opAeCPoJIUkwBGRF4vrdr3/nBh8/cEvzs7LGUyGuuZlnigR9dOUr120E2vvgrsh0fmbKrt2+MqoVCAFak0vbLD3SHchZPPGDP3AdZ9+z398QnJiZwI1P+TcClwrk6o1u6XL76bsV0ofM2luwObVoFn0c7Zn+iMkvAwH5YfVBfsvLaKgRJLhmOYSQrTSHXCNASkBlMvithSXlrry+MZEQTiuvbTDSz5HQi9BzIiDPQbyBAgOrbvQF8rvvFudm3IoJT+2xGBHzZjkOdT90nSK/q67vwR2t/81BfnZrIL/Iuol9LWt7RPKyDRKuXU9+79vvzewC2IzjgiIjv8rA7Zmim1fjwHSWpaUlzSkKEDDHYqQ3YvLLQLAYvzg35+ZZmNfaBJIvmqBUkntuvgIDMj0UHuu2qrHZtZ18R4ngqoJSVhlUQUkeCRhC/Wr/4GqeGB5wfY/uymXZb0dSGqYnxmSBe6svwgcGIFp3bvqZ0h0gQdYMn9y5JmKdmZqUIOYzI1vndiIESBWY0soaV9e6X/mLTQePuYYDR1xZTb2spEwD4zivsEhWPnmauPZ1b6PAzguteeZUYs0vdnumPWLyy0AQZbgwP+sWZo38gkkaWT6aNUSOn5Lcc9CQo74z/ZBngrC+tcMd/eDH2pW9pKI6IRSjEl8ICIgowEEjqXvffOp67l43K+2Jm50cd0tGUq8DhO+oWXwkxj+8/JXrfXhXRbFnn005doTgFkUiQAlyHmQZCeS7orJSV72vxbWdOu8OXfihAn5QCDIN8mbYvS4sLpVLHwWAftjw9gZ9SpSnr5i0rPk0Y4rMvBHg8sJCcGKMdEVMfhkILL8FLD+brNQiTDLNXwCCAvJDCGIF+GogmTVMCOjBEsANRt1LXH9YPgSEgFSJj0R2lAyqsrC+R83O3vu33MRgn1yXuKBfB5DfpFmUPWb1Pb5xyT77jht60u2ejY3Y95oQZnukqBes07J0jwuKfQk0XL1s0VTfetAVlJQm7numgDFN8QKKfuPRwF8c6R4HCsVz8psNLL9nCaUyRvoiJr8MBJYfa0wLs7hnFmwOr3rLYAPrQHLA/iHxlyjP3PxcrY9QDguiyKQ6n5V792nPu9M/+XO5O0lgV8UP++2RiY/Tbfaw9jYzOaaC1CSlQ3r9j+64iaF+t2jW91aDNAgI8Nqv/lZuUHaGQCij8HA9kS3AFdaGqQFa6Mpr6119+wG5QJuPnNKu8GyNlCmQ5VdQ6ApLS2XtR1Lm6CP1k8+Z9ZHTFIqPMjhipANi8stAsFa0MDcbhGRjGdiTyYRiMNn3GAmQBJyT58mvsKzC5UJ+GbT+B/kdMvI7Y+RH3UuRuywd66SIsk1dCvllG/k9w+J7mCC/gc57Rkp9WiPaakB+3TcvuatGfuwGMTk8pO9hTTGZgrMWkJ8ZrC43z8ivps7tbW93jR2HledIDVDWxzIFoeVXaFYtgVzKa4xyn+0c1vpUJH5xUX3staMYmYCY/DIQ5JgRKDHzbNItzeNyS23CYv3l5Ob48PCqGh3TPfIT8iZvj6hOKrjQ6lrb5fr00X8RWcNOg2RWjDlYA3o2NupGeh67HhLSrZHiwF59shS2IRyee0se4PjAU7Mw77nO6xddz/2b2ibJWyXWohIgp9pvJ8CpoLjcVTe1ygXa2HE0Uf9TASJRLKW3GNkiPwJeyrSpb6JyUbJpYf1IQBH3UlVdzAKMLb/MQUx+GQglWJsARkgS+JLyhLVJj5uzoKRE+8LhAkv3KEDWuKoaW1z7mQtm3Zx01Y37FPCRxxqQ/eCQN5IBXoELCDSZtv4d7e11fQ/vucc3r7ie21fd5FC/Z5VtBi64we5HKpL9QBvh9tg1rTy/1xEJUNaNWYGkdpDfSP1PuT5bTDEwZYFd7NN9/Y8I5jzcniWQOS7u5L8HBUdKjt1nKuuQcwkJplRgIMZbjZj8MhBMUmpKsnccgS+p5JaF8LlRpWYtYfkRBJGelp8Su5XkXKr97NpOntc6X0X9Xm1Km5Obx1mRiA8o+g9rYH5O2xP1dz10JJ9TvYU6nM/GR54TUCSs2WInMmPZdRhjsfP7o6tfu0dsi/SkU/ccFygBOPqkCB/HpXp5jmVc5xr2m1XcccSs4g4pC2zjhNswneHdnkWmzHlLFks/6R2yvuOWUC2JlBLWz1EqNzOXYrydiMkvA0FNSQThs4kxBUNQnSIVecy5uMPQlsl7ozByuga8cO3sa0fpMlyd+w4fc1UN++z5ErOevNUTifggEmus/cxNT7vxwX7Xbdbejd/+g3ty56opGqP+vBSBYM4mspbi2SmQDPdIFUfMIhnvf+q6blxyNz/9pXIMF2ZmgrNShH0mXVFaWatqN0fe+0jbO6V7+oNP3ylQonuY6hDpnhuwpklqZw2d/o4tv8xBTH4ZCCw/dgeYHh9z8wH5abJHmPAiSWvsVk4gCJo/x3Rd82PnAsiPMP6GA4fcvkNH5fLMK/Dkl4oswxJg3Yf11PEBIz/V7DTyu31VieybAWuR2bkFIsCslPqYclsLskjG+ntc1/WL7uZnH4v8SHHZNOzel1TWuNZjZxURW9e8P7CO0xdYelh8FLdmfTNcw4wwHWT5oUxCftrKKBUtMsZbDfTZ+G5mGPbksCVRvqs3a+d7/+I/qLFuB6H5W/5qIBdoCPPeB7dd7/277v63n7h733zynT3o3jYg1JSXiDVFH5i1WmeWy77DJ13z0VOu7eQ5137qrMvLL5bFlyrx0XUQH+up9AV9QvkyLAK5LTfuWn99Ou/5ieHeiQAyo2FdePfaBlPTXsIFi7bCuhxFm8tq9ypn8cDZ92S9eSS5qLUIfgJpE2G1mmu/+Zm79uufueGexzYmRpXnxusq75UmRLD/9AX3vX/5f3Pv//n/mujvPXYvNrr8cB7QBwNdD2we3NY+jLc//5X2WIyR/mCsp8cIjhEZIgDTduta9rsP//l/cB/+i//dFZdXGhmwO/vGrrVw0iPgh550WXvsbn/2S3fzk59rTetthreiSNAvcHlFRXJ5si/fwXe+51pPnHNVextdpTX6AeJLRXaH5EdpKwgQIsDiYqshppD6fA2prQeuj5bYRdzA/VDovQErgwhRiIVczWQuNgW4WOMzsvPytK7FfoTV+1rl4vNkazczFUgiEDizYr9z0qzba67bLFt2l2Bdc+jJI8e+g7R0cQEeMIXgo3/z/3If/LN/F/RJRCXQTiOQqOfODW0w/ODSF+7Bxc+UbhIj/aGh7h/GyDQQ4PHBP/sP7oN//u9Vy5E1PAT/RpD8tomPO411LRqa/5WP/8b1mSW4bbAv1n9GDAkLjud0XPuYC+QcO/KcZJj/W8SXX+ByFdZe7opKy7Qb+5H3fuhajp11lPSibBufl7LR4r9O7i/cissLz6u2YGl6EnuJaF76juxcI2dVTwkUEF37S7ALC/PKtAt/iJfPtfMgPxFlYInhkiM3k8b36JqQ4ilCXWtvI0d0fGhApdRIqH9w6XP31EiQCidUrlEqh/1G7wpkXVl/BH/750MrVkf+hrD1XNCCc7cDrKGibHScC8nvf7PvtOuKoPhAfNzOQSP7zqsX1R7fvKQcS6KoY6Q/mFLbN/pivFFUN7W4C3/2b639G1Xux/UJAWriv+Kui0ysEd5NDhsltC7/4q/dt3//P0zzv+FP2gbgqkVQsTbDGiPX+XKjSod3Z+LWNaLT0VtTChzhORXlLjCrz7+HYtW4Piv3Nuk8rV3yI1Md9fSLAVKSe9LIRn1lCAk78QRY5/MhR67TE3fw5DpYXfak9h1ieOk9z4nkObmwPkeDYEOlIWVwedYgN/avY9d5tlKiSPf4YK/f2cCa+gIXqZE1u8yLtHX0jbUyyutR6QalQcdZ/1g7opsVzfr0tsB+AN4OduLHDXzhz/6lO/sHf67EfnF2kvuPfgIBUqD8zpefuPvffmGPb7t++/vlXfhjpCeYGamKgRhpAgT/O3/8L9SIcCShG3cYEx/td10Egi9MlEf4ffOz/8t99T//fwrs2BbYF/o9BAtcgRF0SYUJrYoqL7zKKhR0Q5k1rDlPhJCjNQguv9De5wU+5MfGrGzbE1pZIgOz9nJk8TLcaZuHCMka/yV4RUcjQP3hkRCua2dXeB7HtSe/DH0F/wR/g+A9a9/GNTw/R3/x6fYvpMdza8/eDEJSXdZ4EJlZE8kZ6UFcFFGADCE2FCZSa0KSg+Cwkql5irU0PTmm9Jvp8XFTqoatDZkF+Sz4rq0FpF+9r13ej/1n3nWnfvgH7uiHPxLxUQs8cX9eAcrWQYC4O6/+5ufu9ue/0QbDo9ZIeI+R/mB2JBkGMdIVVOk485M/c6et1ZoQqKhvMBKpSLh+1oWNCAYFrrRwQ9wv/+Y/u8//6j+ppmQUYHUQbAIReaKCoIyAICVZa/4YWmKkUWDx5RiRQc5U4qBRZJlK/CTbk6dHYAflqfgsnc/RWmgN6vNyvKsLayxRsgyEPLGVoz3oq/WQ9LtSfe8G569F0u9NESLR0HPK5xpryN1qAyi0gkWMakaGEKIRpCdE33CTsgchFtPslDVTqCBBdkjAvS7XLZ8pUl1jQdrnJz7bSJaCDSrlZuy1up5lvAZY2Y0Hj7sma+2nz7tD737oOs5dEPGlYvmxk8Y3f/9X7vpv/tET9uiQridG+oOhvYVTJcbbBFydxz/6Q3fiB3+oncpr97UqjH1D8kvAhJFJCdrnf/l/uk/+2//hOq99G7y2MbDAICpaWXWtK62uMyuuwhNYsREZ61KFxSJGyk1RdQMy80fcllhr3mqTJWdWmz+yXuZdnGGgSLjWJhcfbkU9hikY2t4OSgzw7RjpfMF6iPJdm3nvq94TYqt/o31f4iuDB97Nak0kaCSE+zUYKzqKzIIjblERGpGsnswWFxbdYuD+XJwzsgwIzrtEZxRUJKvRSHN2akJ7FxJ9TAm3Z9Yg2OVF6pkai70CjIX2U+9qu6a2E++4tpNnXcvRk3Zddv0RyE9ebGv3v/3UffY//pO79POfyqL15Pvq742RPmA4b4dIiPEWANI5/N4PrX3kmg6xYelhV1Gz1wuAZOSH0AuWsT7/y/9k5Pf/CcjPu9cgHU9CIfH4dS+Ejq+gX26twlU2NLmqvftUVxMCxPJk7RHLLr/IyNBIkAANb835RO8Ed70M++LEYOVx8IeOweOA8154LsYWgHsSHBN9u+a5Fx6vQfjcy/dlOVjXXF70u6PT5GbHOjTLcPbZhIiPyErWnSdHBt3YQK81CoZPK9pUaSEQr31ouP4p0jXLke85eP57rsNa67Ez2rFirymAjHvGf9KxkYVbe9Xd/vzX7rf/5f/tvvnZfw9eiJEpYEgmGwYx0hTkfrWfflet7cRZ13r8jKtubPECIInyKgKC/LKdu/zzv3Hf/P1fKuQ7DKyAvIqM4OSKlNWWr/U3iE9rcYVF9loYdenPU9BKaOXhBsVlyZocKRi4Sa35wJHgIl7GyyPV/tZTa58P3xuP6q3Hen3LOAmOr0JIfELw3pWAsNg1QdZhGCCDq33ByJBmhIhbFGtQ+ZWU7KOE2+xMYDWG5/nC0xAiKTqQJUUeOs7h6vzANR0+4eqa2xQABilK8XvV+NB1snM7EbRL7vYXv3Gf/l//h7v4j3+ll2NkDrjVsZjIUEA8TYePa/IT7n3o/IfauRzii0J+rHvQbn3xW3fzk49df+cDadYIrYp6cuaaVPsztOSw6ghMIdIyJy/HsTOEog5pWIXWSC7mwz3Jeako56Sek+TRiPzOoIxHafoiuK3fRXBTIULd9PDoFSwdnTGVHf2aoFmKRpYE1SigZmZaZOfXEMcUUDM+2OeGuh+p7un+Mz7hn3qllfUN2rcQ4uOj+Zr1wBDkGhTIY8R656vfus//x//pLv/yp8EZMTIFJtrcf/QPY2QatGN5QZHy0Cps4pMAjStU8uUVkz9EwEsCJdL4o6i8UqXBaPXtHSp9xWPKh5XX1KswcqlZm5AggSu4NLH0lH7A+l0QlOIDUp4Toqe/5xIy2bXFyAyg7Og/KT7eZe7d6T4QivESRusS6JSXT/AUa8WFfs24qFjrxwqMMuWLyGBc68UVFRrn+w4dV6EHdiYJPRTCq8aXDUGvf626ebMkIdXBx/dVu3Ww64FOiZE54FbHoiZDgdBACJRU17pTP/pjd/6P/plrPX7Oa7+4fpIgJECCDVh7UYh3sBaCMILYcFvuyc5NCKs9uDCzITUv1L6DNaNt3YEXj8bdhZeGyHdGzMtP2PiQFcjangJqFu3xkoJpCKqRq9TGKY0158KSChGm3Ow2VjW8XjXG7LsYsqR2TI4MK8Dm/jefuks//yt367NfBifFyBQwtGJxk6FAg9Zam7Vzf/gX7v2/+F/dgTPv2SvM8JelygZAKHDAUxk0Ro08U4yel4+7CSl0445gN/U/45LGeAygvzVYrSsCJU+NF5P0jd5nn7VqZDra16vEfvZKvPbrv3P3vv6dPylGxmDNsImRaSA4hQCC+ZkpJROz8zh/s5Dv2cyflxSQGgeOJkjCNcOEYOH54Jy0hvVHKEyjtj1vWVvvGl9o4W98qaU0Ht4WaFDa/+E4DNp3xmd4bgSEXUB6BgE0Swsbp1TESF/YdIiRqSAwhckL8REcQJAAkXF+Mq+mJusCIRMKFvvoFwSMhEtEAfNWwjpD/cE/PH6ZNDKhBb9tvabX0hChQha2tWNT43NT43LVUa5tYX5GblQpizEyDgz5dBZZux4KEsgmsjJPpcEKS0oTtTF9sAkBA3lu/5n33JH3f+QaDx5LJI3r9u/yu5+IMjTJmYgwDB4rFN8k6PPXEKzB3+GWQ3qvb7xXIfx2TCDxOtI5fBy89gok1ksThBQGhTwPDNHOEInPefF1mM7nXYZ/2/+J964JNKIKjo6++c9LfOnWgI9L8nvfGqif7HJXltz4EEXd+1z/o3uu5+511//wrogQ5dEn4Psk/LmwyHdsHaYd0mloxlgHvp5lvtIayGOqsVZWXa/KKtTHJA2BaLiKukZXWd+o57zwI9B390JCjv9EcNYUPOFzu3jsCzYTROFbeF5YxFnn2d+qdmKEqAAMWlD3MpxVkJ7O4/N53Y4iyg3gIx49QYUId47Yk5Ot4KLEzvr2UVKARGJhpKQ/6j32ORQiUCMwKSwxx2dwbpBfyWM6xejQf+5WADKxg35tmkgZjQu7P1h9BM0Q7EVVGYJflHA/PuYmh40YB/rc2GCvtrUatwYxxkgvxOSXRvD1Mn3KgG852r6HgBbKlu1t61AZs6q9TUZ2Da6spk55d6QeSBhKuGW9fcKIUbgRAotJ18xvQEK9Fvggtg5adDPkiU1OqLyWJzpPbhx92S1KaRFR6AlS5wTnelKD3EJi81GH7Pgd9q/IL0GsIfmtsQzXwZ6ghJusuwDcP57TfReBPd/1HZIUMVrzEbe87gkQsvSv7dH71qad+PHj0wYoSICnQKkxCStws1jz5sRPiHDPXus7txbSO+yS/f1b0ViYGh5ykyNDRnhP3PDTbjfytMsNdT90g48fyQpMKE52/zkfRUj33MZGjLcPjMi3aMjF2AhYbWU1e12pWXUl7HpgLSQ3tm7xdTRrZAXi/lSkpyqqFEpAQhzCm7rj9vXfEYHhE+u9FoDtgyiDhSDxVk/u5ggweIsnoUVp8l03Lrqu6xflxkJIhRZeokZlaOGZEMTK0zmBQJMLM6xzqdc9EXK0J/Rd9oo/J/EZHDe+AaEbEkUlRPicysnJwltroaEQ8DzFvCHN8DxrwfMJggytwuAcxhCKUoUpTLXNbcqLI40Ffk5ymesi7IvEIOO+6rtfrbTozPC7XvrOF17bSei67av1e/x91z6GJNar3ig7VIy6iaFBN2mNXStUls1emxwdclMjPDemv3lPjLcPjMY3MbRibALVTW2uoeOoWXeHXc2+Vm3X4pPLqZtZ7jX7PCy8QOhZ4xbraHf5jQmSAJJ9L8m/xHPW9FL4+prrXFpYVFUPCDBMeEZ4pwy+wxpaOWs37E/39d/+VzUEFXiBmBB8/sGa60EYBg+Ftefr1eCPAPrTP5d45aVTvoOwL76D5y+sJcYXT/Z/eJ55+ZzgXf5FgSo9ew8cdk2HjruD77xv7QNXUFxupG+XubGBui5kKUkxeP5mb4UaAb5A2AGsLxJdxOOX+2a953YSQVfhL9F/0gpMgXFeCZqbpvTatJsaHXETwwNufKDX9Xfes3bfjfZ1uwn7m90gYrx94Na+yaEVYw3QjLODZFzVxKRcmB1VJ9MalVSqjfQoFF0G6VXX2eucU2bnFHvtOnCVSWCEdxYBEhy3DQkhESDxgN/F9XjSkHDEclKpqudraiQoy/Vozdd3XDDCo37jrP2mbLnjsGTLjOgpqYb7LtXfhA5AmxweMsHU43rv33LXfvP37vpvfqYyWbsR7PEIAda1HXBHP/iRtR9rN5Dc/CLrY7MA6d8U+pj7C0lgJY32PnEjvd0aC9qlIy/PJ5sHYxzXq47WnrtigypAgZUKQq5+gQSDx4mnUrjGlGHfr0sIroPr0Zi2/1DMqEmqEmtm/T0bHzECfOrGrE0MDdhYG9CaoQJjzAKkDBvnsE9mjDcLbud2DpsYKYDJTsRmQYkPXqlvPehqm9u1dkeJJqy7wjIiOktMgHh3ZnaOFxxyZYWz9GXBAHZKOKx9zCF4Ti7DZQJGlmV1+UocbHrqI+d8Nf9JO04GBYwnVKCYQAOCdryl2+7XNa2xE4SU8Ki/y64BY9Fkqut9cMd1Xrtk7aJ7fMM3rmU3gpJfKFfUvTz+/T9wx3/wB74kWLBeHBg6KcDfkMmRAXfri1+729awBPPse7hnVF0pKis369JvecWRra64x/ztt7p6HqUsorH7pvFkH5243zwOji883i7w/QH0MPjbBzsxrv1a8OIidUcJlpl2s5OT2rh3amxUO+ATPTpgVmHfg9uqPRrjzSIYUjF2GrLy0HQDrVdasZFZsWniBK/UmYBnI86G9kPahJZozbzCAnuPX6vxVpRvOyYA1gUWnXcH+ebXvPzaF+tlHNkJnKRhqu+bgID05uYUMo4GDPFBdrPhbt8cTUMmuIBGAE/7yfOu9cRZ19hxWFszFRSVSignhOFG0CjnGn0prEdXv3E3P/2Ve3jpS7NMHruRp90SXLsZENChCz9why985PYdOak+rm5qtj4z5qEaUNRxZadCWFg+l37xU2t/Y/d4Uuu27MfIGmNJRbWvx6nmPRyFRogqkK5Ni6kJ68vn+QLpfnNkpWmwZpnlrUIilsPUjcSX7/T4D36vHvI4IGoeM95xi85MTsgCxhLuuXfDPbl1xQ0+fqioYIJivKfD72sYrjXH2H5w23ZcXMYwC8QmM2t1NLRs1u5IUSipqlHD0iu353lcWIw1WOYFgM2qMHAgIfjtqIc7cSeZ2MERMFGZtH73br9BKZrv3CxuHr8/G3lQkNuMacHTE+PPXZ0QIpOeyU8OFe9dc+QcSLPp0Al34ge/7w6d/74P6rE+w3WWIP6NwPVaU4DLxKhI9cGlL4z8PnZd177VWh9ku9sFDv3JGnKtWX3shHD0/R+7FlM2srNzTdnyaRBRxpeGpjWUGPq38/pF1/vglut7eNdNmSLDdle48P3aLXs4BpsYs6kx7tAXniuUS7+ozKfrQNDhjv4QpLcS2RDZB3Tt4cutRRoXWwm+NjjqwNGadqRnvdrG8uzUuObAxFCfG+vvdZNDA17hs+fZpxA3/OTwoDwhzB+tLcbYVnCbdnKYxAjAJMe6q2s9qC1XGjqOyJ1XZmRHxCYCIIzcM6q0CWW3yjRw3aw3eMfCiU3jQFj//LR3XaLhMqGnx727cmoUy21QDZcP+VBM/vBHeCHFygmP7Q8eB0c+PK+wRGuZh979vrvwZ//anfzoj6T1+z7h25MDTZzG9jTDTx67IWv3v/nE3fzsl6771mVZqYrO3O2wG+uLk+e4ox/+xL3/F/+bXKAiIhurkEtw2zaExof195IJfN3zoX5369Nfuisf/617cvuKPoeT1ipxz5/jkKVoXlJ4aKw/VljDLcs6N4oia74oQEQ8h9HOPrcx219AVI/AdkM/jwthXDPGfJ7o0sKS5szYQI+IjyT6rhuXXd+ju6YgjlgblcckxvaC2/M2DJOMBq4Z1jn8xq5+N/OSyipX1dhirdlVNexT0EF5bYPcPriDWMMLoYlsTTdqq+5WqndeExn4N432dsuVA8Gx0ahKqGn9jug3v37nQ8KDHbm1M4RNbDtGAS7huvaDphAcVHWaYx/82LWfetf3Q9Tr1m/0rtgZ07AfXfnaPbz8tQnhqxI4I08f+/NivID9py+4kz/6E7lB2bKqqqFZrvlIbmbrc/GPWdqMA9qdL3/rrv3mH5RSElraGykczBeWASje4NN4KrVVUbheGO4f6a1AchRLXEWdEWRdgwgRlzjPpTRW1iLVubERgv4Ij2FqDJ4SAl9Itxm2cTj05JGfT9pNYshNj43odRRKPCooE1IMY2wZtvI2x3gFEOQ1zfuttSuYgIaLCQIsrapy+cXscu73vtM6YDYL/dwaj8QN2soJaQd9XJTPTJxvJ9sEZBLe/pJght+4/s67cmtCfnLzqIVuTR/BqR26dfQuzigg6OHw+z92R97/oWs+etrtNSJkP0LmfySPUHDNRJTy3RNmgVxmDernPxVxQ8a4ZWN8FygcrSfOWXvHiPAd124tv6DErJHofc+JKyussS6a0vGNu/vVJ67z2rda66KRP/lK2NgPvR5+PRx3aLA2bs0n6xMd6nM+mTOsB7Nd1979h3yRh/pGXav4IsoYD5EY6+E/WwA+8PlB8wjyp4AC88FHgk65aVMKfN7ggNIlCMwa7ulUPiEkGXsothbxZrZbDZu4Wrcw4Y0Fp8T02r2u8cBR7aq+78gp13LsjGu2I6XIKvc2KEEd8mNCa30lle2GooCPW9t0YGbbH8HfG2Kd0x7fvOzuX/zcdd+66qtcdD1QRBuln6S5Smsdl+ZPmSgmeZR1NQQaxEefHDhzwR0262Pv/oP6G/ebEEEohdo26yfT42PK6bv/7Wfu7te/Vfj5bg9w2Qh4HVBwyGMrqSIVolGBWT6aeE9w1sZAecvOzTGFLk/RvQS8ENyBJ4BUgGRuPQVP2TmKoJyblXIlD4KRAOMLZYacurG+HgUs4THBLUrqBh4WNrb1n6NDBAQnJsZ68GBt2wroY+0/I3ZInLGONUvhCtb9ZeVWVEsWcA7BbZIL2WYNG8mjFGjm2ufEluDrISa/LQaDk4jNyvomE9qHpY12nPvAtZ86ZxbMCVl9DHJcNwiUkOzCcbxl45lJRvPLKToqBZCGYLPGQ/0jpkiC4GR9njX2OmOBHnLDJYNg2grgyqqwvqNMW/vJd0xROKV1HhLbvVAOTkyC8Dohur6Hd4ykr8jVOfykU5ZgjFcD4lJpLiMf3IhEZyr3zhQTCeXgvA0RnMSBVADeByCsga77G1t+qcKulyT9lqOnlRpUXFYpt2fUseJJJJyA/pGfMxT+5g//O2hbguCDssLrW/P1fHGuWbmUm2Ntk+UQIr1pzA1eV9/Z+ZThi7F5xOS3xUBDq9y7z9W1dmgyHjz/fUXONR854Ro7DhkpNvjIzdx8EWWC+NZOgNdFMFnDGSsiCI7MOK/V40IhyMC3KPCfQUBCloiPyE1SFSC+Z6aNbwVI86glzePQCRFf0+GjrsSsvixTElZXol1n+JuJixkyi6/r2kX36OrXbsiIb2p0cGsFbwYCoUoAExG4EF9JZa0sFARyAfmVnBRhrHK3OI2CBFg0jHc8BN23r8otvmWwgYlrvO3keVe7r13LCChL0eeUnxPP32CKIeNc8TN+zCWmSKTPSwFrvpbAH5SE/OJiswSrldtK9C3l58prG5XmoTV1uzf0n4ppR2X4GN9BTH6vA5sRhFr7XRMa3N72Q5qErD+0HDvtGg8elSbKQnyBDWhflouw8T3GQcymcEZtEsFHeFIKjvpImxA2KVh/m5+dETlReonE2qHuR9qmpff+bQWoMNkQbEJihr8C4XdZg/jC4BYIBVfWVoC1mpYjpxXcUtvSrn71lUbsS5PN8+DajNn121jXo4oLgRY9d66LoLneeO0kOeQZsM7Myc1VOgrEVYRLrrLa34dkYwVwPzigiJjgxuImiAM3Jut0PvIx2hrweoAscJOzzMAaZdvJd1x1Y4siVPn8pNBPWJVbnjky2t/jntp4wUuAWxW3PUoArlfPjavWD2GtVL4/+Aj9szUIlVGCflTHNshl1FKKNQJ9vIu0TopJbn7+a/fjbkVMfq8BfPK4L8Ok9LZT592hd38g8ms+ekpaGyHZuGDIl9I2QoEQf22FLZh4kkEh8QVHvgABT4kwousmR4cV2UhwCkm23bevKf+KSUY+Ia4tm276e8OJzGvB66ylMekgk7H+p3InbgWo4nLg3AeymOUeLi41jRfXcHDCBgj7YMXIj+owhNr33Llh5Pet6713U9dKbmGkD4th3bSivM1JIwLWsKubfGk9xgDE48dacvj7godjRf2fYwojblXyLl/HXQ6hUg6QlAiIr93mH9HTrI35dJgNoN/Ag1VFIFNMgQAT1rFvf/UbjZ8FU+4I1kLxgkwhvuw8fwznWtgHwWHLIJcozb4AEiQ/sqS8QpHhVH8qZ96a3ME1/br9uFsRk98mQOSZSK+qRgKhtnW/23f4pGtD+7SG64VJCKkgNBi8ymWStfca4O3BhNMn2T++IgTb7/hNNmenJzVxqSvIXmMjPY+V36aySg/vmtV3R0V3B8z6IxhHlmltvT5Ue8iF37Megu+lLS3iOsxSSgNh2v2P7nLGpgDp4qrCNcZmuxRXpqILaxxhoEUUupIgMqmxtDhn19QlLf6JEf1TI3zI37vaYuKLChQolBysNdbRSM0heIv7Qa1OKUsR4C0lfy7zoMCUQRQRvBEzE+N6fjPWeLbNQ1KHSkzBZH249fhZ5QWGxLfRneZyNCVNUSIPdbTvqcYL7vGua98ovUCFF2hzHGfNCnwmK9EHcFGEwe80omWE4DP9B3MM2muCviZwKM8sPGSOchyN9FCoWT6B/JbmvdVHmTqtydrv9wFDsYdjI8TktwlAGgSzsMbQduodRSU2Hzlpll6bt/RME/VCm9kVTMLXkbnMp7AFGmc4sYik865HrLtuuTS7b15WFZOH1nDhIPwhJyIeJ8waIoeItTpcREqsNy0S4sOF5D/81QhfJV+JNQhKkkGoT82y2iwIpoCEiYBFe6cvWe9QkAXWMte0oSQLmjp7RUWGO69+425//iu5OwmywH0VY/Mg2ragtFwWUI4JY6qucH8SQRsbIBwzfvzucXkFBfJIhDmiCOrNuO1QjlAy6/cf0jLD3gOH7Dor/DDguja4tnAuObfsRnp73MDjRwrEQZFTNKq8GpOeGHu7gxQNO6f7ob3el8i/W1zwa5eQu59DjFf9779DLwZtq2C/C+tTkaJGgCwVYA1iCUKAbGwMaceu0I0Rk98mQCRn++l33eH3f+gO2LHj3Puu8cBh7bKg0k1GfPJFRhAMkcAkCltIfsA+X5VVJsbk4sOie3L7untw+St394tfu3tf/8602Ztm5Xni4xxSELDWWHfBaqV4Nu5FhaWbUNKXJQOTz4iP9QbWRSBXSHazIOQb4jv47ve0dlPb2q4qN6x16HqS9WPQN0g8IgtZj7z12cfu0s//2g123VOYfIzXAx4MyI6OhviqGhqDcW6IeH+4nxLY5eWy+Nhdg/GDkEaB84wVHaxBooSyxNBgxEfqEIWydT1JPop5hIGI5TfQ/UguT8gPokNBhPgox8bfPN/34JYbtPMgQDwrrIOG30E/+LVHa/m5z38vL4bH10X4m6yhdOYXkg5UrjQU+oAcYqoh8TrEhys0HvcbIya/JGChmUlG9RWfunBWtQ8R0hT/xc1CiSUi2rwqaUM9SnDGRmDC0ER0rN/53aG9hee34+l/ZERnVg15dlQseXLnmoJYBk0zHevrNo11QFo1bhlcI7hA5ApBwARChsodldaKKyrlVikoMcFhXxxJm9f14fYcVyANLiwEQOgKigKEaU5+gfKy6Nf9p98zMj6ghXwCiaL2YagQzD4jaOGp6394V66rnrs35KqK8frg3oab+haZdYWHAzJT0IkJ4ygSnnvEP1gtjE3GCuOSIgkEmPDZqYBx0thxVIoTY5kgkMS42WjsMHbtBP4jCKfnzk3XeeOSrDs2oYX4mCOh69AvLfjfrl3+l5fkDvZKZ6+Ko7Pure2Lxlh/Q7n0ea38ZCkNfG0YKKM/9NSmgaWppRRrssCtT2UNFhU5dn1BZuESRn7xGzlf0z5FBSOTEZNfEvjSSY1yy+GSO/L+j4383ncNHYdtwjXZQCt3OTn5NpZRI4M59zrjK5gcjGsMH8iP+pkEr+DapDI8Ft5js7QeXPrcdV7/VgnnT+9eF/HhstFi/ex0UhIiChWBQQkpiI+KM+HvSAZ/fXvc/OyUdq7GmuT70Dajuluw+OhfIgjbT11QPiTWKG7jUGBEuhb6zPpKOX2P7pkicFXrN6zzxa6frQEkgMBnbZnUh/KavRKsqrxiilMUhQlobNs/fB5RmQhwAmogHkgmFeCuD13l5IKyZsw1acy86nqC+aVTVlbdwvy86zLie3DxSzfU3akdKF41ZkLyE/GNj6ku53Cw3o0CiGI6MzFhr8/qC/x6nd/DECszJD+gQ/B40wh+I8SGAkKpt/KaWrk/pZQb+aE0T5k80Lrkilc2YnjE5LcungdgVDc2J3a69uHU512dWScsPJPiwH56RgOJgbgpMCHVGKA2wYxEKMQ8P/vMJhN7gfVpXQIB4fcDuyOr5ok1qqsg5FnXQhPFOsTtEcX6Yu2ygBqJIqAqI/kgWCDCb2Hj3D3ZWYoGZP2DLYrQ5tm4E+KNAp/QjmKxXwKszaw/dm0IiS+SkkqfSUNfUo3E7ptX3GMTZiM9XXJbbWk+2S4GQVWscbEJMfOC9b/c3Hy5GUnj0SCOAI1zHf2aFW5H1tDY9Zxx54X0xgJaVo9phihvzElqkVLRhV0eNHY2GDciH2sQLRYRY5Z9HR9e+UrWG4EsryJhPzeXVNSBecZ8QyHFaiXaktQf5UfanGA+EBijYBn7TN4TemC4gDAo53mH+D9TBn1h//G7cYWyNRTzGYUWK1hpEIuLqrRDn+v3G6LIh0xHTH7rgMlFyD2lyEhfIIyaKE6eI8eGSStXQ0h6UYT0emDchy208szCIzePhXaSsslT67z6rbv37acS6gnXpk1U1u8W7VzCxzej0WkrmD3e9Ujl/Np9bT7AJBLp+OtGS56fxiJYFPGN23WhPUcB5ajoYyzppoPHtGhPSDfwLho9XB98v+QHfUZ9xGlTCu5KiD2+flGh67g8N9MvMV4NSAdrhjUvrL5SswKJPtRruil6mBx2HsEhFMAm+IX7F95LlLeNQD1P1tlw2RMVzPo7xKfCETYoNhw2XJ+NG3L3ID7mELt7sHTwbGzYk8ImXIP8durIMuaejZvCOvBU64WstWMVUtYNqxHXMevlisq0i3nBFQqi9t9arH1/cOlag1SEaLn10z4jw3LdL0hXHpp4OSAmv/WA7xyh3HH+e0FpMiO/k2aVVEF8RfY6C//RLKQNwaCl2UdJEczyrqW5Z9Nu9Gm3e2pEB+Hd+/Yzd/uzj7W+h6VHCsP02Kg0SyXgblLAowliGSHMID7qj7KYHmXuS4gY2JmdtAcUAazP4Z5H0oijABdnxzsfuqMf/FiRpyUVlTZpc32/JrmGUIjZj5e2PTs5pfJl977+ROHqTG407RhbDBsci4vzcq3j+ahpahMJcTskyDknGBuvhN1biC+vgOCQVd0/xlAYqKHglw3AeM3JK9D4YZ2YgDNPJoizjcFcY+xgjUFIKJnhLh8Q4WaIDzCPRHzWL2xVxDxFeUVRHel94ueZjW08RQSm4KIMvSciweBzXgvBvCG1CpcyhEd5tIb9R+QOXrG5Qh/T3yiqux0x+a0B4dxUZek496GCWlqOnjJrr80022qtTflZHeScbWaO2NtDssPKQxNkMOI6QUPEqoPgsPQemzba++B2QHZPlWvFBHoesLKZC3gRaIEQJy7eupYDKsnmXSNopDDLq6HJav/wftZO0Ga5VtY/EACvhH02fUmQEBX4ff3OM6pckZePYuEL9yaD+tHa0tKC9d1jH3F60/rs4W1F671pIHwgh2KzinDt1jS3yXNAMYT69kMmkKyZskEQ1cuN4giMuwoTXFjHjEsEGvf/TZdmC8U010EeK+tuCHLuRW6B3/cvEnT/qCHqlSc8KbOmNLEDPMWrNwJ5fQS4NB065lqPnzal7ZAfDBGgcWOXODczZeOkX2Onl4jorvtJSTca/PyU+5Zm80PuTusv0osYm7jkVWrPLE2toypdwojQyNFfH4ToP21TCPqWxgdpTq0uq2YobupwI2AsQVy/u7XIe0x+a0DYMBVaTv/kz13z0ZMmpDpUSYEdF/ZkrSmqvBneYRxysIlHIAsar9fCZtxI3xPlyakG5ZWv3YOLnyk/jcV0reVNjsnN9PwCtgZMTgQq6RkQX33bQblLKGCczUVuNAGD36PJZYILzZKUCkiIiLlXAeFYZBYeARNs4Nt28pxrOXLSiM8XA9CnRviZwbw2wTEnrf3hpa/MUr6hgKC3odoFxFdkpMW6VF3zfvutR1WsG8LDxUsyP4UReP7lRnBVVWOrSrtpl4KSMt0n3MnJXILbDW6Noo8XF5VjprUlGz+kvRB67+vV+nM3gsaOgfLqeFJI2IYYBh8/UODSRiDZHsWJdXjq5dbsaw4uzL++ETRubA6SYsEa8UDnAxEf6+ZR16qjw8hvmb6ad3NTk46NnMkjRKll/R4LjJ7Alcx2ZqzZefkQFJuI8Hs2hidAFFnuT0mVL1LO2CwsLhPxoaju1pSIXUt+CGEEPS4UBAw7CRA5BvkdevcjaetYfEoapajyZgYiIzhsBGUEboe56QmtL4z29vh1vXu3JMAhPHYgwHpK1Ba0Cckg3WriA4peM40ULZCgk2qzNnDN5JnVQiSmJuCrYC/qp9nkgrSo+IHgooXks56VwsSuamgRESD89x0+rp0uVPOUT4zyMzltxdczxMWqaL1LX5jl+UhWA4EZOwmsPG1fZWTHmjCkpb0bWw9IoWgwa44GqdGq97XKZVdtBIdb6oXGuDOFi8Afxh9pKIpitHHKWIUkCFQikk/RkmZxm3jTdXA/dwKyZuze8v1cE1Y/BF1WS7GE4D4G1/RK8LLuNRGRRP0Waczj0idVAJbypei+CwozsCyBAkFuX1lNrT4ryhQR+ZniGZYzI10IS4zv3nLFwi6IvkJxUYSozWfmPeROoQkFatk5jGMCx3ygzKzGNmuDMKGUCZCkO18JyM8ayimlArH6qDFM8Wz6l+8Mg1+4jt2EXUt+EB81AdGC9h097Y5c+MgdOv99aZNYgApPtolsemmkSfUCgrmviWaanFycJiwICsEqGjCtD7IjyuzBRaqwXHaDpn0SOo0wZy2PSbNTwBWC4MWFRaI7aQ9h4MmGZBRMSP3O7Czvnh0b1SQiymy9RXX6dN/hE27/mfflVmatj9JZUbVcvguPLJOWwtWUpaJw9eMbF6VZ03dU59hJQHi4Kck5azl2VuvE+0+dd60nz5pCdcLtbe9QMA/h55TEKzEygyy8C6pIlvfzxnoQuVpmOZaVu7IqU8zq6k1h2KeCBJAohMrnIcgAAhTX2k67r7gXiyr1taDoZ+4lZIhiybp5UoHNuOE/O5VQfaKGGTv6PTZX/NrxdwdG00EfeU1hCdbhCepgjm44T/kua0ZH+nzGjaI8L3+lcTM7NS6S2klAOiiKuHqxBFHeWIdU/qNdI7nDUnCCa6dtFiaCEsjONWXFyE/KlBEigW9UitrIY5OJ2L3kJy3azH8TvEcu/NCd+f0/dwfPf89VNjRJKO3Jpiq8zcqIQvkFrBmsnvyohcn63rxNuh5pmw+vfGPE97m78+VvVIUFjZe0hp0mPoB1C/EVllVI6JZWVmodUEjy+9EqWbSnQXxE7YUl19bb5gjLkujOY9/7ibYt0sadpmjoeyL0Nf2JXJ21z6d+6VB3l1l+nvxYxN9p4gMIfawQ7d34zofu2Ic/kTu39bhZJx2HZeWV13niw4pDWOejhQeBDwUcrSkQwprWCu1esK1NRX29fb4RnxHeviOn5RbFQsedSncRGbxgli71HbEudhJYKVMjw1Jy6IOGA8dMWOO+zrbxEFgsyWDjh/OpjrK8tGD3178PxWas74lI4GW0BHtkEshBygXBL8nGD3OQeQlDrljD40Ig2d2vf+dmKVW2sLPbA3nim5TCyDZPvfduuAE7QsCe9ArNui/XWngoR4TXuUR7L0o/qSllNdUivtIqs9b35CjwBwV8N2HXkR9aDq4jFsypKuJ3YTgnVwoCh8Hhd1+wk1McaM8HqX8jPn0GFYvqT25dlWuu8+rXsvoIDpHGOTn+RgT2WuBSgwARPNRGJN+PgJQofaDfHAiW2akpWQG4atEiIfQQfH5pTZ2CPvafftf6/Iy+Bwsbt2nSrg6+w1fmYDPdHiO8K6a5f+n6Ht7Wd8k9vM2Qi9MEEuSDl6DjrFl5Z99zbcfPGDEd1q4HuNHlElQAQxA9GzT9Tv2z5rgWLz+3SmUO38K9H4kSZKuhvIJ8U1TIz6xXqgrWF0odpLSTVgy/tay2QdYsFh/eA9avhPV+41pwXwMoatgmEMoTxMdaXOjKZd0KJYn5S9oREdhYv7jw2DFlw69h3Oh7gnX26WeytHzq0E2RLmtzyS92e8FvpKEAo0giH3DHokjqyqwvWDZAsdDPWdN3UZF4i30gVWuyWF+0zuFzZQXavaSPdoMLdNeRX0GxXzMh4u7Qex+5Uz/6JyqpxfoK2pbcNQyRVOeBvSUkAd6L9YaPn2LTrONh5d367Jdy0Yn4Br2rhcotXjq+OTDh+N2LZp1S8YX1Ktac1AfJLi34zbivID4mEqRPjhO/MwQlzLBYsFxajSj2HT5mwtrvEO5WQ7X21aBvfdd6t1V/5wPT2j9xd776bSK3cCdSG2SVmbVKRCZRwSc++kNZeU2Hjrjafa16DQsuJD6VukN+B335wq1er29fep3z9R77DA4Qn3dXmTJRVWXf2WKE26R1QtYcEZxsNLyTViDh+yI++80QH5WCCITRBdOSwBMTv22P+g7BC/FRtSj0gih8v6DILOUS9TdRwhSggPjkodkIjJ3gO8jtY16yNv3k9hXX9+C2fYffmeFNg9+KO5/iDJRNG+59LPIDEJOWavJ9VR0/53zbDPi5rBdTZJwlDuYnbnm+n+/cDVsk7QryC4NbsHCw+FQF3gQwG6YyiXAvoFWSIKtZksI8kFBmBK76+ptoTaQuEKWJG4PIrqd3feFn8olIfmVgIaS0oP8WTDp+AFeB0FH/mBVM8rJ/KYJg8Qe5ciAzItvY3w/t2r+yaoK6Vq7BFrO2KUIMUTChEVxJu4DvsLZqDIBQx11EdCwKBcrE/Mz27tOHpo1QZpxgbaA4NbOFFQnW1liPKzdlAYsQF5yCFOg3WWvBh7wO1nwGioqEoI1X3PPejVrq8oqK1ZQ+Y/eRa+Bc6lCikHh7eXuAxwBLlJxP7ilbZEGA/P6k4ycAo4RrJjGbCN6xvh5VNuL9jCuUCdzGFJX3m0WfMkWt3n9+kp+mOcplZK0q4IQUB7+h802voL0Nc9CQCIgzRU4VZMap2PRM9w8wP32iPJViVtUn/sfRdEp02E9mXHPfkH0U7mDtHa8NKRlhsNqWBwG9RdgV5LdHCbV+LcW7Oj+S681r6lV+cGmAWYs6D4K3MKlMxsh1ovJeNrl67ppgDlyc1JnsN8sP3z6WXhhZ9TaB38Fk4jfUNLUq5w/XnZQGmxwbTqygH/w5ZpXYhITcVQHfGkCzrqhtEFkQVIRrULlrZjFI7kQQXlp+XVlSlB5h6SgUuI9Hejo1Ubcz0hFXkMqwWb+EAS2UY6traZerEeHh16o8kUf5TVuBxPcYyZCegqsRkkaD115vrCsF1XY07rZLyNsN4h6z9keQDn1F/U+eh6j9DYwAjSWiPBckdMPIUQpfI6hJGWk6fEJRwvWt+xXx6n+/3v1K8PXM0yxTnrTG9tjX40Q5RRl9W8GchOzwpOACZU2bHUuoHUrf8Pu918buv7XXAf2rEmj2GDnp3Z+zSdNO0hm7gvwQyAgD8q7YNufkD/9Ywgvik4bMLUdLTwGaz9Y8+fm1hGmK3fb3ugeXv3A3P/2le3T1K7lViOKCEN5G4gO4fGS1zvltjmpbOlxZVZ0Rn99EU/2zAcJXvVumQAJ34PEDRbXiymFNk33XDl/4yB393k9cid0H1mpsykbiCAkua5TCYv0UrT3cqgnhtd0h/gSnQHyNB0+4A2fec0fe+6FrO/GO9VGN3FCh61aXsU388h0EQh8+4/uJEGW9lgLPtc0HtDZGYQQiCQmbf51KQMngiW9aih95ZNVNbSJguSptPHjlMjh5A5DcTeAUk0vCvaxKhBoSFAFS7afPu/q2A4rIVrRr0A8bwc9RHq3IG0HRc8bQWK8vRv02ws8bUiSmjYD6FRRDTh7r6ljzeCFQMqiUg7uYvvNv9IfIYPzY+yG+AiKPbayzfstcxkLG/eyFXeZhV5AfVgYbpB589/uKyMOtx5oEQp3/Uhovfm7qiNB9Nu53WqAUWee1b93DS1/KKhl+2qVgFlw46+W7va2oNKsMdxLpDgguNPmkg58+4RiQlN8LbdDNPXsmgUz/U9GEjX8bO45oYnnXIJ2oT3g1gn5GEGBZUwEHd2fvPSJko9cR3QwYI/QHVVeo77r/zHm3t+2gBDtRmQLXn6rA2WqsvT12LVjsEBLkw1oORxSbZSlfq9tGgoBAKbwsWCRKrK6slFURpY/CnxFeHxa11r56uuzFbNd87JTczORRMqYorC1E6X/TElDCNH5sjlIcnrXR9dJx3lagEHBfsfwoxTbS2628Vrm2Pbs7NhoO3aSRkTidgKoVkSGKOtWTfB3VXCn3mVYJZleQH3vxHTLiO/3jP1XOFcEcCHbd9VQsPjtVZ/MPzQYiiep9j+67xzcvufsXP3P3v/lEk5UkVtwG5OxIPU8TsDaHO4VUBzYtJYFYkynCT2D+EeOxOO/X5ZYXl2TlUQaLhG+CXOpa2uy8IBE6Wd/by+pm62ciOdkAlbzIm5/90vV33vPW9DZGykJylCNrPnra7TeLg5J35EP6VBisvaBb3pbbi/vTiA9rAMsPguA3EP2pIBg7EtW4ncoYhEUNSTqFSNSa5hYFpaTST5A3xMla5rAJeLbwQrjjNsfljMcG5SO8B8lhJ9kcJCCL6OA7X/xabk/cqemkmHKtrMn5AhlPHEXvmRe4ugnkg6TwAHhPVvCmFCAvgimllKlDYeK+5ReWSo5hIaeTohAFGU1+hSbEya+inBRFqg++86EEMYu7qowRlfg4Taf6EYUQ0QDs71HgBXl7NKwR3AQMEu9m2sZ1lm0Cgj07WAAneZscM5NG9juS9xVWH6eGOY10Gv1NoAKBIrXNbbIq1ZlRP8/awty09iQjcpak5EdXvtJaxHYQnywW+/0knNebldd87LSiU0lgr2/tkKtN5I085Q1v2e1FUWFs5+DqLyrR+g2uM8roaXubhfltFWKsffI9XAcpGOT/yfJzPow/CjiPpQoiESeGBrVLAhYlwWkEGnFvwmT6pN1vwwzliS2GUMgYPw8vfS6vQToRH5ASaATO/aTkIWlUPmjF76iP1YZXhbVC+tB7V/RSZJDywGf4e8A6crGCbyg4HqY/SKHPAGQ0+eHeJKLzgGmLlNGqMauDgYLwiuzutMGDQKch6Vg/QYvuuXNNQS3kChHFSR1OtCPcS+mMLNP4iNpDuBCYgptPEXV6MclMCl7GZeKj0djypkaWNq4qXwS5xF6LxhnISr6aiUdwAoFE1A4lQg8FZDuA0EXQkjrQYsRHQn7rsTMqMK01Ji7ILl7XH2kA7TAYq8F1+TU0gnBWZclDSFRNYQ1pO4GLGqGM1YnXBQuNfsUySTKCPPgNQUPgkoKE8tRw4LDGEZ8lIuWEDe5B4jNYj58cVwg/xc+pARt155F0AEn6M5NGTqZ0egUjS8or1jOwLgj+SQ30c35RoZHtjJRZZB+W5tYUAH/zyEjyk/Zrg4DkdaptdJjFV9vcqvBrzHmsjsgGWTCBKFHGmgmuPNya98nb+/Rj1eMknYG8vXQnPkCVfaq04PLA0iGRW0FB9CkdEQk+6hOBixsV4iB1Ir+oVIJQAitZ/9tXMY9RXln3eXL7hutUjuQj9fV2JbQjMLjeSrNYsDQIkGK9GNImQIfrTgtj3u4VUc5E6xYYaVNInKAm7TH3pJMT/HlbDKxxVSmyTiqz76SpaHNRkQSyEOHe+zkXJNCbIsLWSRCfXM4MigjXj57CZ/igkUFtLYTyFLrMMwGkJVDggd+HkurTFgpcUXm5V9aAdULy3loDuz9YfeSSFpeXGfGx3scmvvPqt0wpg5Zx5MdkKa2uV9QiARZUg6g1i4/8I8oGifiCczdEMPkwU3CPLNgAIEKMveIemsWHtTfYTRFnQo+n5ZLICNiPJieMQBfW6djnD5nvo8qCyhLJADvY56hslVmQNISwAl1sgibtf32Jj0BF8yc0nWCiLmuqiqPI2e1xveAmVHCUKUwcEboEjeiirUUaO28DGL8cdcFsObXHzRspEZVJQAnEyNrsdkUgo/yw9yXWAlvpJBLfQYRODMcZJCqhbmPIR9aS1B4NoeeAOYrShJLKWt9wT6f6IZPA/aXX5mefyUqDsCigQT+iMCQIMOzYJFh72uICexGy/dGS0i3GTPmUcEwLLfDVyDjyQ9uB+PbuP2LEd9Y1HzupdSsRn36uIcrk4+7beGIfrGW7+ayZQHw3PvmFUhmG2HplqF8uAaKt0n0gJGC/A+EICVCsme1jWD9CqVDOX6S+w93mrQ7cp0SgYfFF1tiDU0jWJrKt7+Fdd//bz92jK1+K+Fj32K7+JkCn453vuZMf/bGCXViz9EpTGt5irlf3ggCSXClokBHrcngpKMYQruNsOex7+S7W2VTdx8YRblAhhX4U8dn4yzYC1VoUkzIiID6GHMsRRGN3376mKOxt2cHhDYM5y1quZNKcEd/8go1X7+6uqK1PTCr9m3wKPj/H7hWKDPET5AFjPQ8+eaTJwP1Nv0nxHBlHfqzXEJxAZBhh9bUt7apcoBqLUSK8uek0Oxni075fPWw0e1NpDBAgbiPtvmDEt63Jw28KTBqSpWv2KrKO6K/C0rLobivrQC24GwH6HCTqB5okClltA+gUnbYi4UzeJK7lx9cvKmdSNSu3ob+pPcpvZbwcPPeh6zj/oSurJIG9IJq1+haDe8C9QEByH3D9kwPIzgbPXfVb/wt9WP6M1nzJ86SEIMDqjDIWgNYtjcGkODGGUsCqYxPZZQW3PL55Rd4DyIFgkVdtl5Su4N6iyJAO5AtWLCrqllJozFv6gftOMYRoPe+BvUi6Q15hgY2VOTdpikS4Xqo0rjQOfsk48qPihiqJvPsDLZKTdIvmLnmZbH7bqGBO0nCrYfFBfFR+v/qrv3M99274OpLTUxpcDLhMBZYehQEIUiDkvKy6RvUbwaa5J8L7pK1bW11dkrvTR9JeU5LvdlabwCqhbFnL0dOu5fhpbZZKuoAXujYgtp4bdgyhsOPImhCN7bPY2YBdIbAQtmUs2+cyTwgeQpHy9T+zFa0Zff3YEJ4a9R5wvjUIjh0vhp50aZNoooRJl1HKR6YsU6yLVREVio1fgzUFx/qbeZxYB0yhLyUTTQlZWmSrsgV5cTiSa7hdgWc7gYwhv9DVRtUDcvqOf/8PFGzBYjuWRySBHd7oLF+xhcCP3vu33bVf/8x9+/f/XZUmcC0woDKZ+IAi9HLzZNmyp1x1U7NcgPTjpskvAvxEIyF5XsRHXhb3QDVRtzGhHRdv8/EzrvXEO0Z8B1Wv04eQ2wVt4+/dMdhv4PcUlHoByC7mFAdnhwNtnrrVGrwNEhRIrBHyDSn4nY/wLSw0CxBPDBpOcO4WI5zDCOa5Z9PKE3x48QsbS1+IEDKb+HyELOucKOmSY3aPWfcrr6t/vu4qDSEawso7vEMuULuPSrJ/2r2tc3K7kTHkB9Gx1rfvyEkFupDagIYLIZooTz7RNBY4yUd1kq9HdOFD0xZ77t5QRNVuAsKJLmEiaWdyIweEGD3kXZg6bWthn4kgZsJSw/DxjcumrX+jAAXcz9u5TkNwD8FR5JFhBaoCkHZlCE7IAHhScG5lhU2VhwMLaEWpANsZvo4FrZll/xBIRXFqPy+5IJ2ydQh+I0fW+nB5squKT5HxtWZ3CzRPDQTA4MHBi+EDiLJUwUn9FGF8h7eI9/IXijGF+6kws0AAFa+loULheycDUFxZ7RoOHDHSO6EtXvKLCoz87IZH0TCZMMFDFnHJcxvs7nS3v/yNu/ftp260/0nw6u4BLg6Ex9Djh6quPzMxqUlEKoQmzVYjuAck0M7NUERg3ARXn/InZXGb9rqdIBqYUmZs51RU7teIGTcRZEP6gA62hvZObUyfvH/YrLJK//o2gbVbFMiuG5fcWN9TtyTPCTHFJog5Qf9sDfQT9c+qrBI2j1YZvG0eP28jmMOTIwNuoPOu1s1R5rkPk6ODWloIx0MywHnES+Tk5GsZia2kSGGRNa8oep9kn27IGPKj0CvWSbgjgaILpfkkv7s6w/5hAZccloHO+67/4V3txjDSQ43OzN/b6mVgEWBpIUAoqEuE3CS7ds/OqK9C7XqrwOdxuyilxHdRgBjtktqFhKUr0GWLgTscFyDjhWo2rGvi2s0vKOJVTfqMYr/g92ABIMSYKxA+lWC2EwS9aHPjvidSpNiZY3Z60t9T7ntw3lZBtGrjl8owg90PtW6P52C3gSUL3LxESI9a31ONCguYXVHoG1K08LREUmZt3BAl7GMBiAGo1fZneEnIgU1HZAz54dOuqG9ylXZDCkrKTXClmMhuPTE3M+X6u+67+99+5nof3JIQRmPciR3C32YQrk6IM5Nm9tn4lhMfCMmPvfmIpqUAMRq7NvvdJmABob3WNO9XzU6KcOcX5tvzOfaqXVAmEZ9B3Kff5Hft9ru/1z6P4t0mhGt/FDynusyQWfOU5lpanNM935KxxPjRLYP4WDNecVPDQ0qToTrQdAZVdNkMUCJZysHyYw2U9ToVxTYFhHsQhQB1iv1D6kxJVbWrb+/wnhKK36ch0p/87K7Jh81krmvQegJFXldXjPzMVI9GgDZh7GTWPYgqfHDpc02aqeEBtxDU6dzNmDHNceRpl3KkZqZMg87y7qoI8yUFSDSbAjKpNT6KCLAdD9b4dgGSI70Bj0FlfYOqYuQWkE/GelQGwnexzRcsXtPea+plAZKM7tNRtvaOhmA9aHlxXoWkvVVP5C65dkQhBidtBYLPWlnGa7EgTwXEN0hq0i60/NZCKVvWD6x/Djy6r0hq5XnafUllMjNE2DsQDwmeg5p9rb4IRBoircmPCUtQC35n7ddXVuYKS0oSUXrJeI8bidYTBljgkkHAD3Tec1MjAyZ4dzfphcBlhcuEdYOJwQETLigL6NiGiJPmVdA9ILrW+pq9yiaHh+WiIQwfd+t2FtHFNR5uW1QS5PQlFKZkgydNEf4siD+vIN/mTbErNIuXdc7cgAS3C8wzokwfXf1WkabTE+zKsayxlIoAXg/hWyFZasESoPZszO9EsGxW53ZVskk34MnC8rv91e9c3yPKvE3JUtagT3IPGDuchuqLqzMsW7jdnoPtQtqTH5uiQn4kYWN+ax86I0R/p/x56yK40QhfcoFwi4wP9LuRJ102OO4ppwxXTYygQsa9GyrmzQaXuJQ0YTQNDBtMmA0R3AMafT0D+Zm2jouVQBd2ztjOZGQiDlkrrmxocsWQX26BI4NF5Jep0G/zO6znFXryQwFgo2cS/beb/HC3kXOHACbnDisNr4uUoOC8TYNxtLgg8mPHFcaP99xQlDl9k7G3Eljf9P2dL34r8puZmlSQH8OCe5AUmvZGfhTBqDbyq6qR5yAdkdbkR8UCLD4feVRl2kiRD+lVnbuNwX0OLT82RB19agK3p8tNDLMJK5GNczYoYm0R0Be4TXCTIFCoDkIQirTp15BYeqv9s+pWVHUfwUgjDB8XNISIYNwuEPihgJeKaiVgswboySHz4XO3sqW1F5nlx9offaGk/m0CVjzBFxQmVzMFU4EXSpS2jtek1Kmpw97HfF5cmJPiStAanx+mc2S2RhMd7PyAok8Eu4KPTN6hhDDHwYbdL+LjQZaMDgwOFcLIi6M9dxzUjiRMm7qBROxR+DaS9hKCCWM9oC1zHt/Xeh+PY6wPFseZOGN9PUZWY/b3gu/D4PXNgPcinKZGhhyFh1kPovzUTkCeg/wCWX9+c9RcLyN3kZxk2aC4vFIuLNbNKYW2bTBFhjFEQW2CLXBN0uaeEU3tO/11xhJAiFO95un9WyLYUKjHCGD3YMXmLbmdM3YPSCMaH+qXe1iyM2wbgJeRvXgKUJ58gFj6Ib3Jz4QVu47jtqJqfIL8ktw8wc4JT4PwCK0f7H6UqFsX47vAEkNosS5KhQcCgdSHUfp7HbBqyHoP0YCsK7IYz33YqeAEAjzC0G1cN9ruyrCLuE9LBLg92TaIiGnC2bcLutdGftpfD9ck7u2nj30QlfV6SorrS9AatAl2djqH/BhLE0Px0sXLCOfbslnIKJn0FUrCnJFf5HlsN0rkZ8Qn8svN07jZroCp7UJak19W9h7vtjHN3UesUcHAXkgmvbhHDAKzOJYXl2X2MxHRQtO5XM92AxcSayndt6+6kb4n9rfP+dsU7H24TckbnB4f1yQkJ4ukZPYo2wkQ9YirMy+/UEFS27ne9VYhnCPW2NgZqxe3L4oA7tCdAMFMvaq8ctOE74Bcoj7x3ZDKJXCuNSJHp8fH3KQR3sRgr+ayCliTSxhjXWDtEX07MczuNGb52fCHvzbqfg0b+weiw22em58n5ZFlpzx5T9InUjqtZzvrE7kF+J49+TGRuTGaQK9CcHM5h8X2paVlCV9K9eDO2ynBm47AhQQ5sTUMRwKFNoXgHqCBkgAdRtpSTYZEaPLBdgJMYMgPoQ/5pdPE3QowV4h4xX1VWFrqyQ8JuAPAc0A6EXln40ZYKKErgeYq4at/koPTENiMTVzyrNmPD/S5cZHf+LYGTKU7iPxkf0zIL3R70jaEv0UaJ9lmfOTkEzRV5opImTHy207PwVYjrckv1D7Y70uCy/7m3kSBN/+x/FiDmFONOiyZWFN8NXAhEexC1RsWygmTZnfnVANfdKqNPCLzCHggmR23J8EQ/h7sUGQek92sPQgQEkg+8zMH4hkDv5/frj7YQdcV+zSSioDlMW1W4Oy0L8KsGpFRL4HzgkYlEyw/LEq8N3gpcMtvZ8BUuoP5PGvKPgo/+X669WFLAs7FS6ANq/PYPR73Z649nz6UktbktynYpJfyQhUIE9qQH0fIMMbGUN3NqUntiUbU58zkhJubMbKyPtR8iTBpBCaOtaUFNlQdTOT07Xwlnef7DnL0det3Cd7wT1Xgi1n9RFbjnsQSVE7eJhQfxhJRnlh+ilxU9GiMZKCvUThoeGFS1Xs8AWIBZivoRfMojaZQ+pOfyCxgtKgQ+/k1P4hPOxLHSApSP9CoCVBAW8RlifaoneyZCMF5ScGJ1hCAaOmUusIFIwtyhwHhifhY64r8AzINfv4EK247AlV9CYJfGFMEXEgIp5BepGEU3DY+i8/ZUc9BmoMoa/qN/lI6yCbgCTBrjdeAlh5Ia/JThBcEZjdPkyaq9aYbhrsrRya7QnXTSWV5Q6CfCkvLXJlqQta44vJyV1BcZH3o8+Mii05OtMYaE1GGtc3tSlUhR3OngVtMlj+TP/IPyBzw+1eX6QMvAHfKA8I2R9RVZSyV1dS5sqpaBU4Qwa1LiHAZOs3+oVHSkPqs1PclZSNGcmTn5amviPLdzM4M9LsPGjQrHiUYEt2h8bMVSG/Lzzoa0ktp4kJ8HIIkXx/okBNoLTE2AutCYVGBkupqV1RR7vKLi0Va6voUxz3lxMqq6z35mSDk83cWhMd797eqXKTRxN0q6PdjhQVzaKfAJtNFFVW+RJYpQOyqUWiCWGMg6m0Ixhy3TeRHYXtrbLYaIzmQfZAfFbKyqYqVAsKpguK0tOjdp9oQOY3WWNOa/Faso3G74TIj1BlXSugGSQbOoRJMdi4lrspUFBstNF2359gJYKmxhUnjgSPWX40+MVzujhSHEQLL5kh2Tp4EFZp/ed1eV17fqBqbWAU7AQR/GPBEHdfVVe9y2w1qkH6j/cOcYb1MLmzri51SAMgtrN3X7urbD+r+k6O7ZxMeGF2t/UOVESJWS6uqbSw1uKrGFm2+vPMKVfqAij7ayks7exR53qJDkw0BbhFKU0B8uJopm8Y4QianC9Lb7Wka+/wsdTnHlS9G/b6kc8durJ/f+KkJdffbc9S1HXS1LQdU4DfG+kBbr9q7z7UcPa1jbr5NmER/RodOt3+wvPMLC43w2N27QbupsyUVFsBOgKAngmy03rQwKwtQEzs1+Zt+CH4jc4U5s2jCi+282EFjp6IjyQtj8+mmgydk/W/a88L4swM7ceQZgRZXVLjqphbXePC4SBCFLcb68DvhNKqfUPox/JPOZcaNHbzHBONjwS2Y8TE75QONdtJ78LpIb8vPOnp+9pmvNWmaB2a3plDEeaRUCSNAqsMgeNmig1JPMdZHXkGBqzCSajp03I6Nqu/nmSxFILCshXmasrztc+tbO1SqDtfqTgBBz1oFdUrDYIvNyuB0Az9T5Le0qKoopJnQB9sqvOwLyQNj7bjULHzud8P+w1o/lvdgM2MJBGOJtecis/6qGpuN/I7F5Lcunkc4U9gAj5c2pC0s0ZxUC85cD6F8Za7gKViwMYPhMW8EiBcuJr8dAi4rrD52AZgapUAu1dvtBbt7EmK6U68GN5rzi8oqXW3zfq094Y6JsT5wU+JKYgfn4rIqlTWiD19HaOn9NgxLqmpdQ8dRs8A7dsz6Rnslv4kQe09+uydKULfN/lmcp2TdmEqBkWu3ncILgiK4oqS6TksMKDxlNbVyn7P5tL8of26q4LfQWEcur6l39TaO2G08XYsubxcgPVychSbzSkzpqKhlWyK/M0NSt2dCprIFGTmCE0pVSdfNvtOa/JZMa6UWJ/u/TY2OJMhPAtVu0kbcp3ts/3B+YWmlrD5PfrHl9yqQxEr/sP8dBAUZglfNlSjw92qP9gVrOHDUrAGzvndIAcHyw23jyW9WbvSNxkzGQIPf9/3CPIUGfGWUuWfbm25CYBnBFQS4lJvQ1Tq7ERTkxzY5GguvAd7vg6jqRH7sVJGTm1ogR6YD8mPfxkKbY6yvY/WF2xJBftHugSmNC3PyFoS7r6Qj0nvNj8V609jRPtBClHSN+R1qIglNZR0Ek9/ZDac6Aa7Pyr2N2pmY9T8mKGkQMVAOyl11k/VLy/5AU6cWJtUcrHNfQ2DprfwT7A+GIEQg4lLFZYVbRpVXtgm4ySmBRb1StmtiwV5KU8Yz4KrC0hdNWcRdNWvzBiWSwIXtXPPDCvMBU8fk3mbn/C0rK8d8tksnVQLBLmKtqdOuL4pm3EQofyYCkmNNtO3kOzafvaeLexClLJmmhf5Z1VLB5MiQe2ZGR7oWFUhv8jP28lXiZ6WBUCmeSYwW77IiSGUmjB1yFSlWYhOmzu3df8i1nXhHkxNSjOGkSTcdOuH2HT4p4bUnZ4+Ij/+kQETo6nVB/6tlSdHgHpRW12jNBjc0G8xuZ7Qe4f1Ulhns7lSNQwI/FLiayeQX/DbWa6jOM2vWHho8bWmbAxbYQQKvQcuxM66muX1LI6v9OMKyMfIrZpfxGkUyltbUy1W/UxHEbztwOyPjjr3/YzseVm4lYyLqkOc8iiEgb9kNggIVrPmlI9Ka/Bjt2p7DLD0CXii5NcXuzboZNhOi3FE7DQGLNYP5j7uk9eQ5TU4sHl5jgXg3gwR0IvMaDh6T5ceeb1uWF2n9H94DCizzXSge9e2HZAniat0uYPlpi6YnXaoxSeCHhD9SdIt+3lsF+03eWF+Rx8RbfONGfJPa8RyPyXakOhDMIpenkV3V3iZTok646oZm7+7cStils67IOMJ17j0JjfLi5NtzuxlYvvlSCupcg5Hf/rMXTMFss3uSer8wRlCWRvufqiA93oN0RMZIdcpkjfb2uJFgfzAmuVrw+kZgvq8sE8pfLMHbdvyca+w44qr3tZnmyMTZ4kmaZpDb0/qlpqnVFZZUqL/Ugte3DMY7BUWlrmZfu2s+etpRrQNrYbuA4sQkZkNPtsKZHhs3jZaSbYv+B0YZPGkE/Rz+WV1RPU12zUd7h/S3E0RcskZcxjpffaOratinVAfW48KxtKXg82zys6a115QoIrl3+1o+bmA8Wgfe+cAU2cOu3CxjUorYCYf+SnoLbNxg8fmKLktm8Q27/s77bsgUxxmbQ+mIjCE/ak2O9PW4YZvQ5JxkZQWbY0YQYKwVoPBDfiTHtp44q8jDGsivul5bdexmsPZGv0CAhSXl6i/Nlq0UWkxAa1gH9Du5hJSr2s5oveXlZZEf+78R7fhsPCA/rRkHW+tkGGT5rS5LQRzpfaxdvNnRZDuRE5JfjY/wrGpoUkoRa02JsbTFwCVP1SDIT0FUOxRB/LZC5HfyHddxFvI7JA9OQUmJLPKk98DGTDgXID+UQ9b7BroeqCg9sRbpiIwhPwIXRno63WDXfUWuzc/M6iZFXsOwm497k9w1kj9rmtqkKbWdOOdqW/bb5GWzxqKtWZxPA+CGZDEc6wuNvbSqyoivVOujIqrgvK2CPs/+QSAWl/O9exWARNI7UXss1G85jG2x/ohWY/ywASrWkN9J3saNzQ4pUJkASI//gsR+3FXspTdoAmy7NfeisnKt4eI6Z82YfFG5s1OtDBQBjCM/NrOktO3mep9hRSYU+cZDx9y+IydcfbuPgmVtNCsr23op+QCXB81uFWlB7L5BahnLBKyXK9rTnk9HZBT5DXU/cv2P7rnx/l7T6AlfJ/VhJbIFGIL1LIIuOt750B08/30NHgiA5OvtjD58m4DFRe5dXWuHq6xvNAFWZkIrTyWoQqLaUtjnYfmRAM06RGllhcjPV33Zp4X67QRu8+Gnj02bvWcW4LA9s+LY6CGVcfPWAuEVPGQ+LM4vuLHeHtd967Lre3RH657bCQpYQ3xhwNS2b3iqsZSlKE+ihstZuijafd4bAvZYQth/+oJrPXZWSzk1TS02l8odKa1YfFFczgnyW5hVYFh/5z15S+anJ92yEZ/2YExDZAz5+S35+7Tm5xdiB0yjtZuztPjC5N8QDAQNhqwgwvG4az1+Vse61oM2cRukQbJ4zMJ6JoPoS/qgrv2gXFXUTczOY8NTGzIRJsxmgWCkTBXfV2mCi8AX0iy2u+oL7s/hJ52a2JMjA25pyRQnan1u+YLUzkNj3/7BytXO+eNj2kCY3zra2y3tfauh6kmmyDCOwkAy1pqwOl6rmksyJOawF/6lldWK+sSbgEud68n0ADa8Jz64pV61U9tOveuaDh9XHnOYVxmV+IAPgvLVtEb7elzvvZsaP/MzVNVKwbv2lgEJ/h/9w8wAA76otEJuFer9YbEktL4oNztgSR/Iz1tW9VklFVUu26y+paUFEyJ+C5x0rWwQBbg8sXghf6quUC2fEkj0YaRJQ+e93CJAp9k/TDgsFBbkF+fm3ORwvxsf6NU524E9JpBRlLivCOjKuqbANeRLQaUz0NNo5MISFNb78K57fPOS639wZ9uCXXCbEyhFX7J+237qnGswQVwAAeUaAekmBydvBDsNrpT3Jip4DwcIOPjdk8ODdpzSfSbSVUpxhqLclFXWOkkpaTt5zrUcP+O9N8jFnBSqMqkT7dSglNlIT7d7eOVrd+/rT2Rk4PYk0j5dkXHkh9tsj0081nEKy8x6sIFQUlGpmx1V0xFs4jB58vIKNIFr97VpALC4S17L0rwvi5WpoORRy/Fzcv1SxBryR2uOOnEQVi80PamXNkbiHOqusn9gufqZhfXBxw+D17YeKDLcW45EJNbs26/1X+pF5th4ElIZP28LrD8xdCCBqdEh1/fornty+5rrNwIcMasPItgOeIuvVuttLcc9+dW37jfiox5sdMuLsSP/lB2jpO6uxZ5srM8sJWHj1iYGgEIGMxOj2/a73wbUt5m1d/Idt//0u1JeW46dNGW20saxzV86MmI/hvOWOcES0sCj++72F792Nz/9uYhPlV1SEqpvFzKO/HBpQFrcGKwX8sYIVOEeqZJBcF5S6Mbbf/Z5VDNBEC6b1afq8SzYm0D0mmW28sW0mW4GALcj65pltYRGn3Ptpy+I+PLMeqZ6RpSJQ5UQNGvq/+EWIZmctSb1aAouJ/ZczDXyoYLPhFl+0xNjcjeHFtpWQgUTzKJnmysqhODa5lrJD8NzoDkuSZw+8JfrS1Fh4aE8PL5x2XVdvyTNnao222UBYeHhssb62HfkpNtrAplakoyBKPJSgteGysL8jAJyfEQqu7BEz/v0FqORnwluqtkwBmfGR+VByDTFFRnH2jglAttM0Wi1udvQcVgBPyUVNWbxEqtgnRqVq+h/xk/WilnNA264p0tK0+ObF01xuqO5EulGvsXIOPJTLopZaAxurAYKMJOqAIEVlBQHdzQFaBba/xLEefKZk0CrSWj3nnUUX98uM1ygEBxuKTT2tpPn3YEzF7TOKVcV0mSj8R5MGMiOau8ILIqPi6yMECEuXMeclxT2Qey4kZOX4+bnpmWVIcSWlxelxW+X0OYaEZiz089kvbDuSb4Yz/FfpGt/C8B98Ne6Yr9l0jT1Uff0/i338NKXrvPqN/b3kFsIk/q3ASieREsffu8jueCo5an6kYyfZDKTbqbZcKNiE5Gps1NTfg4T+BT1HgTnaZnCvhilDuIbevJIa7yZBFI5mo+ecYcv/FCuzn2s8e3zqUnZ2UGubApcFfY/44eUhsc3L7vuW1cUHQwZZgIyj/xsMmP1QX4kTHviy7djgc/1sQGAIIs+g/z5WAFMPCokFBQX23M2MuwjfBBBsBecgb/TGWiQBTZhiBJrP/mOGlavAl2S9FnYrbhJICgCK6gXqb0WrX+yc3NkNQsRJiJl1HLsPdxPT3wmyO1zmXzb5bbisrj+aSPbArP4yE3TuLHfJWufBxt3w5uHro9fQkLyghsb6FMJt+6bV1zntW/d07vX7b5sTykzCIZIYfqt49z77sj7P5L1QeRlIlI62b2ni4M8XQIsBjrvq3B9XmGh3Ysqf0rUOWzfhasPDw3KDO7zgc57QTpLcEK6wX47v4flHSKjWcujItWBs++bsvFDt/fAIVfb3GIWX7WN2SCXMhVYt7LORyQnQS7dt666R1e+lvJEigOemExAxpHfWjBA0G4RngTCUFUC4aWBYy3C1PFYeyKTybRIhHJxeZncO4Vl5Y6NXvme55MqPUGEGGWP2A+t+ehJ09o7jPgZJsl7y7uZnFxsVA4hdWBqZEiJ1NRbLUB4sf4aEfpG+4cizISuc8+oxDLc06nv2A5Ipto9xl1LnhRuUHZ74LuxZhLjRv+8feD6uQ8oYax14SruunHJ3fvqtwpyGe15vK1WT0FpmY8ybOvwwRbHTik/lHVT8sqSesrUr5zkq4k8uXNdARZE4qLMltXWcYK/D1Fc6MF94ly8N4PdD+X+RYmSlygNlVWUCJT6Qutr3Jz7z7zvDp7/ng9Oa/e7omBlZ+3JiWZprwFjh25dmJs2i7vXFIWHruv6RaXFjDB2nk24pQxZL81o8iOsm7UiCBDio6guATFsoIoLRUhhYOhca6wdllSQh7ZXWldxebXNsSz3bHRImmo6g7SCxo6jqr+41wRYVWOTIuSiQILXRtScTRDWCAilh/gIi2avPBLlqxoadG5UbZTJi+BiMqPAQHy9poFul/bJ9yEQ/QRfteOC3LhYf+xjyPhBoIok30JIAbF7gMXHDieTQ0PurhHf1V/9rXt676aIb7tcnYBAqSobQ+T1tRrx7Tt8zNfVhPhWknQa/Ro8hPi4zvsXP3PXfvP3Iiz26SNZPtuIL9usy6gudEgPZZU2+PiRGuuIrNWjsKYbiD7HO1Nkcqf99Lvu+A/+wB0xi6/eiI/9+Z4Tn3VOKvLNAPGh61IBaKDroZQPPAas91EGUB6XpBpMeiCjyY/Jw9oQLhK0JT/QVxWyj6UG5M6LMIHWgs8j8EXrfvYYNw+PIUWqSkC0fD55Tnzfdq1PbQfQ2JuPnFaaA+4qcrTooCgau8jPGoEUPUZQ3TeuuDGbMOP9Pfb+FU1MChv72CA6PUnH83kcOKLp2wMiFhHqPOb+bov7034s1j2ubYgQ8uP7EMi4RFkXVM1RrssEa5Jfsb3gGnQdHNlkdM6x3QxVOHru3HCPrn5lmvu3rv/RnW0nPoDy1HzklAJdUJ4Isd+zJ9f60y4yyRgKf4cqiYyNmLDts+v/2j02y2NuetKsvr1af8V9jks6Nz/aWhb3Livbmn0+itiUfTZuX7wRlEVMF/iKSxR+6NAuK1h6BKXtO3Tc5mqj8vdyTQapE1MhvsT48RafLxjy3E0++PiBrEBtGJAhxAcymvxCILQY5Gx6iyurrLpeAykre48mkt3z1BC8gXGAS5AdIXDt4O6hLBrrG15YLotwsTzTBbg720+el/WHFu/LQiXpISZPcAQEKHRdu2ha+xcqGUZDyahqoDh2m05EGYmqeNCXhK1DNJCd1o6MTMnbotzSdgHC5vuY9N6FOM7FyK2Eq1vXZdcEIvyMrYd9qb7XupGuJBeAPpkaG3W9927J4rv16cdy9RE4shMuvkaz+A6c+9DG0LuqJ0nARdSkdk7D6mC+jNhc7Xt0zwj8mjwIWOIolVj/BUVFrqSqSmvvIJk8RqjTcHP6deg53ddZE/IoU+kCPFfMSyI5qdpy+ML3XcP+w9bP9Vp+ITXIRqTvjxQ4Sv1j/b5nz6p7Nj6qNeLe+7fdoytfuQeXvvDbFpHQHsQ1ZAp2BflheaH1EumFm5L8I6o9IHwTARiAURAVGmA+9FoTsrTMPrdOW6iwHpEYfTYSETpYC1gTKY3KnQJC3K4ZUmE3hf1n3tOkIsAnNxftWpLjlVC3WYPscSWNPH2iZNj7lz53z0YHrQ0r2IB8QaJI+a7cfF8qLUqPi2Ry9lgfYoGuujxTYAiAYf0PotWHJJOAmwD3DeuAoB0EJhGnXDOpDyhRBAVAyh52lBTxD7cVL3yHiXSuc9EsvmlT8MyyGeruUnTe/W8+NQH2pcb+dhKf3NLWH8wpLL5D579vx9M+0pDxY/Mkyu3BcoXA2XGi98EdpWVQrnDMiBBrkD4H5O1i6RSVlkf6bN0W9deqD76y+0ZA3MQgLvm3c5lC1XGs73AZK2q9vFLER8I6u840W/+2HD0TVGwp8p6RkPhSAP1iEsrGB1HZ826457Hrf3jPdSut4ZKUD5SRTCM+sCvIby2y8wp8GL5p8r5yS7Wehwi1KK6/ouPF87EEzJq0gYt1QI4hbhq+Y09OngS2BpGN0O3cMTtViIyMwLFYVRXixDvaWSEnP1+/ZUOEgsUafYrlQY3VxzcuuSd3rmrtiYAVotIKg8o7rLcWV1Ro7VWIILzCjvbBRvnai4711fEhIz+ex52X6syPCDk27bMXTQCTu4h2PGkWAwI53CGcfsqhr+xUXW5w9P9sEfhMs4702Vh6NoYoVM361WgvltJd5fCRzvDk1lVTQrq2NbglBNHAlQ1Nyutj7LQcPemqmpoTQS7+Bm4Afo81SInUGBSazivfmOX6O/0Gao/ibkbZwOVNfVCiG1lr55ajHG3Yz2teYw2X+4kiw7o0aQ9vI1g+oZ5wTfN+U0hPuY5zH2h9jyC0utZ2r8AXlvjfHiDV0a+xZI2oThSO8YF+12UKB9bek9tX5CnbifHzprDryA9NftwshrmZaZESk0iERd1KWWyGVEeRzsd68gnx1BFkbYuiumVmDVLYd8G+d9IsoDDEfCdcUFGhkGkjPpK70SaJ0qMALpbg2sm1LpA7NJtESm+YGFVwQrdZHoTUYwlC9Nlm+UEQK8sr1h/lrqqhUTtu03dJOYvPt3O4FtZVC4rLJPARXqxtaW0X4bhN5MfnQ3RYC1S2QDtm5xCID9cwa76k0mgNKuyP4L3Jui8ygs/V0frahqz6FcKYGhl2faatP751RcR3/+vfmcV0VwJ+J5QsLGF2BUdxaj5y0jUcoA5unV0j3o7kHRD+Ljw0KIh4Du589Vt3/bf/4KbGhrzSaK/NWf9PjQzanG2z7zimNUDGRBSl9fnrrNHnyw2MVUk/vY2gIEB1ow8+YxuiY9//fVnTRF8jV7CypVgAhv0mhj5jSG7meaKzB9yw9fuDi1+4O1/8+nlw1FukpG81dh35ISDRLjVa7DECDW0eoQpxMREJZtFsSXVAMRH5z0aUcsIgVSMQLBwS5HFf4KZgYLOWBtmyJogAe5PAbcv6jN9E9pRrOnhUxYD5Leqm4Lx1YadIgzR2on4iFggCpe/hbVmAIbS+Zycj4AiiqTDBlZfPNkVYy0F/bwS+h//Up9ly8bGOi1WJNe0fb2NgkY0VKS2BdSLlxZ4jkR9CJECDtAKCTVaWUG6Wnwtmu3atDfL/Jpvyruw7VZjaFAzyrfoe3lVQUef1b01Tv2p/31Gf497nvJ0SXFgpBEntNyFNwBT3FuEcyd1pv42uYXhgUeO27X1wWy43BDDKUzgCvdK4bARwWN9DyS4ikRN7Pm70XfYdIZh3z6wPsSrHrK8U2GSf/aYEvV86KdLvwePi04zOiOxUHWf/IVNGW7XOrLzlnDxdc+ryKRhP9lb6G9k3PTFi1m+X6751zXVe/VoKa1gEIJOJD+w68mPEyFII3FcICywc3JPascGIj/WolAdWiHCS2ftlqdjEZO2Mz2dgV9VTbsiXXFMydeDSeZPg+tizEC2TbU9qW9rktuU3qBs26ItQOBN0Mfq02/V3PZBGHQrhECgdWE+QBSHrrI1q3dX6Hvequi1Zn+u7IEuzEmQ5e0tw3oiPaLRtifx8GfSJCQUsTSzd0f4nWjvCmwD5LS0uBSH43guA6w/iU8AO12/XnhBCKTTIlipCfAcRiwNmXT+89IW79fnH7tHlL0V81Ook3UbEZ2N8p8B61P6z77mjH/5YW4FhmSPQRXxJ7im/Dd2HNtrfI9ft07s3pUCx48R61nxtywFtrEzQmuaXWZ7RYPfA7kN2brYJ93ERLQqbonht7LwpbwzEx64lWHSs5R1853uu/dQ7rvX4Gc1HBQ6RS5ybb2MJkW1KhX9rdDCOgiPzh4/Bqh7p7ZGSgasTNzOuTqI93ybP1HZh95GfTSYEA4IS4uFmK1G91CaSCWFcl5CfJp3NTITtZuFD4vO03sUiPQIfQUGdTFxkaLEINAQ4riPcMUQ0huuCOwUCB8jLwm1V19yucGr6RDMs2WXQPfgk7cQwOq/vwV2lNzxbE4mpyvDW50RNEhXLXoGQH1U7iJSNOptFBpgKdj6Cj/WmqdFBN9bXozB/nt9ejdWv14r8TDueNAsMFyxrkPPT07JENb7sd9J8sMy0XZsPrcfLgLXP+1F6qBerEnA8NuWA8RAG2VBdgxB/PpuIO3abZ7NdFAwsa8qUPbr8lSqW4A4kepHv3CniIwClsLRMUbwI7IPv/kDr3MqhxeoLztsQGjtYXctSmh7fvKJNdiG+qbFhbqY/bw2IeiRim3ED8RVXBoUTInyhliZMwZ2dnpLrmuhPitSTN7oTSmjoDWKuo2xTsQbSI4dU2w+deMftP3NBAWd1LczFBs1F75XyxBetY1+ExJg18m0X52fc3MykG3zcqbmK1ff4xkUFSeFB2Q3EB3Yf+a0DBiSVC2Tqm+DINU2MgUJR5UTAxyYGnIghfF94tFGI0Ga/OgiA3SKwCMuNGBEkkC6L+t7dszMghBz3CrU8IT4Vsg4i6zb83fw+TrBrhrAJcnnw7WdKQkdwIcBfBsRVYGSLZUDwS1F5uZGhr9oRpY/1lQG0JmmavNyOE6PWZ8uauDuduIyCxP0iktAHDphlZgSF+w4LBotsYnhA6yqU6cLjgNuN8Ub6xMyEP+p567dRs5ghOeooEvVIojGBLLilEFJo6gNd96W4kerxpvJIGStNB4+r+HnriTOuvu2AzZkgOpiW7H5ySqCIMuYpo/XQyPypkZ+3YNdPEcJzgrJIU+Rn/V7/QpTxY1YPRECFIJQWfbcRHwoUisN2g/5hfZ25j8LJ7gvMOyw9cvbY85CoaJZIUC5IX9DvWttSgf3WkPhouDopav703i0/pih3d++Gol7xZOwmxORnQAgRPIFLKbfAJlRlnSy2gpIiswa9C/S1DDHeayMQwY8GV2TER6FfSA/hUYULxyYxbg2KZFMabCcFOC5ZFbE+94GiyNA0E26rVyGcVAbcRlg897/93N3+/GMJfRHfKz6Az8bCwfqt2tuocmop9bGdx7pNvoJM8mTBU4uTYCIE5nZszroRCMbA1Tgz6XcMIOCn78EtrcP1d96VxQa5QXwEoahhLZqWPQP5iQTHROIoDeybNtj9SGt6EF+nKRVYeQ8vE8V5xT7fiK8X4huVxfimUN920HVg8VmD+Cg9xr3V4Eh2Lxk/dsB9PWcWMxtPd1791t39+ncSxpDTei5PgOeEVADy/bCM6lqC8RPB4A3JDwtcu44sryQ8BxDDdoPljsKySrtuXzieWpykFrH9EGt8BMqxB6mKZEB8VMWhG5L15yuwlvg4oCT6HL5vjPi+Uc1OPAcq9/ZaQi79EJOfAe0T4S2CsoYgw1WFRr286OtK4l7TAApayggGn1+zImfN59VpV3gT5JBiHukAJMtX12vtRNuRyI2Ub0IiDIphlm/NIA3X21hT0P5fp85r7QHL1K8tvBrqA2tYWkTOItCpJEKggqq+v+IaeRufjaWIO5gCyKXVdXYPVuUOUmAMJyUB/YgywYSdnzWN3e4RblVcrW8icZnrYBzxuzRuNHbY+Nhv58S1UTIKgmOneKqXoG1jFWLlEUE6/LRT9RNZL0U7VyqHkSnrUgTUoKThEg2DfN5EQAJeEq1RlZZ5q8/GDKXwiHr1EYh2/yIMT40fO5W5hgWLhUyEcJ8pTrhwNxrjUsxWlnUdVY37tF7tu8I+NMnkDMctfegDl5alSFAIYKtL5sm1afOJ/N/alnbXaP1FQFnL0dOu9bgPZiFwp7ymzi+HGDEiC+hDG932CRv/llfC3qa1ZbsR4XjEG8F6KjszUOuV5QnGGnPVB0dtjUxJJ8TktwYUMMZqYKDgAlkSIZLA66vJhxMWbHJYejDOgrGGECd6kbWLkkpff5SwcWoYQkpMnhWb2VgJImgTpFu1pgPx4eJlHzB2b2gzQYZAkcaZ5BeGfYGFStg4a1JYOk/v35QrbiMQMckec+QWQvRYm0x60gXkZo4yD1+4vCwJXjR3BBnC9G2BUaJIkHEl4gt2pB/tg/SM8J50qWjz8JNHRnqdbqin043a8wS1kMTPe9DKF01A6f6/YSGFglJUVq6I5X1HTsliIToRF2R2NlGXdmMiXKIsMGssN/Q+vG2K00UJZxSBZJY71tri3IysI4iP6E++F2JWHdoNhm74kuYQfWn/DxnxsUfdVhelx70J8VU1tQSBLB+alfeuaz/9jmtlfd2uXbvEaE1vzZZhYf9F6Mf1EPYtyesQPBYuOzIQ1ELruXNdygYudlnYWyRP0g0x+a0BwkX+fxPkoRbP/MBSwULDvSWLQzPIW4kbTbSk4LPsP9a+FPhBKoQRQeXeZll8hJD7osBm4dj1cA5ChtQE1gMgCiwlzeFNWAFE5fE9aKV+x+dTNgkDAZYEmmB2Gu5NBWKYldKrtai128WsD/oV0mT9g99M+DYu0GITqmjLWHFRwFnqP1xgxSUiCaIv0WZ9+PrOBg6tB+4bgRShO9av843JZYnwoWGp0sK/eZ3zOJ/+pa8UhPCGfwtg3FWYgkbEJW46xgzr1nJ3Rrxv3DifurGouYbFx1ofpM/vTxa1S19wTr7d8/qWg2Y9HdJcxHuCErUh7Lu5SpQSn4aSpfVZgm3CNa/NWEHMYWproqwWlVPggjy9FlfXul/reERukj/LY2qeVjc2K1qVucy2Q5tKXVgP9uOo1kJkNQozCtRob4/ruvaNe3jlSxEfwUQTQ33qw91KfCAmv3XgCS5La0gIIQIREPBEEybyAbOZbCSB8wb/vk2ByRgOejsy7/SRTGatO5YoL471QTRFcvGwDklFQPNlAuPW2MwaIZUyEGJo7k2Hjpq1ScK/DYkIk5DfzXxFYLB1Uf+j+1o7YO00meYeArfrygq5ltMiLwIoECB8OL8/ab8Gr+P+JEWF+oN8Fi5iuUMJHII0YmwZUL6w+DrMimk+fEKFrFVmDEQdN9bYoBiSx/LF6mNNk+2vsN6jBnvhjYF4K/Y2SQFCOWRuJr2OYGhpjBlkeRshoKBABptZRy0uq9RSRb1ZoRT2bj91QVZx28kzruXoCSPBA5pv2t4pr8C+288z8WzYNougT0OFlDk5OTwkUqc+563PPpa7E3c6ShZuTmTGbkdMfq8AGje7ExClRwktcpAgPp8PWGJWC4mpRLYFYPD6ubQ5hBPARq8CY4gIFfHVGuG1un2Hjhn5HVBwDK5CNHDOZ6Ii5DezWF9tgoOK8DSIlS2aUlmz4VQEGMTXc++GI2l4Iqz+HgFMQNYKJ03o4eJlx28VHA/6IFJ32rnZOaSn5Mpyx6rkRhA9yHZWmbLD/tsC7g/uu5Mf/ZECXoi29N4CQ7Jxw5gJxo3ueyCgIb5OapA+m9A9jAqio8O0B1zmRfa35gVIci0ojShMpD5AfKyvEuaPEqlgrRRB+s7eIF1o/6l33aH3PjLyOy/LuLHjsBL/8eTk5pnCasTH9k4J4nsd0J/hMehbKv7giem5fV15oJd/8VM32P1A8ozfFhOfR0x+r4KNTLkSOQZuOl9bcNLNjAfrMPNzRj5LNuByvLtFgy+i0H4V+AwdsX5wyzwPjvET1jRcm+Bh7iCL5Wwb4wNk9rlS+xtXYo6do/fY57zK+qlr3m8W33FVkKio26sybFrIiyDEOAnrikoj5AdRVou10pSS9u1zFChiDfIjaIL6mKyB4g4SIggH+pz+Wl7yxEefcR3UiAy1+DcRHJJJKDCLpbxmr6tr63DUmMSNxxo1rutEOP5G0JgB/kQCfMjnw+XJettIX7fmWSrAS0DaA/lyWFR4SOQ54CuSXI8nCnIRV2yc9CsKEqWNEmrkS74M5h7khTJKKgIeEzaSZWsh3L9tRnRhUjreGSWm2zxk2YLi3j5Hz+aWOiLRGakjeDskx29gbuPiJGJYgUOd95Qy4vfguypvDAUgwjKD9o//nBgx+SUDgjlco2JSEFBB9J1cB/Y8BMPCtqqU2GQKt7jZEoST2BpjFqGOWwfXU6kJHupj1pglWNvaIauQCUexX6LGKLEGWXPtWkNZZ9BTiNjXCzzk1xiLy2xeJUlOZuLxE+mXlRWFiD+4+Lm7/cWvRTipJlmH50LkKt1EhFxxsRFx9B3fJRA4WP8QsMNnQHzDZokuzvnKHd4ijLFZIPRrWzpc02Ev7BHyvkRfhNQGxkzwkHFDZK8PwPhceWbKMYNw1hmjGwErT2k5ZnmWVteY8gfhlPlrSfJRnvw4bcWU2THlaJJyMc0aLNGmLwGFrNSsO5+MfiiRF0u0Ky5goqW1dNDSZpZordb+fEUWHzymn2ZNl5Xk2l6JoB917cH1q2qSXTtWNPm19Cf5e49vfOtIOSIQLdka6m5FTH7JgJA3wamIPbP2mBisaaFJYWlAAIBgGO+yYYQ/X0z3o1WnvDZUgNvIDxcPmi7J6LhhcfuUVddpwrFGCPmx/sGaIJqnhIQJKlVUKSBQJk/k2HTomPYGo7IEWi3EIbt1g8kp4rOmdcZ5tkDpdA8vfmEE+FlgHadoYSEVTCMVYdufKBH8Ln6Pv47gC5PBzkURIYIU65h0AtY3cHuGVVNibB5UcWEtiyjF+v0HFbDBuMoiyGWD8QLCMWOmndbRldBuFh+Rh+T0sa5OucFUwX2myXNQu1f1L3HL+sCbjcdMSCBcPOvESwuLWjpQwJEpcWHgCgUgIH7W65gnJKaz0TNpHqyVE5lNEEt1U4srq6nVWrwipk0p8OlC9iX0T5I+2hAv/ByUBxTaWV0vsQgo5Fh4T+5c09oeGxdTIAGvTEx8r0ZMfpsABLG0yB6B47ICydXiqAoRqGP2OtGLhIWHkywxdl8HL32OeINJZd+pXEGtE5YGWnCTAlh8oMwBBSaovFpQV5SNfPcdPqkoT86RxUSwwEZXyvcHjYmHq0U7Pt++Kq3ztWC/g4ADroH1EyreAAQIikRSBJcthcPIlF00sk0AQcZzdp8QaDE2D6wdv63OBXkYitikFuEeQagzJUIrhTV0FVK+fUUJ/HgOSHvZTGCSXPoQwdyMkbN3RRIEw2BImi8avmYTiF0jsEYXZn2AG1ueEaCCS5P9LVspOabglXe0pdBeI0G+j+LvWsfTEkNIdC9Zea8D+7hwvvFzjPbss1dkpZInSjEFlhxQPCmAQH1XIjmfjY1qfsbBXhsjJr9NgDUtJgkDkC11+jvvKyIUywM3DMSH+4XqI+HgFV57NgRgYgUNqZJtQsiXTCsT8VE8mwAWAhLIg6pr7dC6ILlZhIez8SWWq0+6PS2tFYvSa6obIJyMNhEJWKBiydCTTp/iYJrnpmE/BOLDRYOrCKKuaWr3hJ5Lwn0SQRYgEShjRyqAIAhRSFgLeVs3LU0XEOF57Hs/UTUXojuxuCTog9c3ArePoUVNSdb6eh/c1Xpf38Nbsk42K6R5Hy4/SsrVNh9QPUzy6uQhsetLNmQS09KIj7FGPhzzenFhQZZdWHrswJn3RPx+u6bD2u4LaxBF0xMf30VfWMPxsRXznHnGkaFPY2radeJpIoWBCkC+IDVVlX6lqE4sQIo8LBjxpRI4tFsRk99mYQLbB1HgFl3R0CehVKkRY8MS5AzE+Rkq7PtzmZBEl4lA+Ixw9r0u+Dx9qBf8JvrtsQ+WofG9rIMRJEOCcmlltdIKmk2zpZC1j7C0c+2/DectXxFMRuX2mZY5aKRHCS9SHF4b1qeQM9o05EVfUeoJYk+kg2wEri94yH3BimTrI/IOqQKDpSLXrLSGGMnAmKlpahPxHTj7vnYRx925JxG8YUjWlXZDlNNnwnhqbESBGPe//VR5dZTxw+W4FSDRHSWvqLxSQVORNkpmsNjrjAe8Cyh/LAuU1dTIvYnnROvoFVUiOvrjxQ16g8Zn8HnJ+mIjBB+l+cXRBjwfh0yhMhCeJSw7SpIRXIbbuPfBLVl/rG9j6cUBLakhJr/Xhg1Sm9wKiJnwRY3RZtknDLcgY5F1LAiIdTjCqxnnGuj+7VsHPitofK9oUNYTQTKe+MrM+iNajUhPNgUNy6eJPJMkKftJ6RsWL2HqA2b1Yv2t3b7odaCweZMArNMRuk7tTyX6g4h9xe+mv6n9ydrI7PS0WYB+NwWUkzj4JRqInGw5dtYdevcj13birLwJBCJprDB6k90PxoodfMDYgoT0vW8/czc++bkbM2ucyOktuRd2PaFrH6KC+FLa5miPLzShcnvV5NS2GvG1qf4uZcdUvYbgFbPw/O82JXHtb484LjfC2rkFAQqmNDN+kSfk0pISQs7e3S9/a8R3W/mJFHRQIfx4TKeMmPxeFzYL0LjCElaETHPE2tCu7TYocTGyBsWiPq4Vn2fD+3AJhaqeP0habBmY2GssPyMRQtZJyMVtw6K+NsbUlyb/4rWTE/fVQOcDbXwJ8a0XIbcZcL1E0UJURM1Rei1Me0jqlg1hFxnuy0ggA3vsYZ1DfAiSzSQx7yZQrYV1YdZe95++4A5f+IGraztgY6bG3wuUpAgCX+PZxgr5c+SYoSiFJba2RAmxL9DG0abg1Zgyh/seZY6gL5YAIitLzBGCpfILpCCWVFUHaQrFPpVDwSswEr+bH7U1SMwnPpb/1gSysKTAvBrq6XIDZiVru6egwDnbWeFdog+RMTHxbQ4x+W0xwqmhSv9z7LrtrUHWnEimZTGaYBmtE9io15pWDjUJ/SQAOoQftEVYW0UmIRSCow7hcxuBawqaCjCb5qnUj5EB98yE21aBIAa2J6LgNQSIAILA5cri+6NeqwGXM32MQIf4Bh8/MAETR8BtBAR/RW2Dcvr8utcZV04ieVj3NWL/S7AbZzD22UKn+9ZlBUZR03QrBLaIz+4tOa24KHHJsq4Ngfmoz+DEKOBag4d6X9iAHfUw/Pt1EfQLDU5dxcW5wtZOPiCIJQSCyO5/85m7//UnCg7qe3BHlh5KZjx+twYx+W0DsOyw9GbMCiSabbDrvtyEuC7IJcLNSE6dypcVF0uwazIkZl8wEdf8vSUIJ3TYUgWTloP9Q8Qe6w1UxmDvtWTFrKMCoUiQChow1imN3S5wSbHuAqJceth1WLwEvqDFU7mfxN+oFWh2K0ifIVGbUH6Ir/X4KevDClPQiJ4NTkoGuwEIdpbHSLxm6xzKmEF8WC1+vfz1gAIJ8VGcHeJjHbvUrDZclcoT3cwYXzs/wraVCOYQFjH9gzPD5xKvaHcU+qf/4V13/+Jn7sZv/0HBLFh6z4lvZ/eqzGRwH7b69sZ4CbhVlGNXVKwqLOF6G7lsVHXHukHIk9/GebTQMgyRWGN4w3dLl2Stv8u7YpisWFQTg/0+92/R70zuj+TXzcnV66tnTKuKvMhN7ppXR6RhrZFQTQWa9lPvuo5z7ysyVVLDi4+N+8JO4Sy5k0zQEnx085NfuBu/+0e7br97wJvY+igdQIDLoQsfKcil6eARleeiLBcpnFE4izHCjuGE5LM12L2vP3U3rO/Z8goBTjDYRvmg3Htc8so9LSxS7iZVjVg7py4mr9OIqtZrdg6WH5HNrGczr5hPjI8X1ubeBIJxqKP6ZUXLIESUzk1TvNyXeaPKDEFkmkvWqMPJhsXaHizGtoD78qaHxy6AD8CA0Jis1AYl6ZzFeRqL9UqYbTvoyusalLCLiy8M209M4rdhMgO7JBWRnvWFpImkXJiZ8cKO3Qt4buaZao6y9kngD2s+TOQJE3wz46OyFFnXexVQGHC/EVZ/8N3vu3f/5F+5Ez/4Qz2fiEyN0BeerFclhHtNo2aD2IeXvtCmqaRoxPgu2GD1wp/9G3fse78vFyK7bVDCL8r4C5Uj7i0kR5Ti7S9/7a6bFUMCNvsaogxt9EHMDZRE1nuxQlEKieJkPLCWV1BUqjnEGjZBZERoeqWR3UEKA4Jkd5DgA98gwv4IrWDWoBfnFmxOTCoFZ6T3sTaXfXr3upYRpCxao8wa8yd2cW4fuDVvwRDZfWC9guATSqOxd18T5NdOjU0jP5KITeAUlBTb5C6WlpudEyTN2/tYfH/hpr2BOxiuWfDlK8s+/8gTIMQHARoxQn5TRn6TPv1DWq0JQ4iPfeqw/rAApA2bFYjLU401v+BvQuSpJXn+j/8Xd9zIT4qDCTkUiVAh2AgIH66T7XP8TukjZol84q79+mdyxeFeVWDSBpbIbgBRwYUlRi427o5+8HumbPxLd+T9H1nfpaZsIFEI0ycCkfxXmnYMv/yFgqO4b9q02L6Pxxz5DoKZGNdSesziq2xsViK5yK+yWkFaBSI/mxcaAzZ3qGJE+kH+88LaukQs1CjXupVAkgYHfTXXQoqHxjHVn+bc0uKcm50iKG5SAS14TUgXYh0U8uNxjJ1DTH5vCFh02Uxc01Apo1RWVWeTvEpaL5ObbVqovELBago+l1bWKgdOe/nl5SUmWAJMtuC4I5CQ8w+VN2dtaYndy5+7PJeWfHoBFTwI/tHuE1iGz9jbblparS8/Nu/m7XVco2pGRt5N6rVfLADKsFFeixJWNftaFHyBCy6pkOM67bC6umwWh19LfHT1G3fni9+K/Nitg3XZ3V7pnv6kXiUuT9zMB85ecI0dR+2ViG7mBDhp1ZSMYe3RR2Qne8c9G/f79LH2SmMJQEfcmjYPPIn5o9Z3zcJDAfQuT0r0YdHh9vRzxiuEfv8+WgIMxeC4IwjGV9hFzAmNSWsq5WZKILtVsIkxgWFsUsz+euMD/VIMidgMvSI8jrFz4Jbt1DCJkQIoJ0V1ieZgx2dcoyzmF5Wb5muCIyH07aiHHHkQPr+DCF07axE+JwuRY9DA0sKyESR1Hv1aIJbi9OSYAoTkJrU2PTEuaxFLze8ebgpCTZ3yzdgUFAtA5BfRYOO78dwRYNBzl8oYXxsJfqsAGBpW6G4G/Xv69/7Mnf7Jn6tSCkWiKYaAQRy1j4EvILDixgaeuiu/+jtrf2v3L1sBKHLzl1e5knKz5OTyt/Fs3+stOZYCivVYlZFs3JgRmFBwwiaseaxj+PybwNqxHRx1rXbd3t3Pel6f6m32WSM/r+/+bUVJx3iz4Ja9yaET4xUgx4qkXe/6qVVQDGHcJKlrB4bABaS1DjRo05DRgMlv47a+ICiCh9t2p5n0wcMEgifWCoYQRLbh6mQ7KKxErD/WCrEOffOWn9YN7XncbkT0YRUT1ccO2VgC+m1Rf5N9P8IU8hvr73UDjzsVfn/3q9+qoYVjtW621Fa6Atc72wLhYWCN7/j3f19jrqi0QmtoIflERUh+06bAULS659516/M9NkZ9xC5u/PwCiq/b0T6fcYs1l8s6XV6eLL9sNonmw/hnzT3WIbwWng+O245g7GocrwG/VZ4Oortnnznye9nqbHqcnfqtTdD8+rZ3+fvAMCxhXo/xZhEMrxhvG0i4xRWF20cuIRMM5L1RnLpib6MIgI1tCY4hug1NOs805lw22JX6yeS0D3r5uFMIBYY/rHlgsAvRJZlkZa3Nr/v5tb5V1kjCxys8NjJaJfAH91auSI9+Ye0z1ZEbWqFyqU5PK4H40i9+qs0+cTtBwBsF4WQiSA9grZk6r4fe/dAduvA9WWZZe0jsDtZVU0BIfig1BEXNzUzaZ2Wp5Jhf37Oj3bss1vvCx6z12c15/njNYFnz/S9cSorX9ToIlbfwGAIlTgFfMzMK7mHfPIJYiNSk9iZrzHPPiOiccqQo4HL3R/YBjQstvGlwK3dwGMV4HRDxpu2L6vZ68jMNna1WSECmKgV1MGlo0ZRjYl0EwmBtREELSP8XWOgNAUESHF8AzwfPvSBwbIRigawwUoPHmwKfZwef/rCqSMSbn/1CYfhTI0MB+c3ZCf51CfLwGECEveb5xGs8Do466EL934nH/p9NwF84QSfqkPCxXuJR8JxeC17hqHvuzwtfs390CP+urG+Si33vgcOu+fBx13zkhCkXxaZ02NVuop99f/imOrZELKN08KL9w8uJUziseZwA5wTHN41QQUMJW15acMvLpO9AYOz4PutmJyfczMSEktM9+fUosIfITQpuo2gR4Rrj7QNj8i0YYjGiQPvzEShQ5Ms30VgrwYXE2klFvY8UpQwVrlKsQVIFiOLDclSAgGnXb4VgkTR8jsSfa56XrA4QCsnXvnZ9pv8AtHYS30nWx72KNi7XJ5ZnGHlqTdZpQHrPX3senZogQZ0H1XmBSXUZ3Lv+vbCJvjZ12DWLyMwq2hMcfRqMHflPlhSWU3COjj4QxEdRBhZV4jU7Bq8R3amAqirvWmebHvZ75FrV5ymDvrCDrpnmyXYtXvjc4PF3vmpT3731IBAKSy0sWjE9OeoDVMzSQ2Hi8bRZeKzvUcaNeqW4O1m39hbe7nOlpwsYlm/JMIvxOoAU2WmbfchqSPjd155wi5abpaj1FSLmzBrUDd/Ndx2hHDxcCTT70GKBzBB4PmqVEHWElydAzvWvGUnaUa+LLIPPUIMMIUXSN+wYkiXu29eAXIQhmXGUVWWkJnewtRy/sSuP2eKKv59HRAbP633B49xcNf3N+UaIQRfECGEdAumxhRBrwtoaK7DsBkxpUmHpoX65zHebuzwTEJNfhoCggbAcGAEx5EdR5slbiOV+XafjqKvYu0/bsiAUpZJHvfshW2TKaEn8ntAt6a03mie7kLRoWG285tcmVaw8fJ1zE+99fp62sRJh8rcnzwTC714P6/WvnY+Vx1ZCCYsvOHIPw9zPhGXHuRwhO62r+df0Pr03sPxyrIXP2efoqzPt/oaI+Ls0Jeye+XzVGSO8blUyoiasj0geUxoHFh/RyHPPJt3sFLtTxNZduoEhkinDfVcDgab8p7w83+yxtHuIzrT7Ix/82J360T9xLcfPBZF3xXbzU0hcDh5mlIAE+mHBD7IDgs//DWmt+ZsDz+mBXtBr/vUA/O0fBP/7ox7Zay+4/9Y+DuHf/ArwBmv63x+DR3bg7+ePE8/p9fA1Pavn9K/I07+m5zb87jRD+LNCPL8NGyN4H8oKJccmR4bd45uX3N2vfqOcUK35ySPgc1OVz7q0pCL2L4yDGGkBhkh813YBzvz+X7gP/um/U6kwJRqnQn4MkReECVLixadA4qPSaUSt+R2Jvgife/kHhljznpSx9o0vf0iyfkuhX3Xqy+fb39/5jYa0lNvBxa/fhfy79kfZWfrz5bNfgr28lvyoRsTGu0QD3/784+CkGJkCwv9i7AJg/VEBn3U/RX8Gz0cBWq1KkOHys8ehwZCF1y07OHoP3HdaSl/0JmBCUaJyraxc89zLTS947+bmGu8N2/JLbe1r67X1Pu8Vbd1rtKcTCP5+4bl0QTi+wnHHGAzbHqxs1lvXNNZi1SlRkaVqMwSLkVvKZtAxMg82dGJkNExKsKaj/fBUBb9Ajz0zRQPCBHePj4b0wR7UK1xZXbLXjBCRtIkWiNSA+KJ/yxvEenIx+BkvtwSRQC5vc1tzzS+0tVjvubRAeOFGamooZazD+jqaS4vzClThuLS0oF0UIpFfoj+ylC6k9fISyC+oHRojo4BsijAqYqQjiPgjFYLi2Wd//8/de3/xb9yBM+/bKzg8g+LYr7r7EFfQRqlH2PdEi/wEARAMoBSKMi8cSDrHlRpW6tAGo8F649q1JQZbiJdlUUJYx9g9CAaEDmsHB8MleAi8smEKGAFGS8u+ZizrbkZwqgY070vkUQeWgtoEoHAMd4YghYPC2KQDJR1n+mKjVCNMiqGz+8dnf/mf3OVf/I0RK+RK0YV4oGYCsq3Fm9lmKNBYifpkm6TmoyeVwFxZ32Dzm7U+m+UbzGHxlY2OPdYGHj9wj29cdo+ufaMNSSlWTL1CSjdRpZ4tjChRhnWIlcjnK+Iwh1B8e5xtVAsJ7iFknw/3TQeOPACxTNk9WHP/8T9pHHBkjASPGXuC/Y3rkoATtkMin46oy8mRIe0Sz8bKfQ/uuid3brhOG58PL3/pHlz83FFRhaAvPB4oaEVmyUWDH7OUCiRx/em9226g66GN7VUjYfzT8UDNBDD04juZoSAZvrb1gKttOeCOvv+RO/6Dn7imjqOmvZowsbYREEYIHwjw1mfsx/YL13XzskiPVkmZtfpGV15Tr9qQfkcK0ipK9b3UbNQOFAXstG0WoQkgrMFE1RlrPueM0HtC8n3OWhiKr6YL0eV4rDNS1x288YjeGay9NwFeeOql173V5SNffVuTF8maMlv/YF2RS0kUJS5M7fqxaNbdfGLPSGq+suMHFp4Syk0Jmxoh/WDITVpjw1yeO3j+++7guz9wrSfOuqaDR13D/kNyCdtXJR0jGvtGwA+MSL/8m//mrnz8d25OiewTcvvHSH8wPGNRkaHAzcMWNfsOn3QHzr7nOt55T0nwBFdEIT9ZfiYALtvEv/iPP3Wd1y4m9uJTJf5i9lQLdtoOChRDbqHLk8Z2TWp2LeQbon1DkjRtZ5Nv5KitbDgGLtMckrPZu9ALIPCCsh08/s7ADZ9Y84IefufEGJsCYyJ4KIR/vPBk8Cfnrnme+wfhsfejXJikDJgl58nNb3CrQuYQm9yXU8qhmwny6OTKDCqorE03oIoKzW+kTEF0XyB9yciy9eQ72hml7dQ7rv3kWddy9JSIT8FFScYE5Ed7bArfpV/8rbvxycduwqxAGt8XI/3B8IxFQ4YCl+eBs++7/dZajp22yX9S9UBDAbAhAuFF9NzXf/ffTfv9L9oHb96EEi0KcHmWmmVYVrNX2xFRgJsWJuNTWivcygZr0Zdqe06Ie3CXWvOjlH9oYM1R//ujP4ejNT20fxC64XMxXg9ZL3ei/R10+QsdredWg1uAhWd/UeptGdclO3ks+x3dRVqzCUsutOK06fAo21lZG/HWHCXEZtn/bnKcT00KPAcU66a1nz7vDr/7oes4d0FKn2ql61pfjWy2v7LGzh83P/u1u/vVp26g674b7Hqg642R/mB8JhkGMdIVEM2hCx+5w+/90DUdOuYaDhxWIewwInAjyCUVRNB9/bf/zX3x1//ZdV7/VkIrciknIz9tzluCpVeq4BgsRhGd/R2SnA+UCY56DnepWZOF7GzhW06ePce5WIVYlrIwvaUZBtgkSnVlUwklcJ3iRrXroEngbcVoTwh8Dy/k9fA5gu/Z6smV+JqXvy+EfWHiO7fot6IEhdVsFPRhDBL+7XcqJzgEd6Uv/uzLvhEV7ANTILmFOWtGdFh1BKaEpeH8Op634rSNFZabdt1YawX6ra0WzaKLuu8i9716X6urbmp3+8+860796A/csQ9/ZNcajfxk+Rn5DRjZPbj4lXt4+Wv35M4112Mt3nQ2M8AU2ur5GeMtAUR3/Ps26b//+27v/kOutrndLK6aSOSHgFOouLWvzOr74q//vwp28es0Sd68BiKknBy3tq4kR/5WbUojqLAkF5Ghcp3m+33fisvL5S71DZdpuSxDn6TvSVQtqFjj94ILiFBu1+D7gu/wFkhwYZsFZBAcX0D4fABNqu2aWS9911okvpffmnhi85Dr2b4MssI1uTQPufmUF/7WcxwDSw63oyIvdSQY6pmKPrPzgfa3M2vumVl1z8vC+fFEC3NJEyQbEGzisc5L5rLwQNkpqap1xdbYlf7df/LP3dmf/Il9TnTy47eP9Ha77tvXXffNqwqkeXTlSzc9PhqcFSOdwRx6zekR420FASmnf/yn7tTv/amIr3Jvk4hEgnEjErBRwaJ+KMi+/rv/6r786X923beuBCdsHyAtT4CFZimWaY2QIzlXWIsKpDGyC0kQkuS5/EKKdq8p6Sbiy1Gd0/Laeh0VVINU4wductRLOJv09PU9sY6tI+3jQuvSN79Q+VzA8lz4MHiwVvrynuDhWuiM4Dx/4B8fLGJXwhMCf+o5a16xIMUksHw3k8rL77EDv418OaImcUWyBRSCPyz47dfdPAmq3Je1cCNijZ05T4Ks1REV7HfpH3Mz42P67O1FlsvHy2AN1/8H//TfigBXV7J8U3++Gj5h3rmJwT7X9/B+sPHxb9RwycZIf2iM+4cxMg3kOL3zh//cnfujf6G1Pqw+CIQ7/srJj+CzhiBjN24E1sV/+Ev3zc/+m+u5cz04afsgS1AWYo6RoHdt5qpeqXdx+t0LQoKzlhv+be8JyC1RyNnavkMnXMc7H7p9R06qug3Rp5CTfn8qIz8ghAW58GZk5XgLaNG+h1QO/31U0uHan8MTogguaMBbPVTLef76dxCcExIbR28ZGfmusYB8pCSW1IopAVjDz61grkc/M4XfKmvPGi5Jdh4fHxowArij+z/U3WnfHVhoupag8XiJxz5SE3IMmyfHFwNU+D3bDe8FyHP7z77nvv+//O/uwp/9m6D/UQjsuMElhH0A0Q09eez6O++5m5/83N383T9qO6MY6Q9GwvaPwhhvBGx4e+HP/q0mPS5QrCesJMmdV9x1yWGb9Gj8aPrkUl35+H+6y//41+7p/ZvBWekD1jvf/ZN/7Y5++HuuuKLSFZdXeHIywyMV+SuZaY0oxJkw+hC33vQzCVTIDwL2RPy8IojIDWK0Tk3sxGDw7j4jv+A5L5RfhCc+f54/kujtiYV0gBAh+XGBWLhScopKEuupG93v9UCQk12yjYFp1/vgrrV77uGlL5Tw/fTujeCs9MH+M++5H/zr/6d7/5/+O1MGvNud/t5wHkB+dktQAMcH+tygkf7VX/1Pd/Xjv3UTQ33BWTHSGcy4FKZFjHRCzb4298E/+/dqRFdCfGjDG91xJjwTn7UaEoip7nLjt//grv36Z6b93w3OSh8Q7Xfg7Aeu/fS7bt/hE2okPHvYj404+sVN1pRnZoRHrmP37SsKgsASCzeZ9WuMgWsV0J/Bm0WEemxfK2Jba/np6Rdh1xaeh6TWfwHRYWmFIEiI1BF2+ieoqWH/YW1nhZBPyfLTtXqXN8EqbNlz79vP3f1vPjUCvK1IR353uqHt1Hn34T//D+7Cn/4bWf7MA90j363rQreJefBsStbfyNMn7uLP/9Jd+se/NDLs9SfFSGtwi6NMixhpiNqW/e77//L/4b7/r/7vrrisSsLQC+ZXQ3LYJv3sswnTdh9p487bn//K3fr0Y0W+pRtKq+tcZUOz23vgiDv50R+5Uz/8I1dUVulJx/6LSgwShtYU1DE3q7D3S//4VyYQ/0rP8Vn+f/7h5LWA4IKHm4QIMEBIhiHYsZ+Ni2ub97uD5z+09j1F+uqCwvSPCAitHX4fG7iO9na7S7/4qXY1QODzPK7LdEPr8XPuwp//W/fOH/8LRRzjAcFC38j6D+83Lu6ZyUk3NvDUffO3/9V9/Xf/TUphjPQHkjAub5ZhYN2LyU1uXbtpve0nz8vakfuNGb0BJACtMenR8qnpOfj4kRvu6dL6XzqCtTmsM6yhEiMKrDRKr7GWKEQgP7qNnpO1ZkeCOsZNILKLNyH8PjdtSGHw321+7fR12nc+08iJmpaQEeu4kF99e4cCm6qN7AkIykqB+Pyw8NYlv2PA7vmTO9dd57VvFN7PNXjXavqB2p71bQddzb52u+e5NhcKZBFveN+D+83u/TAk/fz0wS339O516/tJf06MtIaJuRiZBtaeFBFZVKKtWahRqLWl4PVkQOslxw8BPz02pohPcrjSEYTkUxUEkhrovG/C/FvX33XPzT0b90QftVMwtuyA5UwgTml1jSkW72o98cC5D+zvWn/eDoHrJh+y0KzYqsZW13LsjDt0/geuruWA3KDh9UZC0AcQO4noBLiQ03nri1+prisBK+kMXMQoc3gzyDdkjTQpwvudZfc719cGJXgGBTJGZiC+kxkI0gVy2WlBQQ9sYRREQEaQ9Jwi8jOBQZj6lFk0BHUQwZeOYP1qwcib3LJBE+QUPiZyj6LcSlmg1E3ybvEwaajAltxcWZD7jp5yp378JyLByvomCUi503YCxtzcX6rn4N6mhF3byXdkAVIqLjLzBfebN6AosGvHWP9T133zsgqYY/EvLyzo1HQFVr9cuWYxk7YRNVeQPoTsUHa0FRj5o4l5FHXQxHhbEZNfBoIk74KiYq1vEPHnIwrthRTmK5Yei/2EdePmgUTSGURHUvC4/+Ed1/fgthHgAzfS88TNTE5YtyybUAtJYGOIU/jHyId0gsLSElffdsAduvADRZbWNLfviHVAQXBcnIftezvOvq8cztCtjWM2cZ1JoGFh/6yuLLrR/idmGX/tnty+JgJcQOkx4lu73piOWF7yXgzuNSRI0JD/4f71jaC1YZs/pNSgSOJNQbHEuxIjvRGTXwYC6wOrwJcQyzfBHpBfVNi5hNTPTk+6ieEB05jTn/ywXHF99j+87cnv0QM3/NTIb2rcfu+KkpqjCEMIhWUg0hMQhuxiwVrboXcpI/cjRdiG6QzbCdyvkN8RI1ySuKuM/PZwk8VkdkJUvuItdrkrywturO+Je3TFl/FiPZPyYlT42f6E9O0Flh9RuqHltzZSNhkgPxSNHNaI7X6TNA/5kW8aI70Rk18GgrUJiI+SYFr/sQmcku5uJ2P54QKbHh9z7NeH9pzOQIATtECe3mhfj4I4KNc2/KRLli3rWnKHRSFAAYWCsmk5rri8ytW2trumw8dc06HjalhihNRvNbivuDlxtfI9da37VcGGajcpXLw4EtJbWpxTsM5I7xPX30UlkxtuuPuR9svzyfTpTXyAQB2tX0+Oe8tvdVm/PxLsPJQKCBBFkv7PL9pB93aMbUNMfhkI1ihweVLKTOSXQtQfHi4U/aWlFUUxelfRjARhpoBoxu5bl929r3/neh/cMYtwRESPtStSiNJdgXVFX0FyZVXVrq6lzbUeP+OOfPBj13DgqFmF5f7cLQRpDUTwnv2Dv7DvOutK7XuJWs3KzvYKjv5JDoiPrJeF2Wcivp67t8wivmMW8V2F9WfSzgXcV9avIXQVxrabFvk+AzsP70ke5GfzCkUjJr/0R0x+GQhZfspnMssvr8Dk4cbVLNZCEX8rBD8sifxkFREhl6Zh7uuB+pSU6yKM/+n9W264p9sIccSX3UIgRhSKoaJAH7NnYVVDk1l/x5Vn19BxRFtKUWHlxXJnmwPBFghdLMqWY2fdse/9vms8dEzpGwhiAjGiEh+/z1eMWVLRaYJa2AWdIgbDPZ1aG8VCyhR4L8a0CmtTcxS3Z1Ti03Cwf1j3I+iFOrMsKcTkl/6IyS8DwXoE1og0VMKzI050AMmxxUxYg3FpflZRgOm+7rMesAaoV3npF3/tHnz7mfIa+f36rZJ6/rxkEAmabpCdnWcWYK3b237ANRr57Ttywu3df1glx14HBLJUNbRoX0bSKhoOHHJlNdUKamL3+6iKDb/HL0euiAwmhomAfeQe37ziHl35Sknt1ODMNCwtLUqJo1QfkcupeDHCbmXtDy9KMZsym2KJdyVGeiMmvwwECbzsh8dWP1iBqbAfwp9dsMmHwkUE+REpSX3JTAPrQD13r7nLP/9rd/+ikd9Ar1kFQc1Nez1qr8GVLI3tMfKjjJzI7+BRpR/sbT8k8ouSZvIq8N6qhmYRX8e5D7U9VVm1r99JQQO+XwSYBPpNuowVreNODJPM3um6jfw6r37tRp4+zkjyo/i4yG90UPVYU81ZVd+a1kBhdCx89qfUvIqR1ojJLwMRWn55ZhngLossxu00n+i8rOhOWUErgSUU2aeWPuD3kc4xMdTvhrofuZ57N91Ta0S4JiICo3KWdQ8BMBS1zi0odpV1jQpIYQd9qouU29+4oVNxl5HETkFyrEeRqX1efet+uVMhWu2HmNK9XXFsRzQ3Pa2ydVh7j29cSlTv8cEg3OvMgqI9jexnxkeDtV3GdPBiZGS57Lwg4MWUyjjVIf0Rk18GAssPLTV/bdJ1ssluwlFi1IQfgp8ov3TP70oFE8ODiv68+/UnRgxdIgl+PX0ia0mdszHoLllhZliUVNaK/Eg891GZHaq3qQCkiCgoLna1LQe0K0Hz0ZOu4cBBV7m3QWtOuFn1XRFuEddP477iymbt6+ndm9qi59HlL0X+mQwsvcXZaUeZOdaxV5YY29H6DoTnYe2xlIBXJU51SH/E5JeBIMACIcskFfmt+lSHjea6ZLv9E1p+CIxMtAJehWejQ67n7nVZQ4OPH7rZSXLCKIXl0x/UPxGAoMQFWlhaoTw8iI+dJRoPHnMVe5uUJ4bg3CgRnte5f1h4WI1Ka7D31+xrcSVVNVJs+I6owlsXn7WqnD3C/cf6ehXowzZFpDawe0MmIyR9duNYsqMsvxSHNo5wXzmpUPdmK4KYYrxZxOSXgUCwMlEJdiEPza/zJIEEJIJiSUJyccEEf4prI+kMXH6UQBvp6XK9D26qtuVg9wPVBY1q+b2AQNvAUthrBEYyOlGaFFcuqTACM6v8VSg10sPV2Xz0tGs5fsred1Ll07JzChIWXyQE140SQ83OyeEhlS1Tzc6uB9qYd7dhRcpd4N1Ae0h2b4P7SCOilupJ2jjZRw7FSGPEdzADQfUP1vpw07C/XFLJHbwcusaWjPhI+iY/KrJ1keYgl5H8v5GnRn5mFVHmi1qgkJ9mSZIufBmSl/YPLsr69kMqfUZeXvW+NldcWa3C4+uB4BYCZAiUYb3Qt5Ouor7R7meB3R//uVHAJdMI4BH5jQy6Lsjv81+pvqly3nYZfF+w47x360dRDH13U+bM75YC+ZH6ECO9EZNfBkIlmWyiQnypTlLW+pbM4iNCLnIB4AwAv9vvAOH3saMCTO/9m9rVYLy/1809MxKkDFoqRGhSE4FJgASFsOtaD8iFSZI6NUCJGpQLzc5BUWEzWvYerDerr+X4Gdd0+ERQMLvEXs+3+2pfHpH4QubDkifKsffhbQXzsLPFaO9jJXyna7Hy14Hu89JyEPTiTeiot5O1dPI2CWrivsZIb8Tkl4kQ+bGrOBXoU7vFhPrj7kQwRtr6JcNAqP/EYJ/ruXdD+9n13L3p+rseuOmJEetLT36RhKWRlLfQ7Gy7H7iiqxtb3KHz33NH3v+Ra+g4ahZgjQols8aXYyRYXuMjO5uPnHTtp8+7pkPHFDiDDoKc3owVjiXPnoysZXbdoJzbIyX5k+ydCaXLUoJ1IP2hSGYb36n8fqJqWefLySvwHpWY/NIeMfllILD2sPrQVBOBFREFp9eMPfntOuFoQDA+Gx8xkuh0/Q/vKiqSQtgkwC8uzBoREQVq/RLVXLB+R3BijZfV1Lt9RmxtJ43YDh7X+h+pDKRAULYMl2jT4ZN6rdHIsaapzRWWlKdOfHZtWO2s21LMmd9CSgMJ/exCPm/WLXVOd1NAE6AL/fheVEtpfKNQQn5mgatwRDivYqQt4juYgdCaXyLgJep2BR4KjjDBmSlFjV8HU2PDigB9aFbT03uUQXtixIi7cN761Xo14uyR0IUEA4u8uLxC1t3pH/+JO3zhI9dy/JxrOXrGHTjznrYoIsIzv7AkeKM+IjK4Jq5tfnZKpMcaX+junBjsVb7bboZyWBc8+aXq2QiVSi0npOhRifH2Ib6DGQi0UlwzaKlEewoRhagPCFjy5CfLIEXpm0Eg+pNUgEeXv/bk9+SJmx4b1dogOoVxWTQEJOZdZ3tcSXmlkd+pgPx+6FpPnHPNx864/Wffc0eMDOvbOkR+EGaqvc81cW0ivx4svpD87qmCDeH+uxkK6LL7pzxOe5wKmFeK9LQOjgNe0h8x+WUgsDCYqJqkSMNQgkaQpGz3QjmzzWjGmQb6gBJoRIGy48G9bz51T8wSHB/q1/5wvC6jOhU5uJolq5wCyeU19UZ0B7QTRMvRU666sVVuzty8QrtvNjWjMp99v9Yi96y42WcT2rJp4NF9u9YbrvvWFTf89LHKeyH0Ef67GqZRKMVBx+C5DaBTgvO4J1pH11p6TH7pjpj8MhJ+jUkTVC14egOEp+LqVLQn5Le8ywVlAIJD+h7edjc/+UfXeeUbs6i63ezUM6WDZGUF4fIR+jiQuQYsCBKmC1xVwz6RHxVcymvqJGcTLXyQBHw/rk4CcqYnRl1/10PXfceI7+ZltTEjQ9b4YrwG7D4wn1AotYOGbnqMdEZMfhkIT3ymndok9Rpq9InqK7wY+SXcnjGoDkLE5OObl9yT21fNCrxr1lS3yoSRSiBLIgpLAZ3mhSiu6dKqGm1ISzUY9l/0rBeeFwF2a7lPy8sLbmF+xo0P9rree7cU3MJehUPdD1XBRVZqDCkU9Ndm7pm3/Dz5+XkVI50Rk18GQuSXHaY6xJN0KzHS2+1uf/Erd+3XPxPJUCR6eWlBUhXXY1Q9Q6JXgtia6RibWV7l1vKdVORhP8LBx11Gejd8gM7dGyrZFmMtcHX6YC5F7dLp3K+I9wzSw2In6jMOeEl/xHcwE2FS0S/KB2t+MbYMbPtz58tfi/wIJJmH/AieMEEqMora3WI/T3qpFKl+AXwf5LcwZ+Q3bFaekd/dm+7RZaJTb+i5GC+CdWys4NCzkbhfye6b+pr0oVy1OOAl/RGTXwbD7D/9KyHrn4rxmiBohG2QiJzsvnPN3fzsY9d9+5qbNCuLCEKtk26zXBTJ7vGFqmenJhXg8sSugYAcAnNwc1KrFAsnxhpI4Xge8JLapHhxDd3PrRjpjJj8dgti9ttSzE5Puie3rrpv/+Gv3INLX7ix/l63OD8v8pNY3C7ZyOcya+24OD/rpsfHzOLrdI+ufO1uffZL1995V5GoMWLE2Bgx+e0CRHanxcpsZLAv3GD3I+0A33XjsgpFUwWGlAKCYDa1iBcF9rlYdEuLuDqHdA1P799WgAvW31j/0ziyM0aMCIjJbxdA6xpRiC22DqPDNAryIVlvG+4xEvzmU3f7i1+7ga77IkbWleRe2yqFwj6H9T3WqrT7/OCA6755xd347T+4e9/8zo329wQn/v/bu+8mua7jbvyXyJnIIEgABHPOylm2LEt2OVu2yv84vJLnlbhKZZfLssoq1aOffrZlJVs5MuccQQIgMogMPOfTd3o5HM3MziwW4O7O+aIOZnbmzr19z+nT3+4+4VZUVIyCSn4LHR3imy0bXNGiXV5wpjl36kRsI/b0L38Ys0BFgNKOsYNITqiYhcrP4SazFE8cL+S3r5BfifQe/Z//CuI98MarnSMrKipGQSW/hYgScVisfr4Y33Y90+gwkN8u5K37F04L9VzK6XeOx7ICawGlId984enm8P43YyPsWXM8SjNqyZPlWm+//kqkOJGuTbjt11nX8Y0AbWG5wuIlneUK5YPsHsO6SbShPpXLJN59HFLF/EW1bgsQDDLyu6CTjrhFGY4MniwGIRbH12USI8MMUE9KOPr2vkJILzSvPv1Ic7AQ4ZmT70S0NjvsV1Da5+SxYzHB5cXHftO8XaK9Mycn72nsM0fHsetaqxc6P4z4EqUNOZPtzkc2fR/lRxVzGZX8FiCQXzyZoZQ28hu9oyK8K67IyK+S3yhoFz+LJhYV43g2IjFbn83m3qjZgu2jik7FUgaf2SJt6YqV8UzAiumB8N6N/KY3f9EDOt2AI2nMte1XNfKb76jktxAR5GdWYKeTjuOkFsJjxOv+haPDE9i3Xntjs+v2e5vddz3QXH/vh2K7suUrVxeDWQ4Yp/6nwap17RMh7vrk5+MRSFffeHs87X3F6rWdIyqGYeqxRJHdGEe/pbjzcV/jDydUzD1U8luAiE5aiC/Ib8zoQ7TXGgZbo1X1GAWrkd/umwr53ddcV8jvhiC/69vHEvE9ZtFOxrMAb7mzuRP53feReCL8+qsq+Y0KOp3P5CtK3vl0emjD9nFfLQFW8pv/qNZtASLSnufaJzOMS36MwpJly5qly5c3ixmIWRuwWlhYunxFs2H7jmbXHfc1u+/+QHP9PR9odt12V7OhENHS5StjD8hxjOtIKPbWWKxrr1izttmy67py3Q82N93/0Xgm4NU33R5Phl+ybHnnBxW9iMhPSl+h20it8910QHr2cY0xvwjpK+YzKvktQCC8IL9znslXvNSRuzfyW1KM54owsHUcaTCWrVgZ0d0NhXhueuCjzY33f6REfncV8tkW0fOsg5GOZiznLuc3brX56l1x3Vs+8qnO9e8r5LujWVrJbyBEfu2zLovpK/UYdTpS9yi96FwhvzOnZ+RUVsw9VPJbgGg91DPNudM9Dy8dwSaL/BhP0QMirHgvkN7ajVuaTdfsLpHWbc11JerbedvdzVU33Nxs3L6zWbn2ynJUG1GM4XOMjnLOWI5S2mnNhk3N1mtvaHbcfGeMN4r+tt9wS0Skq9dvDAem4l1Q/1jqEJOTxn8yQ/SrM+2Dniv5zX9U8luAMNZnn8nTp04258/a3Dgs5mB0jDQveNEVi5vFS5fFs+YY2Drn5b1Yv+2a5vp7P9zc8Ynfa2687yPNzlvvaFOdy1aVei912Bnj61TpaAir3L4dBc4d13CtUpavWlui0N3N9ffc39xYotBbPvzpIMN1m7e2P6hoERGztPHy0l6tfo+CtmnaGdRnz4r8zPis5DffUclvAQL52XbLxsdSn4HpjGtY1HLYokJ+S5BfifzK+4r3Yv3Wq5sb7vtoc8cnC/kVotl5652dcb53yS/rciSUduFghJMxXRslOudPAly+ak3MLr3ungdCpls/UsjvjvuatZsq+fVCKh/5GdceifyyXUrJyI9DWcf85j8q+S1ASMnwTuM5c4UIu/rvQIStLv9F2pNnvHxFO2ljgpGOwKorNzY7brm7ueszXyxR1aeaHSXa23T1jljisMiz3ZrO5IlxUA5vo2pT6Nvi/Vgk2IFrW5u5eMnySMlu3X1Dc+0d9za3fOhTze0f/93mqutvjnTtpEKKc9nK1c3KdRua5StXlXqy1EGddQ4YCRdivM8aznhcVGRUKuYzKvktQOROFGdLacf8gtqGQxQR5McztnA6J7yMaYkXEES+i0uEsHrD5ubaux5oHvjCXzS3feyzzY6bb2/Wb9vWrIilDFdE9BXcNSpKlUa01+l975Jf+9m4BOinEYicX9SsWru+2bLj2kJ+9xTi+2xzz+/+UXPNTXeW6HB1e/AEwhjf8tVrYhx0WamHxUuXvFvPIyCOK5U8RX4n3gnnsmJ+o5LfAoSZnsb7Tp/USc+0hnTEjs7gL1m6tI3+YuLLsiDBSdntxSQI450ihbWbtjSbd17fXHPznTGZ5Mb7Plre39Gsv+rqZsWadTEpKMhvDOJrDWnrnJwpbXT0wN5m78vPNfteeaE5dmh/bJWm/eKkY1R5EOCFK0qEt6pZU4z85muuLdHqXbEQfleJArffcFuzqXy2ev2m0rbtUoxJaVNj2CtLe63dvLW8ro3Ib5y6bXEh2uudI4eak8ePRjtVzG9Iev+f9m3FQsGaEqlIf60phm7tpk3N+i3bgtTCRk9jqMMjXnRF887hA80bzz/VvPnic8VWn58qCx2iBOnMtRu3NtcU8rjpg59obilFtLdh+zWxa0sQR/Ebg/Smqc9uRN2WHufJDKdOHG+OF0P68uMPNk/95PvNmy88FfbYtWOjAam5xYvGt9F+EETIkWmJnBOzbtO2WIx/xeLFzZkz7fP+Ii0+AWNXNgAwUWnLjt3Febm9ueq6G8tn6zoOQ+egAeAfGPr2+Ko3X3g2np24/7WXmqNv721OHD3cOapiPqJGfgsQvNKTx46El3q2eKthDUe0omF4i9EV8UmVrVy3vkRBq8pnI0wOWAAQ5VquwFhee8d9zT2f+WJz/+f/JN6v3bApxs6uuGLJu5NbxkAY0tLjLlyw/+exYkD3Ny8+8svml//xteZX//n15uUnHm7eOXqkRO0nyjHngizHZT8ykW3R4mVh4Ndv2x7brX3gi3/R3PXZP2h23Hp3OEYmyUxKm9Ll1es3xMSkVeuuLPc9+lh2Vj8ngcNy9MD+5vjhQxEFVsxv1MhvAWLF6jXNsmLcpHp0+M07d0WHHyVSibW/pZx850jz9uuvNof2vhnrBY1zLOQnhBsPkiq0S4plArYp23Xb3c3WXTfEejqLytt1YWOyUTncz9SrNPQ7JVrY//or8SDa53794+blx37T7H3puZhEIeKWUjtT3ht7jdm2hTFFo2Netb1u+W2kNosA5AdEgABWFYK3IbYUt4h+IbdtrIfcfWOz/YZbm01X7wqHQOo3nJdh/UGlRz02QXYvP/ZQ8+JDv2gO7HmlOXXsaH1i/jxHJb8FiJipuWx5kOCmHdc220rHD293BPKbMtTFyz20963m2MED8f7E0UNBgAsVFqhLc7ZblX0w1vBZQG78rN0urGMJYZo67EZwT+lleAzxHd6/t9nz3NPNM7/8UfPo//5XPJNP+rMdTzoYKTULsVesuTJSrMhp2aqLmakZc0HL9RfHJKZ1GzeXe90RUb2xMPtVimhOFBkWKkS6V994WzteW4gPGdrFaGh/0G6dV+CcvFCI79lf/bg5+Obr0V6TMAywkFHJbwEiligUA8p4bisGfPv1t8ZnJkRMB+SnWCOI+E4UD5dhPHpgX0QlCwG5ufGS5cub1VdubK7cvDUMo0ktu++4r9l+463NVdffUiKk9TFmhjzCCo5Beg5HfOcvnGvOlro8deJYIbqXY9zolScfbl54+BfNS4/8sjlZ6te0eRNgThw90hzZ92aRa2U4MFKwUtDLCmkhKZHhuLuSQLuf5aI4p3tas2Fj3P/iQqwiw3Yf2LOhIxZvm3k6vabMH9jv9Jpb7oydeNZu2BwzYi1hGdqenfZTFzazPnX8eCG/nzfPP/jTGO+rxDf/UclvgcJCd2mt7dfd3Fx90x3R2aeM+DB0Ov3ZU6ebE2a1nTwVxHforddjDHEhgNFXNyYG2Rrsxvs/FtHeztvuKtHe9TFRaPmKVS3RFAMZNnJU4uvUX5TSuxDfoUJo+159qXnpsd80z//mp83Ljz/UHHjj5f4TJsoPEZLv0tkQpTifiSsxTT8+HRPk6bz1BqmuWL06Zj+aZLPqyk1BiKbytxs3W36xMAz8+q3bm1233VPKfc3KdSWiFvV20sADob5KaTeMOFWi9kORon7liYfqRJcFgkp+CxCMl7SMLZxM09956z0lglkeRjXGgIYgvz5bIoGzp06Fh3to7xuRjjt+6O32y3kOyzgYwCuLUbzx/o82d336C83uu+4vEfJNzYartsdygUIP4xNfQdQfw1l+Ln188p2j8eT11555shDfz5qnf/E/zetPPRpp5EEQab+NHI8cbpYtXxXP8CPzynVrgwADY8g0BXJ5ibTqmhIRbY2U4FozQddvLrJKde+JCTfWh9ogYSHAZt+773wgnrXoMVPqcmr28yCoq1JE5FKexw8fDOJ7TdsdO9I5qGI+o5LfAoZZi8Y6rirRn7Ej0+fjMUUs4ADkV0jv/PkL4SG//frLzVsvPhvpnvkKKb11m7c1W3ZcF5HwtcUYXn/Ph5prb7+3jfau3BizWhcvlg4rtTAu8XWMZcsuTXEU9jf7C4G98cwTEfG99OhvSh0+0xwu5GKMbTqIvNrZmBci5SYNHZsWxOJq6/nMOo23bRkV5Vi/kwXwz+3l2kbOkjTwuk1bmtVr10e6VbrU0oj5mObjxFiPacy7ncB0V4zfLjb+3YnqByHr1mxpzsjh/W81rz35SPP6s48vmPT/pKOS3wKGjn/VdTc1W3ddH+M9kTZbtrS5YphBT+NY/otJEoUQLMJ+45nHmsP73uwcNP9gdp/n3+24uZ3UctMDH4tF61uvvS6MvUXt7RT4TsQ3KulBkEn7mvX39uuvNK8H8T3YvPTIr2NJg/pjOKXSRoHjjAmKxqTejD2JWEStxu2gJTJv4s/R4R7LS2nlcIzac26KtXBrN27ukOsVsWxGunvebedVZOf8rSn3og9ce+e9zY5bpP+Nc2rj4RXmEHXLUTl26O1ogzcK8b35wjOxTKVi/qOS3wJGbnjsETfLizFbvmpVePOBQcZ9ypi2U+xFA3tfeaGU50s0czAOiR1I5jAYbTMZI1VYDKCnG9jdZOetdze77rgn1rqZ4GIykO9jcskiY0DDo4G+mLKh7fZXZm4eESU8/VikyV596tFiMJ9u9pX6M1t2VOID9WwM7vjhA+UvE1Pa38aYZZHZ3xwUacwQZEqWEVHutX3EjzHQUld2Qdm0NXTFZ/Honzh3E5Ghz+IapeR2bHMVCM6zFT16ygQmxLdt9w1F9OmJDxAfAjS+d+itN5r9r77U7Il2fGFBz3qeJFTyW8CQxlu/7ep2UfPq1bG+i4cfBn6Y7dLxvZTOv2jxFeH1Hj34dox9MMhzPe2DECzwtnZv2+6bSqT3webmD3y8eP/3xU4tpvqvudI4miUEbfpv2jrpgzCQKqqx+82F5vjRQyU6eKJ57sGflYjv15Emi23L1N1FGMy4RIElJ1FOvhOk6BvLWUT0OZ6bx46D+A1CiHMYq1xU9GRls2a9nW62NBu27YjNDuwOE9vlFeKz9nMuE6CNq7eWtt9x612F+O4MJ/DKzdvaiH4EsXE+/T92cH/z1kvPN28891S05cE3X4vx9Ir5j0p+CxiiA8bL9HZl3SbTvNe1fX8aAxBpzyWiv0Wx5OFkjDudbE4V4pvrY3+LSoSC+EQxFqzf9tHPNrd/7Heaa24x/nlDs2bjpkIYImBmv5SZ2PCWK8JAmhVpicCRfW8F8Vm/9+qTDzd7nn8yoobZiBSQ3bED+2Lixcnjx5qTx44V4lsbMxlt2szYc1QuCtoc8a0serN5U3ESronJIlt23hCOgvsw2UOEi4Tn8jigiHZnIT57m15z0+1RTyJb5DdKc+fazMP79kT62kSXg3tei71Y3X/F/EclvwUMaSrRHzfWvo4RBW7YVIxW+XJa8uu8KTh94kRz4dyF5uyZU82RYoBNgJmLaMd3bo4IT/GUdVPcTXgw2cU41hLruxr7cs6M9JLwRHvnSn2cKoTw5vPPxPqvZ37xw6kdW44fOhBjQxEpzSLaNOSF5szpUxGJiyrfKYQoIufs+C72BLUmMH4xBtxbvslS6kjEFzNEV6+O8UDr5qSSka9jzp45E0fPhUjQY6hMalm2ck1sSbf7rg80W3ZdH8Q38mOdohLaJ228/drLzYuP/Kp5qRRLfqzFHCd1XTF3UclvAUP0xlKfPX06prWb+LK+GK6RUj9hAFpI6S0phtV5TOTY88JTnW/mFozrXS/F+aFPldd2pxbrHI39rFi1JpyBHPOJ25+BrW5TweVN7M95ohjDo7HzxyM/+P+bJ3/yvWbvy+2s2CC+EiHMNiF4XFXMQCxGWCraVmnS0DY08BQKxLd0+dJ4HamdB6HzW6RnQszKEl22Y2i7In0oqr5i0ZKIQmPdW7lY+/is9xfh8BWSM9kL8Yn8Nl+zOz6zZVze1yBElymv6lk0/9aLzzXP/eon4dy0Ua/NwGdaqRVzCZX8FjCQn456phjhDVdd3Wy7VgS0NYwiD3lUiCKMK4n8TNU//NYbxZAsjnVgl9vgMcZmPIpoRbMiOoQuPSfKs4kzj9/WZJt37I7057LlreEzCWKUXW76glEs5dy5082ZU+/EDEDE8+aLz4ZhfPZXP2reeO6JIKWYmXm2XSg+25BqZIBFfYjneCFA0aX2WbLEhttnyr26x7a0+4PGT2cAqdRS3+W8yMN+oKvWeyBsuzg+lmKUc5tcJJ1uPDnWk5Y2cu/q63ITBRk8bV/7W96ws+gEnW/bv+P0DEKRl8ymQ585Jao/3ux5/unm+Yd+3rz6xENRz5X4Fg4q+S10lM7qcSzIwcbNUoNSZ7FtVyG1UcBoGPvT+RmE1gBcEdGNTZgvG0KOpcXYLo8F6tYw2pLsuhLh3fzBT8S6vatvuq3ZsC2ft7eC+W5/W0SekdliEMspopT3dvowDtSS3s+bp376/XY86M3XYyLK5YTWM97ICTl5/EhxTN4oMpwMQRG9WaHLV7apvmjp0Zr7t9C7NGZRObcU68pCePbK3Lrzumbj1TtLRHhVkKSIKR6bVPTkci+UN8bN+aEPdu/ZtGNXLGxvUSpgiBK0xOfd+VjeIc355vNPlfZtJy5VLCxU8lvIQHznzkYkYrxPysqYjZ39V6xa1fb2ERgB8S1dttTQoVPG5AfEd3jfW23K63IgDHohPxFOuf7mndc3u+9+oLn5Q59sbvrAx5vbP/47McFBhMsoL1m6oghL4PLbEe6xL0r1hC30uqicpJzuyNt7Y6uyV594tHnqZz+IdOfbb7xy2YkPuonvwJ5XYyMC9WTNogXeUpVm+MY9lP/zXmYKPxXVWS4TxFcckO3X3xxLCRCfB+VyjKRhRcAXzp+L8cDLhnLvmwoJ04m7P/2F2NRddkDaNjcuGAbdgZOjXhEfh8YylT2FAA+88WrnqIqFgkp+EwKkZ5ssRtE09rUbNoYhG4kYOgaTRw+8e4Qq/Qa+loabTZDNBsTSmtKX26+/JVJY195xf3P93R8qUd4HYhr71liUvaWQeScNl2Q3yn0NwLtG8FxzLpZ2HGn2v/Zy8/qzT8ROLUpGA57vNlf2wGwj9KWxG4zxqdgf9JhHJJ1q034mwpR7E/l3mnQ8qJfO26n6La+RCShlSXGQVqxqJ8VsLhGXMeZYYrBle+iep0qISM+env2lAvFUjpvviCyAdOf2G24pem4ZyMrSltNsZdZBtHspMhxvvfRcrNF8/ZnHi7NT2vntfZ2jKhYKKvlNCMzMM2nFwm/EZxp77G/IKoxiGcoxCCk2hF6/IYjPkwAYClGP2Y2zCUSG+Dx/zRMWdt52bzFsHw7jduP9H2l23X5Ps3Xn7hjPcW+xLRnT3LmfuK+ZgAEsxNc+cb3c3+nTsdQD8b3w4M8L8f26ebmQn2UMxwrxXQpDPmOUm7Yc5Ugx1DELtERfyM+YHUci9rQs9bp4Sbm5KRa7CHTqOkh36bJm5Zo1sVvO5tIuZt16lWq3cXY7E7UJp+nEscMtYc4WyvURn31ar7/3w83VJRLdfM3OuGa7eUFHL6YB4nMonX71yUea50p773nuqXjSRt3SbOGhkt+EQKpTz/ZUgJi1V0hlEQsf1n40S4j8jBXaKQbxSaQxprFdVMHK1euaZStXxlRz403xnSijnF+00RrepfE9EjVpBXHFNlRXboyIISawbN0enjwjtv3G22Icz/ieRzNFNLGj3ZLMpAvRRLst2Wj3MBCdahDFITTr6g7vb5/GYIGz3VqUvS8+17z9+ksRCTDkcw1kYqhFf4hQRB77tEp/n7FFWmk3Y73xiKTFRQfceOfHM0arV9rConuTjGy/pl1FfMtLO8sWGH9cVnQnZqaWaN12avYStQZ1RTlW1CgzgbQ4aqEn4bAp9EUx2ebKSGcav5Zu3XjVNeEUBfEVXaE/CPeK1O8Ric/kLfXnuYvxBI6Hfh4bup8sf8/Ftq64OFD7WXTBKuYqkMyKtesifXjf5/64uff3/qhZXYwOo5LPNhvFGQ+eLOXYwX3N0YP7Y1wEQex79cUgBGlAUaCJIYzIuWKAz50uBric/IpCUhagh4FjDIuxY/Ckp8wk9LgZ67GyrNmIEDeFAWXwPOCVEfWkA0Q6ZbRHlL0vyjniNF5LYeTcg3uzW4vUl7E0Y31Km0o8EsQyl6FdjcupRw4FZ2HbdbdEqpgjwdGI8d/izETdqUM/nGE9pl4kjPedKU6EWZMiPU+xsED/+OHyeuhg+exokPSp48fC0TCGHGOF5W8L6C2rsa9oIibwlAiW8xT3VfQlCHD9pnjg8NbdN8QG5etsz7ZyTZDkODrNf7Nm850jh2MP1ge/+83moe98s5DfizGpq5LfwgN1naG6V8xHGD/74B/8VSlfaq7celUxIHbvXxlGYpyhq0gNMhjFaB3at7c5tFeU9GI8mfzAntfKZ3vCiJwRhbxj8kMhv+LJL1q2oiW6KeMlStgUHjx5GC/Fs/aWr/TooRURoZAtZZzVITaGTxeIKY0XwhDvfeXFUl5qnvnF/zZP/uQ7Me6zELDjlrua2z7+uebmD36yRNC7my3XXhfPLYwaiCUgpcyWNVCvCj3pvGrAs2dKdHX2XKSSORjSs5wlj8sKp6MUMy3tJiOdnuTF2VkakeDyIHNrDTeUiE8GY2MpFuArMg4Xzo2nI6nLrntgz+vN3pdfbB75/reieJxXxcIEjZ8tda+YB7A7x03F+N3yoU83V998W3P1DWbqtXsejmUwaE4pUmnxtPcSDdkHkRHj4b9zxISLI/Ew13OlxBhPRH5LIt0ZabCI+lZF9GdpgijFnpwWpIsGTaBYsnRJa5nIR1PzdaZgiDuFTGYjGr+0bu/I/jdjO7LYyPvlF5o3X3w6prrb23QhYP22ayLyN4a6pURJIiVr4tZt3BozNc2KlB6Xpg596NT3TJE6kq9Odv6cxfDnp6I9S2dEeqIuUeDJ8hniE/V1LyiXPp+K/NasDX3hREmbKuRGjnajaTqO0rQImcDB52NS04uP/rod1338webVx38TulyxMKH5L0K9K+YbRFzbrru52VYM4C0f/ERz60c+3Vy1+6bW2I0bURXtMUZmHOn8eZNfisFSitE6e1opn/uuFOdnVFlC3nlryNrnCyJEsxE9O9BrlEXtouQcT4RQ1IvRVpf30vH0pebs0nKyFETnSQxSnZ7A4DFOUmCxlnGOpzhHhbGzSDGXiNsicGX7Dbc119zkiQc3FVLx/LvVpc47kbbih7NQ54kLnZMZX0u90Q62DGt1pX0f45RTAkDRBfuXKnSn40iZ6IQQ6UnoCh0bUd4g5YLzJVR0vVeefLh56Hvfah7/0XeaI/v2xESXhdL2Fb8NzX8xql0xz8AAenK3rbBs+HzXpz4f40DG4eyEQiVG8poTjFunxHtcVX4/ZTzLyXqXAsS+k0FsfuCDUlzT7xzQ+/5i0LkEtKfy6KFTzZnTJwqxHW0O793bHNr3VjynzYzOt156NnbuV+bdM+xGBLKw6YG0IdIzqcjrlVu2lEhwa7PcxKXlq0s01c7QNLEJZrU9/Nfz/j3ovk6+7z2ufB662vU6Msp5WvK7EI+h4uh45uJD3/3/mid+/N3mzMl3IgJFyBULE3W25wQCGfFoV5oEY8bksnZ25qq1a1tCmgnS8HjtOOzxURiZ1nzG6yLs6O/OdfLAOLh9zbfvvpkB4rqdkgFBEHExdocPBrnZusq+nE/99Acxk1PEZ/cWk1pigkNY1IUJ9WAmqIkoUr0H3nglJimdPtk+td02ZdLT2ky0FfVZfqdk080Ynd9P7RzjdVhJ9PuuFC/tf6ODPsQ2ryXqs03dG889WXTg4RjfNZvXvqztBtZjnrhi3qCS34Shncp/KsZXTB1f2plaHmu0Nm8uRoFFcOQMLBxD1ClTNqNYmSC97lL+TR3TW2YJ5TKdW2hPHAvWSyRnFqExvDdfeq555clH4kkMj//ov5u3XnwmHkJrJudCJz73ZnNs9+qezWg0zskhOn/+QqSfLUcwrqburlisxTqIip1FdLf9TMpMUZjXRCdp+tefe6JEfb+Obeo4QNKdlfgWPir5TTAsO4jF6sXLFf2ZbMIwLjIWt8Ti4NlDt8m8JCalXIBdzigvL2hihRmE+19/uXnl8QebpwvZvfDQz+JBs2++YNuqV2KSTmvsJhdthLe4EOCJ5tihA83BPa82sbPJgX2NR1pZ+G0s0KSYqN5IXXequVPX8wFkLrcZM0ktXfGE9nbXnl83+15+PpbwzMbzFyvmPir5TTDMqDt++EAYgvbJ51si/WkxsinlMC8CoC4jPEWA8YXp650U53NPxdKFh7//rTB09mw8sOeVmHJ/9pQ1XJPt5ZuIIvLjCNjH0gQgzyUMIkCMi9tnQ5qJG/XbIb+oc1WXFT7Hgfisfbf20OzON557urNrz69if1QzTyfdEZoUVPKbYJjQYQGvzm43jXZmZbtHox07QAQYRm6ugdHtlCSu9uGyx4PwDr21J9Yd7inGzaOGjOXEmM5Tj0aqz9IMhr19KvdkE1+geDntVnUelXQ0HpBrqYqqMTNTXdkqDWn4vp3ZezZ+1zZEIZbyOtUmWd5vdORpZbpQ9ONYubcDoRuvPfVY6MSeoh/7S5RrrLcS3+Sgkl9FGDhbekkD6fz2abTzBwJcsbqd9ADxf/v28qNjwN5TOilOkzesHUNohwuxMWwvPvqb5umf/7B58eFfNq89LcX5dHOoRIDt0wbeO/u0YgAQ4rmzxZk4FHUnEowlIEjibLskweON2qUGliC0W9lFW5Wfd952/rv8iOu7dupJ+XfwrTfiAbXGez2dXdR36K3XO8RXZ3ZOEir5VYTHb5cNs9wsEl6+wuJz+ywub1ZfuXYq9dm+vA+WjBHrvLYmDM4XuTxtu31kk+fYHXnb5I2XY9PpZ3/1k+bxH38vHkK61/KFPa8GOVbiGx3qSpRnAog9LjkQxgHPnTkb48UYxXq7IL9CMO1DdHu0pBzzbttdZpjUUq5bXKOOnpyMreoQ38uPteN8rz75cDhElfgmD+9qa0VFgYXPFsHblX/7DeW1lHUbtzVrNubTE9pF6e/RmvJ+6s9xtanHKE79mW+6NFSEh+jM2Ix9II8dbo4fOVA89zfjCfMmttipxR6jJrjYc/T0iWOR3q3GbXZgZ57NO69rNsfm4rah2xQbTK/fanu67bFl3ep1GzpLaNoNqXNz8/dYm2zT9uW3MZ0eTSlKi/iz5zO7D9EXS1tsU3awRHg2KTf+63FUB23DV7cvm1h0q2NFRRg3mwLHk9Jvur2UO5prPFnhxtvjqd1LSzQYk2G6jNhUZOh1TG1iE3uNlr/jo/yuc97z5843JwrpGXvyxAUTM0Qkrz3tuWuPRXoudpexiL1EgqdN3S+khzSnhKy4KCCy2BCh6InJUdLjdg2yZZpdg7bs2F2I8dp4eLLHKHlig3HjWCuodNoyWmNQk0z3fTkNtWj/exfv0aUS9Z04eix0xV6trzzxYPPyEw81bxd9URCiCT6xrKViIkFVBqlYxQSDQePdbype/lW7b4wt0DZevbN4+ZviSQt2/1i6NB9d1G5X1qpT15oweM8fBb3a1vleis243dS2V+eQmJ39EVmb1jTpAsEpJq0cfGtP+wTzF56O2YmWNVRcfpgFSldEhB5FtXH7jnhs1k7cWPIAADZWSURBVKq1G4L8lq9u93CNx10VnbEPZ2xPNrWV3aJYZhEp0mCwggFW6d2P2w0LYms0enP2THOOzhQys1zDxJ2jb++PsvfVF8M5euPZJ5ujB/bG8g0TvSomGzStkl/Fb8HsTwSYT1+wefCGq66ObbC2FjJcu2Fz55ltxbjZoLpEi6IChiyMmJOU//IV3hN8dd630eKF5izjVaI20RqSy1mbPHQPjW0fKbQ/ZupZnmGB9qnjx0skeCTGKxVjlxWXH7HZNF0pRBebTq9eEynyZbFB+dpIj0qLrtu8pdWl9RubFR47ZFx5+apmyfJloW/xhPkrOilSSP3pQqjL+Zb4OEn56KNTMgLvHAvdOLzvrdik3NNFZAc8XSRS4gffjmU9ykLduq5idNCtSn4VI8GjZHbdcX+z6/Z7w7v3ENG1m7fGGI9n7pkd2qa4igHLLbHCm29/j+jaFGT7R7wthoznLrLjsZ88fiwmIBw/eijG8RRGzBieKC+eFVgMXLtEoWKuwmOo2gfSrmw2Xb2z2bLr+mbzNbsiHbqhFCQoLWoXmfYhtatiZ5k2GmwJMPSmozuBUB2kVyK9UhBfkNmJE0F6Sj6Vw5iex2uZoGMmZ0VFL6gWU1RRMS0Yqo2xIfKOZtWVntJdjBcPvzMGtLzj9XsvtWU8yHPYYoJMwYVz7fR468NEaYyXh50q+Vgb6ajTnbSV6C6IUAR4yGOSDkZUWBciz32I4OJpHSUqjOc2btjcEt66ojclSqQjubWeXWMsrwk9KiToM05UpNKT/ER6xUmSHp/SmaIjsQF1EGBbLMPwaC1RXlv2l2PrkxkqfhuV/CpGBiKLsb7ly1svnXFDbsXLV9Zs2tKs3bgl0l/LixGTDs0xHkB4mdpEciffOR4TEk4el8I8FqkrKayp8b8Y+0OUWc50vivEJ2ysmNPIRwwFkSG4QoRtdFf0pZR2FqjXdqyP3sggcKgQoJLkFxkCulCK7MDJY54FeKw5UwjvbNGlGCtW0rHq6FrqTEVFLyr5VcwajOWsunJjTHOPWaNmBC6xWL4lv5bIimHiuZ82tuexQvlA09aLd0zFZGJ5PGVkXes0LVse+80m2jG+djJUPPj2nXdKRHeisXbvXJ2xWTEDVPKrmDWkt47swssvHn949yUqpGiRtrIwvWPEIprreOcKr7332X8Vk4PYWagQXowbxyxQe3Akcnbn+VZvQmc8CLd9AG5Fxbio5FdRUVFRMXFY1HmtqKioqKiYGFTyq6ioqKiYOFTyq6ioqKiYOFTyq6ioqKiYOFTyq6ioqKiYOFTyq6ioqKiYOFTyq6ioqKiYOFTyq6ioqKiYOFTyq6ioqKiYOFTyq6ioqKiYOFTyq6ioqKiYOFTyq6ioqKiYOFTyq6ioqKiYOFTyq6ioqKiYOFTyq6ioqKiYOFTyq6ioqKiYOFTyq6ioqKiYOFTyq6ioqKiYOFTyq6ioqKiYOFTyq6ioqKiYOFTyq6ioqKiYOFTyq6ioqKiYOFTyq6ioqKiYOFTyq6ioqKiYOFTyq6ioqKiYOFTyq6ioqKiYOFTyq6ioqKiYOFTyq6ioqKiYOFTyq6ioqKiYOFxRyoX27eRiyZIlzeLFi5srrlAdpUIuXHyVOIdy/vz5qfezcd6KiorfxqJFi6b6cPbjYdAXz507F2U24NpK2pJ8JZcC3XKlPWAfspw9e7Y5ffp0lGorLj0q+RWsXbu2WbduXbN06dIpRbwY6FDOcebMmSiUOTtaVeqKitnHypUro+jDSTrDcOrUqeb48ePNO++80/nk4rBq1aopO5LFZytWrGiWLVs2Rc4J9oEM3eXo0aPNW2+91bz55ptBhBWXFpX8CrZt29ZcddVV0Xko3cUqnt8jPQqtcylJhBdLrBUVFb+NK6+8slm/fn30YVGXMgyIb//+/c3Bgwc7n1wcNmzYMGVHtm/fHq8+Q4KrV6/+rewSR/jYsWNTBfHt3bu3efLJJ5snnngiHOaKS4uJJT+KyCNT7r777ihbtmyZitpmikynOAcFRoBeMwJMEvSe0uuEhw4dag4cONAcOXKkc5aKipkh02yikE2bNgUhZIqtH+jcvn37msOHD3c+mZ+44YYboiAdRIh0+kG/VF577bXmwQcfDKIZFyK6jO7UcW9BegrSc+zy5cvD3vRGfidPnoxy4sSJKNqCXK+++mrYBd/5bM+ePRENsiUXa58q3sXEkh/SYyCU3//9349y3XXXDTUUo8Lvs5MpFDZJj5KLBFOplRdeeKF55plnmldeeaVzhoqKmUHaT5SxY8eO5rbbbgtCoH9KP71maB9//PHQwfkK0dSHP/zh5qMf/Whz6623Ntdcc01EX/0gK6MuHnrooeYb3/hG8+1vf7vzzejgJO/atavZvXt3c8stt8Q1fYYM16xZE7YF4WW0lxFfFtAW2S4pE4eYbUiHWFTKJvziF79ofvnLX0Z0iAAvNjNV0WJiyU8unne2cePG5ktf+lLzV3/1V2EsLgVS0Skt5Rbx8bR5ecrTTz/dPPbYY82zzz47lQZBlH5TvbyKUcGwZjaDLn/yk59sHnjggSkj24/8Hn300eYHP/hB85vf/KbzyfyD+/693/u9KO6XE4uY+iGd0B/96EfNP/7jPzZf/epXO98Mh2g6xxWvvfbaILzbb7+9ufPOO5u77ror7AibgvRmA5kN4pSQVTEeiBCRYGaV+rVpxWgQh/+f9u1kgVdGkSnrHXfcEUrMe7sUSG/Pq07k2q4rLYKAXZenzpv0uegwic9rRcUooF8iPwUBfPCDH4yydevWKMakegtH68UXX2xeeumlzlnmH9x3pj2vvvrq6FPSvf2gPyE/EZW0p6h3FOizSI+duP/++5sPfOADzb333ht9VqqTLVHv+vdsQcSIUKVxXWfz5s2RRvU526DtKvnNHBNNfhRLodCXkvygm/hcM4mPAaLYN910U3iriE9+X4TIu1MqKkZBkp/I7+abb47ITxlEfMrbb78dBCD7MF8xKvkhCtkXBflJfY465pdOsvSqgvzME0hC0q8vBfG5j507d4Z9MkQDIr6csFMzQzNHXeR+maGjJhFScMaKkhsrQL6U/Hd+53fCu2S0KirGRbd+Mcr9ymwa6vmIUSMmEZ1JNJxTqU798/rrr49oj5OhLrNPzya629B12AjELsUqmpdy5Swj39lKtU4aKvnNAVByJGjA3FiNyTcf+chHotNVVMw2GP5MqQ8aC6xoIUODdBCfvqnI1GQUdjnBOUZ+Ik9Rp0jXZ4ixYnxU8hsDDIWUQ/f05EHFMY4dZeIKLy/THGaq8S51tszz64CT7qlXzC4QXuplJb/BkJHJsb4bb7wxxuZzcssgqFOp1VyqYOKK5SSGMxQTV/ydk1fYC3ZiurYgCyJGesZ0lUp+M0e1qCOCUlJSszTl2imvRan9iu8VM7bk5nN68ihGJtMclNo0aoPqFF5kWFFRcXkhwpPmvO+++4L4pksx6uOIjK1gA0wmMpP717/+dfOTn/yk+elPfxpLF0y2saDdRCM2g52YzklOSLUi4HSOa9pzZqjkNwZ4cggtyY8H11sosu9MJECUlNqklVHSSyJAik2Zk/zuueeeiAYr+VVUXH4YihBpJflxTIehl/yQW5If4lOs2UN+Tz311BT5mbnJQR4lEmcLTOoxEaaS38wx0ev8zKRS/vqv/zrKsHV+yMs6PIvRpS4Qm5RFP0hRKjoKxTRojswoas6847kNg8XHZuA98sgjzf/8z/9Eme1dONRBLvfongih6IA521RHztTM5URvPSo5icOrwmFIj5l8CpkzPT2KJ30pQVZ1bEag+2C4yJ0gK5m7U+kzhbpwftf5zGc+0/z93/998+d//uedb9+FtmVoXdcib+vdvvnNb3a+nX9w36Os83Pf9EKxbu4rX/lK87Wvfa3zbX98+tOfbv7u7/6u+bM/+7PQP3VLJ3uhHbWhPspOPPfcc2EnEKC0JyfYDO5sI+cSVSLX3JqNbUC0Ik1DHY7pdnrT6TZTlW1AnqJHr65VMR7qUodS5PMVBDUIjCgl47GZIq386le/is96C4XMPfp4faaSiwp1DB0wt0UaBp2JgdJRKbvOpHPNJnQ+ciDlfFUHCnLOrZncOzkuJ/llFKzzG+tgHMhHrpQxp+vzghkQ8mpPv0OIZH6/yU/9kY9hI7OdR8jsXhRGjswIUXtfDPkB/XLvogLRiun5/aBelOeffz50mlM3X0FXkIYybKkDqBtFn3r44YenXeqAiD70oQ9FBoZeIT7X6wVikxWyacUPf/jD5lvf+lbYB/Uq9fn6669Pjfcpdnbi4PoOWbIRZKLv9ATJprOU8L1NCZxXEUE6B7tCdyrGQ438Roz8GP7vfve7URgLRmPUhcEUOD06M7U++9nPxnRlnSmjl15QaJ4e0vv617/e/Pu//3ukUsdBepmugxiSzHzmukl4iCMdgTyeYRTZKq5LFu91MoUnm+OZjMnFdD5ykitl6H6vIOncr7H7GMaBrBnp5dZQ5DSZgMftc7Jpv/ze+zSCswEyKGTKes56RG5JdO5DIXdCuou8DGemy8lLtrynjLrdZzeZ5zVElurGtRIMtl2LvvCFL3Q+eRdJkK7z4x//OPTr+9//fufbtj0SSZLkpJPqb66BvLMZ+TmfelW/+uo//MM/9I2gu6HtMlvzH//xH0F+9G8ccJDyPiytMKZH71NvkTXCkw1iF5TZ0uFJRCW/EcmPofje974XRgL58dZG3Q8R0fBGRS2WMPzBH/xB86lPfSqMldKdBktQdsbGNWzB9K//+q9BQONA5820io7EIIg80ggz0hl5pAHPVCND0U0qShpqr8hf4cX6W5kpXI/HrljeITJiCMhIfsY9SS/lVGeK3yaRJUGQWf0pKRtDxMtWEKPPZiuSTjnJnLPwso5FrVnPSA9Bdrc3WclMFvKmoVOMBb388svh8SeZp8wMdDoEZiPSXbMRE9rbZCnjxv2QpKY+GFX6nHDu1IGUj1FPp2+uYbbJz72rV0Xa88tf/nL02WHQTrI86pJDoei/44COZATLebFXqb7ABijaQHEtuqB0O0MV46GS3xjkl2NvjID0Js9rVOigQKH/8i//svn85z8fkRdC7I4EEowcQ0jR//mf/zkKYzgO3GM+XoVREHVaHMtIKzp5yjUMjAaQhwyKmWsMiM6IlMcl5m4g6dwn0RIPhSFXP4r66SdnfpbyJfyNCJWMqBDIz372syhSU+Q1DX02oC5zITTnRj0ngSM/6Ja/+3237N4rjJoIECFJb5ksQX6F8wHazjW1r91GGH67uSTUWY7nDgM94wh0p1udG0GTJR0Ijp8IkVGfa1Cfs0l+7j3r9uMf/3jzJ3/yJxEBDoP0qbr5+c9/HiSoqLtx4D6ysA9/8Rd/EffhvPqbyFK6lE5Dt+5UjI865lfKqGN+iEjpHsgeF6IbW09RasZpUOSXaSneozSHMmpnQuhmpvH6jfswxsYsEIpOndFURk6jluyYyEpxnRwb9L06JbMyChAb0kMY0sAZqYhakjjI2R2RdpeUp9/nXvP+yJopyUw/+lwdOxZJjmtInE9dSmVbcEx+hpcDRX51Q34klHJlSbn7yZ664NVvyayeRHnkVh9kRVo+c52M/JCv32TJepsOjsk66i4+A3IiXuPY9H+ugXyzOeanPjJqV7d0EqEOA6dEX+UocLaQFJIdF9pWUf/6kbFC44GGWNgbNoC+Vlw86lKHywwkSqmlknTCS+G96fwModSJrdL+6I/+qPnYxz42FU0lWY0LxpRRQEwMPu9UOkg0y/giA512VCAiMvJwv/jFL0aKCVkzNEh1kGMwHZJUyJvkwYhxAv74j/846oT8HAQEMpNrICGTShC2iMuuPCIP500Hw/VngsxKIFFRnXG73/3d341UufOrfyB3khayS9JSfD7KfXWTbBb3lo6h4m/HzERnJgXqifOMfGeqU92QnZBlMnYo8keCIj52o2J2ULV5gYBhYqR0PEZdRGV/UNshISbGP4kvPfpuIOEcB8rSS8yuwbDyiBl4BCtiRgCiHlEQ4mUoB3V+xJS/d7zfM/BmJfo7PXf3Qk7Hd2MUOSEJMA27c6oXKVV1kvWCSMYxVM5HfoZOpKGORdXkz8ja9+pppgYQaSYBWuMpU6CeXKvbySCLY13Ha3fxWW/d9YNjHK+uu0ueY9zzLRSIrqT5pYNHyWRoL86cfsZ5owuZweAwaq9x6k8UKdozrID4/C3a5zBXzA4q+V1mZESSBDFbBoXBEi1JpzKQCImBZyhdZxiQh06lk+dYmb8Ry3TQsZHgJz7xiSAA4ySiHp29H9w/g86QJ2Fm6nQ6OYFM3XJ6P4gAB4GREkGJWBkrdTcqEBuCTuJH3O5BPVwq0BF1hGwZVXWMGDkIo9RZxXigT5m+lGrMSUbDoC04RHRBCly0bq0lHeF0aa/aVnMLlfwuMxh/xja99tmCcyX5iW5EI+OQnw6fZJJlFPJDBohA6g/5IQbk5/76wf07BvF1k98oKc6Us1tGZVxvGPmpH2ONMyU/0Zj6dQ88fZ9fKnSTn7p2fRE+g6s+K2YX9MzYWpLfKGsvk/y0kfS6ND7y42RJj89GKrRidqE16oSX4p0pl2rCC+MlshEdICYGE1H4zPX7GTDepkF01zLZxewxaZhBcG7GWDTj3Iy6DteLJDmD8WaPWTRrTEHJPQcVn5vNaio8L9g9JEkMMrhmKDq3azAY/dYl5nlc3/24T8VYRkbDwACZjckASf+QxxonTxw3A9JrymrDAa+mgzvetckwqG4TjnN/6iEjXWQ6DCIvnr2IL9Ocw67h3sjkGnQnd//I6evGdrSxtJZru3/3rp68qk9y+o02MvMv75XMinqjS/DGG29EyTZjlIfBEgpySa/5nYkaSp6H3AodNPHCZ3MN7hPpKByDi53w0g3EZQhBf9Ie2sf1hoEepX3RB0XqnFIOk3OZQENWEaG0aDqLeV6/r7j0qOR3GchPh0FOvHcpySS/HBfq15kQA8PEECE+SyuGeaA6vEjmc5/7XBhl1+qXenQfua5MxzeF2o4UiC8Nq+I7xMA4k48xcQ8Mfb+I1TFJYK7B4KurfkB8iDHHMfztd65BZtdgaJzD9cliicL//u//BgGaTo4IUlbF3wyzOiKL8zhfv6jO967hukk+ZPc3eYZBOtm0d3VtOYOItV/7JZAQ8rDTB+JzL9oyyS91idx0QQTpfEmC5BGFuD8bLKgHRKhukCVyzDbxPknL/aTODYPr5/o073P3Eecw1kR2dZQ7lfRzaN5vqK9LRX7OJ9o2fqdNuh20fiCLtuB0kAHxyQwgPn0+l/EgU8RHVrqqz6TjqO20fcWlRSW/MciPUWB0RGQUlYLy7HoLpVcYHudkJKX3KL10m2tR/kHEB2Z2MUaiHlPMGc5+hplx5/XrZKK+fHK3ztevkzoHw+Z8DCoyEVV1G2MlyYkc6kqn96owqv2gjhzHWOdgfT/o3EgB2TDgXv1WfSIBv1eSLMjHUIk8ECrD5R5S1ix+y7ABEpHeVD/quDs6y79d13lyY2GRpuv2Qj2qYx66iM/aL4YsU7X92lDdIRJ1mveAtBT3kBGWeuZEuTb5FY6P+3AO96oeEL7ifabi1Fner1ey53nJRA+Mr/aDulbIQg8U9UBmdekc6iYLOXJDg7kG93qpyM+51KO2pkt0n44PAlnohGNSZ9gBusgOmHTmb+dNW0FXlTw25fc3++Sc+kklxNlFJb8RyY/iIQKGieGkrBRVWqS38BKlOZCdSE/eX7QnXeY6vh9EIAmGyG4aCITB01mRRi+ch9zI1TWkPsmmA3Yb/ATDKcr77//+74iYXAOhu6/elB/jmgSF8DOaYFD7GXzHuy6DLrpBVtOBE5HPPBNhMLRJCNKbDD4D5XP1j7yHGQLfuxfGg7HhVSdp98K9MfLuH9EkCfWCjjgXh8VSDO2pDgbVMSRh2cVfPUsbakPEItIT1SvuyfURSxIdWdS1+vB7uwrl78nnuyQ99aA+3DP5k/zILOJACL3wmyRO18vH7NC5JL4s/iab71KuuYZLSX5ITH3RK/3K+TPFPCqyr3ilL0iUc5pkJ3VOt0SYUqKiw4wMka72pSfarGL2UMlvRPKDJAi/0cEYRHn77oL8KG7m+J1XtCdiUBik6YgPpJx0zNzwlgFCFL3QeVxXx0F8yFbHGmSUGTPE97WvfS2I1d+8+d5zJ/GJJhBfXp/RF/X0I7/0eBlhkQ6DPQzO59yMP3JDxORxTTIxyAyzz3X+JOJhxIc4HcugcDIYLASo9ML5EJHj/c49IqReMHbak2HSnl4ZpkF1TD6R1He+851Yq6UuRO/IJOXL4vquK72IiLS3eqGfPrOzyn/+53/G+17i00bqQxRIbnWXRVShncjbD87ht3TsBz/4Qex4Qo7ucyg+0z557bmIS0l+jqWjiF92RT/L/tuvDwxCL/E5h77LhtBT59V3k/x8rg31KXVPd7Ldx7luxWD0770VvwUKx1Nj/EV0Bq5FAL0FASkMD/JDhBSZslPkYWA0GT7GjFE0xoKgeN0MVT/oSEhbxyTfIIPM0OvAjKTOhMgZs1G8SccxAIy110G/VUeMNpkYIASkA/eLurrhvt1fkpfUoEksHAByjwvn8zsEmg5LP5BXmzBIZBxUd75nTDkZ0lf9iBRcJ8k8iUQ7kmEQYffCcRwBE3oYZ+cZB+nUZcRbcXHQppwxfZAzx3E0To48p3PGxgV9THJkMxCibNEf/uEfxmOVvHKks69XErw4VPIbEUl+DGB3OrNf4W0jxyQ/JOC3o5BAN/kZL0J+jOkgAy4qGYX8kBXSE5UNI7B+0Mn9djryc21kkpFx3rcOPR3cn+u4b+TH8Ev7XQz5Jcmr035I8hOtaptBxsR3yI/jY8xmOvJjKLvJr9844jDw8qVK1YFzjYo0nkl+0zlbFdOD7nCi9EHk91//9V8xMexSkV+OFcossDN2QLKL0t/+7d/GqwlXolvO9CB9rRgNlfzGAINC6Rh2RhDp9CuiA8VxjL+8PaUepKw6DyJBKAymVIzZdSIfZMWADyKpJBrXdZ1B5JekqsMy5nkPOhmSGlbcC+PPI3UPg8jPd67vXqUbnT8nhUwH52JIMoWXhO/3rq/DcySMbebYCAeEk8HZEG3zio3JeXUsmdXPMKcjZVYGtQ/5yaGOtb/76wfyItwkPe/dj89HBV3ISEMZlzjdg/sl86D7qRgd9FLf0Q76o5mxOVHMmLR0NiKkrzl8ID05E0JMXdR+CFAf5dRK53Kq6bZx/dRvWRV9sjo5M0MlvzkAHUWH0cFMFDFWZLxrlJQXQ6wTGD9IcuqH7MSAlHKMQXp2uoJgHKvDIQHpSecaRMg6o857MZ2TEeA4iLZE0Dxe+5Pa/9M+l/bS5Anbq/NP//RPY39Qz6/7m7/5m3h1HIKUPiLLxYAsSBTxOdeg+0FyomNGEoHPJGqtmJug6/onkjMu65l9nrTiVV/lrHJWODv6xmxFg0DfEKKskyU2ltogQ31DHxvkjFUMRyW/9wk6h5KkxFAak+NJWs/Fqxwl5UXxkUR3ZNYPSbA6kgjGoHqSm8hpWEkCNOlDREfWYR1cRyULuZAG8pgOjslOLnUnys7ZtEiM15tLOWxMbRNpW0gZB7Fxt8fOeODol770pSBC260hTZEtWS4GSX7ux7nI2A/qRBsas0N+/q5YGKDryE9ELzPDQf23f/u3SIOa1ctp1e6ZapcZ0f4cIv1OP1ey34+K7mgQ2Zk0pw/ol8hQdFjJb2bgwtbZnh0jjxQuNXQEnSLTe6I743q8R4u4kZ7ZjYwoknH8MJg9iphyi61BqU8dD7kgFcdJJZplJppTvJ+uID/HiqacQ931i4JEP7k4mrFQ3O8gOEdGeNKXUjuIzmC/iE/UKfVDBmlY7YQYdXyer4gs7x05uUcGQRsPS/2pX/WviNbIa8JNL1yHHPYjzVRqv3FMaS/rG43VOpexO2OAlwvulVyKtpIe4+T0QxpjumZ8UeQyX+G+L9Vsz2FwXbqbE7W0uRm7HFjFhDW6pT9kSjRT4KmXw/RzEBCr/qSf0+GcxFYxHir5XWbyo/wUlhepY+gwZvaJ9niTOo+OpEM5djov0RiYyMyrlJzSj/x0UveKKBAfr3FU0usuIikRUE6o6Nd5EXeSn3uRKhpGftoC8fFqDfBLb3p8D8JB7Ab+Xdv4hzaSth2F+PrVQzdGJT9Ei/jI596dvx/pIzrEpw0R30zG7C4G2qKS3+UjP32zl/icLwsd0Bccg7CArHQnHbMs48Jv6H86mvpYxXioac8RQdEZcBNQGEspDgpPwdO7o+TTgcHRERhKHZDhQX7WguW6OwaTl+jY6cDAp8HrZ5ATSfZJfoxEFqQyrDhGZCbi6458BpGLjul6SRKDOjfCQsBITloTweSEFc4IQhTRImrXHkR6CJ9M4xDfuHAfWceDzq29MqrvNyGoYmFB+2YqlC3g+Eh/Ij4TY3LPWdmc3JbP9nSWSnj1nQjRLjvO4Vz0ZjqHlx5yAjm8Oe5H/+l9xeio5DcGEBxFpeDIivJScqRF+UdJcfE6k/xM6dcReKAz9dwYYwY/lX8mXuRsAzmQBRkNk0kHlto0VmcQHwmKWBCc3w0j87kIRku0jgC183RGrGLhQZtrf46wPp1DGjYr+L//9/82X/3qV5t/+qd/ar7yla80X//615tvf/vbQYwicBGk8cLp9Ea/4PDJSGT6nzOov82F/j9fUMlvRPDykJ9oLclPxGbtT3pvUhyOG6a8GR1Q8oz8dBB5+5kA0SC/JJpBIJNrKwwzI32pimskAeqovR0yv5NClUo0YSUH8aU3RZe+d1z+lvx5Dym/euRIKFKYDE4Wn6Us0xmT2YTrVfKbXGhzekcHRXOZVraDjskxCPBrX/taTJbx3nAH8pN2zjQp/Rmmt0l+md7tJr+K0VHH/EoZZcyPIiIrqQ0D2UqO7ci5M75ScDwxx1JQxrsf0qAjUyTob8Zy2LjYIBjnMCHErEjpkEHen3PrWLzLHOPimSo6ab6fjcIRQOg58cPYF2MA6kQq1VKLnERiXEpnJnu/OlM3DIJ7IKuUszo3uUT0zBnJNBNDIpJ2n2lEnJOD0ItRx/wYF7IqOduzn5wmHbh3esKZyTWalwvanQ4odczv0o/5XQzIrHDSTIbJPuhv+sWGeNWWw6AP5NM29DGp00GkWfFeVPIbkfzSUDDqDIVX630YTB1Jh/J7nY9hZMj7pe18lwaKYUzDznDOJPozJsbAGRdzTffTzzBLs+pgxhQZekYaKflstslPfagrHdM13JdODerEBJYc5zNZxz1kffUjbp40omIkEF/OqEziE4UjPmMrxlK89xt1gfQQFsekF7NNfjmOi5gRn3NV8rv0mI/kh6CS+PQR8uib+kBOquIQ0rdhoLP0ja45Fwe3kt9o6B+aVPQFgyr6YOQYdIae4RT98b6QoVQohWRY+yHJjzFGWBar5mJsiu67fgQwCAwYuTLVNgi8QjIjD8Sdu1RcisKoICb1gtTJl3BvucieseIwID6E0n3fOrB7Qh6Mgrq1rVQ+gQDRuQeG2/UQoOiPMWPIkZlru+9h9TIKyJIE7FWd90M6PVJQiLef81NxaUB31L/XcfrPTKCNkau0vUlXM2lnOkSf2BLERV/ZkJwtTOdHyQTpN0hS6ZfdqBiMSn6zBJ6+iENe3xjgdFPcKa01ayJO3rlZW+MsCk8wzOnFD/P4dDReIfIjn5lnJtsgFA+znc2CABGQDtyP/BgOY3vIH1H0g3vR+aWGncuGwv/yL//SfPOb34ynEJDfeKvveM2cENfiTachZJQGRZPjgCzqT5sOI1PXYoTcn1dtXHF50N3ml5r8OK76qwwG52222pmzx6HmOOqn09kQcO3M+Hh/qe99IaGS3yxBVCXyYJhFVt0D1/2gk+o4pvMriMDfOtY45Of83ZHfIAJECjqTzsW7FDFdqugPKbmGa/Fse8kPyTMeyL9fOhLcB3l5xerTBgDf+MY3Yi2k6I+jgcRdh9csdetamV5NY+j1Yg2COs76G4X8jPu6r7lOfrNRN3MF7kP9a/Nx+s+ocP4kGmlVaWVOqzQrB07U5foXA/2EHeHM6Tt0bTq4V9mi2bj+pKGS3yyh20DKwUvDiUpEhNNBGtD4jBmP1u7oYKPCNRGtTiNSGkR+jLL1fbk7y/tp9HRYhkSnHWSoEIyxEOlOnrAIcFSoA+3hHF4H1cmocA6GSGSpjrvJvBvuR9SX407+novQ9tkGSRjzHUlMyjASoAsz0QvnR3i2zfvc5z4XS3M+85nPTO0za9ayNOjFQDuQX//MSG460EU6aXiAA1wxOir5zRK6yc+Yn+hHxIKUpkM3+RkHG4f8pOMY5ZxZOKhDG0+cC+SXHjpi0LmHkZ9UZpLfKPXYjSTAS0F+gyI/92PBcZLfXB6D6Sa/99MRmi24D/U9XQQ0U71I8tNHER7is3k6IkR+tuS7WPLTDkl++uuw+0ggvCQ/9udidX2SUMlvlpCdigKa6CHyk5aTkpOOYzx93w9SZDn9H/mJ/qQERWvTwXmlBhGF2V6DrsGTZJCRnxSrjpyTTUYFAyDFo5PbmcUSCzJL842DNLzKIPJTnzo10hPZqtfpwPCRr3snmNkYe+Nda0ORqAh0kCzd9aP9pHa9H5Ta7QcGkJMipWZrN23lPkY1htqfQRyWcgfX6XZEFO/fTyJk9PUD48EcCHWnPgdF0ORVL+pHxK3Nc6bkIHBctN+w+lEHzpH90oxkW+7Zei9n0NJ/3+X2gpbsfPjDH46S6VByDZMl4R7orLY289kwiN+P0v85v3SS86u/VIyOSn6zDJ3LRA/jf4pp+fL3IsJBEYPOnUbTILqOhFR06OnA42OUDZCLTAZ1aJ2QYWCUnds1EKDrjgpEyTDr8H4v9cMoWGM4DrqjjkHkBwhQnbmnUTxaRiSJmUzIh1FB/BcD5MfA5FIIBqcf3A+DyRlgyBgx7UmGcUhFu4gqPL3CRt/aTNtNR+LqiFHnEDHwg/StG2SmG+qOHr6f5KeezHy2pCQ3Mx/moJEXwSAhdcSxQ4DuZRC0pfZTBqWv1YFzaEfyeIKIR2XRdw6J62lndef69IzMHrH15S9/OaJCBEimURwffZDOmvxm+Q8CpTfafDro/7lUiY0ZpZ9UtOBK1nV+I67zszZOQW4Urt94XkYsvtM5kYWSnmQ/LzYNEJkYLYSgczqH6wwDw+D3OiuDz2A4V68Ry2v4PCMXhlJEQ15yub7X3veuoTAsDLOOydvVURksxCDCdY3pjKfzGh/pHiPp9xuycRwM/qsD0Z/O7dgsrpf3RT7tJ2ognyUkZGTAso56oY5FzAr5B63zUwcZQboGYtOmvXJrN8fSKVG48ycZcUyyTntfya/4net4ZpvUGieDPjmP125CG2TkfO4Y9cBBUQf96jfhnnNpSP7W8e5FnZFP/fnb544Zdr6LAd3VbpwzpCISBHXouuondVFJ4qP37lVU5m/12g/OoV20Bd2yLMaygl64V46ntiYP0kOAdD+HDdSLetBu/tY3kCDdUG/ZVmRHsr2yKz5TyM9R4ui4D0Xf8B1ZeuE+sq1M/DIBTBvSk9SPiulRya+U2SS/bugglJTRRk48wWFeacIxDCZvLo3xoOhH56DwrsV7ZPizYw7qOL5DxDxLRlynzVST9wyITuwzaRjeb5KdsQ2vDJTvGYlMVzEAOn7KqeP3Qr0zKDo6Yhomp87sXtKYJEk7nvyu57oMB8NHNqTKC/eZ77Sv3/e7xqjkl8Zem9ARRjCJu995IQ0eA81B0PZ+p16769lnjL5IJ71+RYThWn7vt+pKhMBo0gVGfBjogvM5L7iHvI9uiBzISucQr3r3ql3pBvlEMZmFyDbtp4sXC31QJkFbqiP65T7UD/3zeT6xX0micJ8+V7fDUoVk1mf1K4v7DUtYW9cLOqrOXZvuZ5oT0dGlfvUIqct+r77Iw4HRlnQ+C9npaPYn+9t6n9ehL6nn/a6lvbS/e7GuGAGaZMcOXIp2Waio5HcJyY+SGrPS2XQmHWlYKoOyM0KMDuVmjI0fUmrGv59i+w4p+C3icw3n0EmVXvgMcbhXhRHmeTI2/maQFZ8zfDmmkcZGp9WBGSbH66iOR4bOzZjm4LvXXjiGocqozN/aoh8YAMe4NxGqCNN79YBwERA5yCZaYkTIqC3J5BjnHmRERiU/bY/4XF+95JiM85K/37npFdm1u8IQ+m3+TT5RBMOu3dQJ0jObEGE5Xv26jmMQn3Z17yIXqe5hYES1FYOaRrmfnD6jD2R1bnrnOhwLcvo92XzGiXNtx10KQ2tMzQQSr9qV7rl35EGGLEki7k/xGR1WR9pjELSjvqhP5WJymYVe0Bn1R6f1J+2jPZxbPfaDevQ95wTxaet0arplT/nJnc4a/XWca+r7wxw20LfYHjpgYp35BYY9Zrs9Fjoq+V1C8vMbBpayMmKMdRpjnaQXOpDvfZfpGb/lbXuPTHuRhghROD9ydX7GSumF7xzrO9fJCFDRadUBo8w4p8FmiBiXNN46aP6eN8zbFqG4X/dAJoaSoemFTs2YOCdjlbL0Io2J9vEeHKceyZFEj4gYR0baOcnNkJPNvfpt/r4Xo5Jf1rG2UMfu3z07v/rz2ovULzJ7da/qV/F751HP6lUhO+Pnvbp0fvfgFYm7B3WtjjkV9MN1yeWzXmg79cKBcVzqXT9kG2Z9q+N0fNQxEgDkL/3smupuNowtudQNJwrpcWKQBnnUre/Uh3pDyIpjs6hLn5Gb/MOgnswczp2Acvu9Xqgn1812c/50WgfVY+oZGbJf+a3fpdz9ZFfoq+Pc87CIT30rbIH7sLMR8pvJbOiKSn5RLhX5AWWlyDpwKraOoTMPA6JLY0TZGWYGZxAcy4hlalDn0qmmQ9ZDdvJu8kN0jLTPyMsIM+Z+0w33lNd3Xe8RitRSLxyLvByXBq5fXWTnz/OSDUEgOVEj79kr48xQk5kBIZ/fjIJRya8b6sA9aFeyq6Nh10uDqI7zXt07eTMCVMc+oyNZv70G0Dlc22s6VEiIk9Evvey8SCQjFtfvJ2fK57rqD/EhO04FB0PaW3u5JgOLAL1Hvv1Id1y4rnpAtKIhbao+EuRT1Id6Ueh3lqyrUaBP2dzBLkSiJe3uPvpB3ep3QE9Tr7zv1f9hSNn9tlf2lN93eZ/DoL7Jxam0xZ8nQlhO5T70+4rxUMmvlEtNfgpvkJFiyHl7jB8MUngdhrHT2Si3sYkkP+frB52bcWJkGT/349heQ5rQ6dLrT/JjhNMj9T69UudUV70dPzu3z92jY3VEKSUedi8c65yuqSThJrrlzPOqB/XFEDPoaZiRHuNO1vTU/cY9qwsEod1Sxl7MhPycJ4lH/bi+z5R+dexzdcx4khH5uf+sZ+99lvJrk95zec9Qqi/XzQiM4UZIUrK9cO6sG+d1fufoRcrn3I7NCNSr36t3bYRk1Y3r5XXJcrHQttqVUyNS1b6ul8i2Uy9JIN3Fd9OBDmgz92BLv+9///tBGu5jUDaFDrtH77Wdop7I67qDdKobeUzK3yt7d1srg0AGRTu7BzbIjkeeBSiF67PZcEQmDZX8SrmU5Jeg5JRXJ2JkGD8KTY5BncjnjmHo0sAh0H5eXnYe37sn503Dj5AGXeNi4RqMIOOC8GyZ5skKPGuD8P2g07sfMol21Md0dTEKyMKYqR9jIMZ1GAZGX733Yqbk535di7zeuybi73eN2YC6IRcZLfrPDb3JTTf6GfA01n7LcUFiFyMfIiCD63kvXdjvuuNC+yM+UR/iE2Ui6tkEZ4HzSCdtv6cO3Qv5teMw0FXHiQLpi/6Vbc9huNRwLdfUv+izCS65vV86xHRQO1eMh0p+l4n8GHudkAESlTFGjLLr62C9YGQZL3Iy5tkJnEPpBeX3fU4y0WF1CoaEQXGeSwFy6Zg6IaPsidVSMogv00bdIKf7UX+IWcor5UMg/epiVLhndWByDEPByJGNge2OJhIzIT/XUMfZJtpVG9Kdfunb2YA6I5+xHWM8nmhhvAcRub9+ho/+qAty0jVpxYshFXWaBfGRx7UvFpxAEz5M9hFp+nu2nQhpQvVmM3Q6gTTch/abDu4R2evz6tNv9Fs6NcqwwsXC9eipdtTmolYPxjVemQReiW9mqORXSqbRpDQYs+5C8XQA741h6TiiCoqnU4wKRKTzMPCumdDRfTfoul4zrYFMpDkGzfRzjHNldJLn0dHJymjrLAroNNOlXLrh+LyPTH0xgiI+XjXjwiPlIDDMrt0PzuG7JDxyJ5lkyQhwkHyOcR/qSL1oDzP3PN+PgZPWIgcyZaQYftfsrlv1Qn7tifi8n86hyTpwfSC3c6lb90wWcqmjbqOU9zMIjlWcl3zORxZy0TvGW3FvSJDM5Oi+Ri98TzZ6zWB7r6hPvyPTqG2vrjhdKZO6dq6LhawEYpb6zNS6NiNft2zTyaneUq/0F7JqT06QehMxIQ9OGcfLcaPAed0nvSGDdtU26kNdOJe+4DPnTN2Yiez0xnXoFPk5ZeS1hs8EHVGriN890TXHDmv/iuGo5FeKzmeMw3sdhzJ7VSiiQrkZIR4XL5DiU8CZwHn9ngw8SMqf1+staVwdq6Mx6AzfMDifjpHkhAjSS9QRfe983jM00xnmhN+lIUDAOiZjbBzF+IMxPp8l8enQw+B7RsT9uE/QmcmEFMk3yEC7lzR0fs8pYRh4xUrKITWF/BhWx6ahcj1E5bgkPufpF1UPQjoB6oJB0jbOTX73RvasX/U9DO47DWAaVudjsKWR03jTQXqgDaaD82kv56QLZAV6TiaZBfKNAnVFJlEU4tMPZoP8tIvoXxshaCX1MWXT/v10oBvuMduDjNoS6ak7mQi6qY3cgzaiy+Mg20c96P/OpV+5lmvSp3R4UodTd6eT3Xn9Vps6F72ll5zKjFiN8XEw1T0dVfd+VzFzTCz5UU4GlgGQFtL5dAidQ2EsslBGCsfj1ul5ZD5npMYFg+23DBjDLFWWn/UrSSQ6kA6dXv8w6EgMPcLTiXRSHYsBdt8MhQ7qM53I+XVexWf5PksScRpART0wxAyyZwJ6lJOoVJ2M2jFdl/EgI3m6CYLhIItjUiavKYt6UT9+Tw73KO2KiKUFyeE+RdYiH/dNbnWiLf0+nQnXV6dIbNQ2TQfDedIYetVOyEUbpFFzD+qE0fWbvJ/uumX0XDvPR568JwbcgmxtT/f8fjqQLw2q87s375ELvSebOs+275aJnIrf5avfu7Y25mjMVuSnrvQBfYE85NZuWWcpU8rYK2fWn3pT0ikjo7ozPoZAyEt+vxuX+IBsfkvn1IH2pndk6JbX+3ztlTVfs6Ts+hWdpJ/0Wftra9Ge/kWf6QAnzbGpWxUXBy7JRMbNDK2OpxhoV3RCHaO7czBmDDHlZ5BECBQ0O9u4cC6GmFHOdWq831HAUDOCOvK4sH5MaslUdqkmBfGnMVQPXtNjhayLJCCvOp7CCOiwOiq5ZiJTwjXNMDR70zR3joi2SOfEq0LWNBwpC7mS1LQPw+c9wpPqdL+ieud1L9oxvXG/15ZIkNFUZtKmCXWqjmUSRPT+ZtQzokl9y6gb0kCShXyMWhpGcqXOJTk6bhxoSzLkpBf1bIxV/fiMHpIpo0DHu0Yac/Io6kW9am/EojjmYkEG8ijGZdWbdss2T5nI5z6U1Mtsf4WMCEddphOh7hAGPc3jZhPalH4pqbNkV6fk1M7Z3713fLY7+cnrHrySv/t+9C/13a2bjqmYPUws+SWpeU3DT0EZx0GgnAyC1zQKM0Fe23V1FO9HAWOjc5NhXCSJpJFTyKH4PAlRB03jrFMqvE3FtdWPksZGXaShnClcK+VzfbJ59ZlXBpJRUV9JdK5HjjQiKYvPvU+j4/d53n5t6zf522zXmcL1XEtRh/5OHVOyjt1HfsZIM87qMOUjQ96X+1H87fN+9zAdUo7uusjP1C2ZkCGZlSQQBJz10l3HZGWgZyJLL7KNUi9dn1xZQD2pM5NhkEzKQs7UTbIo6qmbWFIf8rvZBLlSR7O9s16VbGPvs6/7G8iSRJft2n0PeY95H0rF7GJiya/iXei8jKCSnVgnTYLL9AxDcrng+mkYGQ6eNEOTxm4+GoOsYwSURlBEp1zOuu2GuiWT+k3jjdxEn8glDTCj/H5CnSFpkSG9VMip7ujmXAbyS+eum/y0ebfTU3F5UcmvIjonklF0Tn9DeqGIhgFkcC4nyKEkCaZhzkhoviHr2D2lEczo5P26n6zbjLjIlU6PQq65UNfkRCBKRkjknA9RkTolf3e7p/yXu09VvItKfhUVFRUVE4fRBpsqKioqKioWECr5VVRUVFRMHCr5VVRUVFRMHCr5VVRUVFRMHCr5VVRUVFRMHCr5VVRUVFRMHCr5VVRUVFRMHCr5VVRUVFRMHCr5VVRUVFRMHCr5VVRUVFRMHCr5VVRUVFRMHCr5VVRUVFRMHCr5VVRUVFRMHCr5VVRUVFRMHCr5VVRUVFRMHCr5VVRUVFRMHCr5VVRUVFRMHCr5VVRUVFRMHCr5VVRUVFRMHCr5VVRUVFRMHCr5VVRUVFRMGJrm/wGC3MCL1m2o3wAAAABJRU5ErkJggg==;" vertex="1" parent="1">
          <mxGeometry x="370" y="391" width="57" height="59.42" as="geometry" />
        </mxCell>
        <mxCell id="jOGzr96rdC9lRrHa4xcc-26" style="edgeStyle=orthogonalEdgeStyle;rounded=0;orthogonalLoop=1;jettySize=auto;html=1;exitX=1;exitY=0.5;exitDx=0;exitDy=0;entryX=0;entryY=0.5;entryDx=0;entryDy=0;" edge="1" parent="1" source="jOGzr96rdC9lRrHa4xcc-8" target="jOGzr96rdC9lRrHa4xcc-15">
          <mxGeometry relative="1" as="geometry" />
        </mxCell>
        <mxCell id="jOGzr96rdC9lRrHa4xcc-29" style="edgeStyle=orthogonalEdgeStyle;rounded=0;orthogonalLoop=1;jettySize=auto;html=1;exitX=1;exitY=0.5;exitDx=0;exitDy=0;entryX=-0.014;entryY=0.6;entryDx=0;entryDy=0;entryPerimeter=0;" edge="1" parent="1" source="jOGzr96rdC9lRrHa4xcc-23" target="jOGzr96rdC9lRrHa4xcc-1">
          <mxGeometry relative="1" as="geometry" />
        </mxCell>
        <mxCell id="jOGzr96rdC9lRrHa4xcc-31" value="" style="shape=image;verticalLabelPosition=bottom;labelBackgroundColor=default;verticalAlign=top;aspect=fixed;imageAspect=0;image=data:image/png,iVBORw0KGgoAAAANSUhEUgAAAFMAAABUCAYAAAD+twu4AAAAAXNSR0IArs4c6QAAAARnQU1BAACxjwv8YQUAAAAJcEhZcwAADsMAAA7DAcdvqGQAAA7ZSURBVHhe7ZxpjBTVFscvMIAM4LAICCIC4oIQkR0ZXFEiMBheMEAwGBY/gAoYCMsn8hICxiiQAInxAwQJICqCLKKgoqgoiCjIjrK4oaiDiIMsA9x3fmeqJkXP9HR1dVX35Nn/5Ka7q6vq3vuvc84999xzq4oVmCxCQVXnM4sQUKkkk6ZcvHjR/PXXX6aoqMgUFxfrMS+qVq1qqlevbmrVqmXy8vLMNddcY6pUqeL8m1lklMwrV66Y06dPmzNnzpijR4+ac+fOmV9++cV8+eWX5sCBA3qc5rlNhLRq1aqZevXqmRtvvNF07txZPynXX3+9Est/nJMJZIxMyIO0r7/+2vzwww/m/fffV4m8cOGCb0mj6Tk5OaZjx47mrrvuMg0aNDBt27Y1Xbt21c90S2zayYTEbdu2mQ0bNpjNmzeb33//3Vy6dMn5Nzhcqa1bt6655557zIgRI8yAAQOU7LQBMtMBsX92+/btduTIkbZly5a2Ro0aVgjgQYZehEArkmnnz59vT506ZS9fvuy0IlpELpnc/uTJk2blypXmjTfeMF999ZU5e/ZsqR2MCgxU2NFu3bqZLl26mMGDB5s2bdpEq/qQGRVkZLYHDx60jz/+uG3SpIlKDFWmqyD51Fm/fn376KOP2q1bt6qGRIXIyPzzzz+VRBlxbc2aNcvtbDoLZuW2226zoh1WBjmnleEiEjJ/++03O2jQICuqFpldDFpkxLcLFy60J06ccFobHkInEzVat269zc3NrXRE0h4eMAPga6+9Zs+fP++0OhyESiZErl27Vhtb2Yj0FtomLpRKaJgqHxqZ4iuqgcclqSxEJmpHixYt7LvvvhsaoaG4RsxcDh8+bGbNmqXOOPPrWDRv3lxnKkwfmTKK/6fXiQ/onBEOhECdUt5www3m5ptvVqd937592j6mr17gPtGmefPmmZ49ezpHU4BSmgKkgXbjxo3qemDcuWVskTmzffLJJ+3x48etTCF1RH3hhRfUgcdtKU+COBavxJ7rnl+7dm07bNgw+/zzz9u3337byjTV/vzzz3batGnahvKuq1WrlrYjjAEpZTL/+ecfO3PmzAoHnOuuu87Onj1biXeB8T9y5IgdMmRIKaFuYZDgfo0bN1ZVFGdby0033aQPrHr16ld5Cny2atXK9unTx4oU2nPnzjm1lJgfkTybl5dXpl3utbhMa9as0XNTQUpqjtowv540aZKqUjyVRd1EEs3Agf8RNXQOCpiTo367du0yU6ZMUfUUCTft2rXTCBCFcBtzbum0ni8PQQt1HTt2zKxatcrceeed5rHHHjPNmjUzd9xxhxGf0qlB2JLuyaBoRDqNTCCco1dDJNo89NBDZvLkySY/P985GgCQGRR//PGHnTp1qpXOlnni3iKdtZ999plzVVkwAAihKlWFhafUK2A+Ha8gQRSxufbAgQOqohVJ1Z49e1Vqy2sbBelEE0aNGmXlATlXJY+UIu1iA42MhgkHEQy9V1piwX8dOnRQqWrQoL4OGlwTryCplGuvvdbcfvvtpmnTphXGMGvXztVgcjwID0bMldm0aZORhx44ihWYTCLh7733ntmzZ49zJD4Y3f/++28Vg0xANMjI9Nb5FR+//vqrxlfxMoIgMJm4NytWrNCnmgh0BNuY3lBtCWjf7t3fxLWXXiCR4ploW4MgEJk0ED9R5uC+yEQyOT8TYJAsLr7oW3V//PFHDRnG+qR+EIhMbKS4NeqAJwI2TqaXpkePHs6R9IL6WcbAKa9Zs6ZzND5Q8R07dgRS9UBkymirhpoFsETA3Rk6dGhqLkcKwKVi4W306NFG/FTnaMXAVfNjY2MRiEzU9pNPPnF+xQc+IlHuJ554Qr9nChDKwxTnXCW1ImC28FLcldFkkDSZVICt/O6775wj8YHT/cADDxiZyThHMgeZhekCm5+2MKqztJIsAkkmK4rMQioC0iDTRN+qFTVoj98HS98YsCKXTBrFiOenor59+1YaMoGbqJAImDGc+MjJBD/99JPzLT5oyH333aezk8oCZloUBKIiIJUITLIzoUBkYpwTNQgwklc0jcwEmKomAn3D10wLmbhGfoCjTrpLZQHaggr7QdrUnKebqCKe7v79+wP5a1GBNjOz8UMSttWP9nkRiEw/PiMNOXTokJqEygI0yu80MTe3dkKfNBaByCQvMhF4+tu3b/c1WKULyTzcxo0bVRjWKw+ByGzRooXzLT4gk9DX3r17falV1EAiicqfOHHCORIfmDG8ED+DlReByCQByk9FqNXWrVszFjHyggfLnJu4aiIQSKakxWay1sLSbSIQXUK1kIhE0fioQdDX72SjUaNGYjNznV/+EYhMBiDWpf0ASUA6M+kioeIsvhUWFjpHKgb+sZ9wXSwCk0l2rh81wK9DvRiMMgEkkfgkuaEEaBKBPpEjTwZy2lyj7t27+1IFOsM60XPPPWd2796d1sEIxxsiX375ZfPpp5/6MjUQSPyTIE3SkM4lDVEbK8Towr9UDjtXlfKOsRzMciv5SEVFRZEmnco00IpKWyHRNmzYMOFStLeI+bKbNm26KmHCLwKRCWjsuHHjyhDH+jPr5B07drQyUGnKivd/HgC5m0uWLLGHDx8OlVSRPPv999/b9evX2/79+ydFIoXzWTsnrSYIApNJw8kxIjXP2yCIpENg5cqVmj0Mwd5zKDwEsoo3b95sZcS3p0+fDpQvSQIDSQjiz9pt27bZ3r17673L045Ehb7MnTtXU36CoNp/BXKjpCGNVZtEwj8uhwsiLU2aNDG33HKLGvJbb71VF6dYCogNMrD2zl4g7BnO9LfffquzDlwTP1M5ov3r1q0zr776qlm8eLFZs2aNbsYiuCt9c87yB/rDwh9pNiRDJDuVVJRwGgzkrc+YMaNMzjqJWGSeydRNJYdNAoMHD46rdq4kkUC1evVq3VjgB1u2bLHdunULLIlu4VqSy6ZMmZJSNlxKZGKkRTJt3759NTPN20BS9SZPnqxqjF3EqKPW8sSvOs8tmIKxY8cmpeqoI3WUZ0aSKeJX2jFjxuhDDzLwuEiJTIAULVu2zIpalyGKwWfgwIH27NmzKqVLly617du3L5Ukb2HUXbBggXNX/2CwIVvZW28ypUaNGppbymDIOJAKQskcxhn+4osvzIsvvqizHW+EmoDB7Nmzde2cFT/O++abknQVIjjMgUk5ZO+jEO0riOIFtpg1cVIbgwC7/tJLL5l+/fol7aSXgVKaIniiSN4zzzxTxhXi9/jx40tT/lB5JJURXBxqK4NOqd8ZRMVOnjxpH3nkEZVub71+Ctf06NFDt9qEgVDIdCGjqzbOq+58l9mS3blzp3NWCSCOh5CKjQL4uyJVgcjEPJATmmobXIRKJo3C3+vQocNVhDKK5+fna545CbIMHIzySCMSi91l4HGlNxkEITMnJ8eK+bHvvPOOc5dwEPpGVG6HTRw2bJim5on06TEhV9Od8T+xkfhy2EfioviY+JxkXDDnTwbESocPH26EGK0nEVglIBlhwoQJuhSdsp30AjKjAC4ToyS+o1dq+B5bkJSePXuqj5ks/Eom/7PZa/r06TrbCku1vQgUNfID9tcQ9nr22Wc1z0c6o8elznILHoB0UM8JG9RNFOipp54yEydOVOl02xMmIiMToMLsYnj66ad1WlnRqiZEQmqYgDDqxJzwZgQZ9dXURAbpQOQQu2Zff/310n3nqByF6ikMUOJn6jnJAjUnQuS9HwXTwWiNW7Zo0SLdXBU10kImYMTGdXrllVe0g126dNFdY5BQYjPzA9vMgoIC9R64F9NaIleizjqVxQ/1brKKEpG/ViIWrAUx8xFJ0aiPEKgp3TNmzNAZULKJXtxvzpw5ulmBZFaZvuonqk30KZ1IO5kuqJZBh7x4CCHdj/CbSJdzhn8Q4qOQ0sJiGHYyyH1SRcbI/H9EpKP5vw1ZMkNElswQkSUzRGTJDBFZMkNElswQkSUzRGTJDBFZMkNEJGQyQy0uLi4tzME5xhIGxT0nFszTyeVknk18k+vce7jxTvdewHsPznHvDdzlknhg/+dHH33k/AoHgXON4oFOs3a+fPlyzcdknZy1bSI4RIjYMUtOPDmbvLCEADJBCTrPdZzDGvqHH36or3jYuXOn7m1nPxFr3ESIWD8iOEKOE0ENcpjGjx+v6/K8xodco4ULF+p6E8EPSI0NfJCTtGjRIlNQMEB/hxEYCV0yeXfH3Llzzf3336+LVkTZ7733Xu0Q2bhEhlgEW7BggSZtEY7jP7bXsQmrdevWmsDFolxBQYHeY9y4cSq1dJiHwvlIMGSQkcw9eHBcB+mFhYWaSw/JkE59vGgAspFIV4JZxDt06KBe5+dFBIkQOpm8LIrVP14jQYeIVdKhOnXqqFTy5muIo4NIJx2n02SzQUqfPn30OJsQyEpD+shH5yUAkAhZRUIK17HHiJiou4OC7x988IFKNbsrAPVAOA+Zl0d//PHHpdu7iaki9cRCyQi5dCm1TQyhk0lDkT7AE4cYXrYHke57L9q2batEDRo0SCURaWFHBqkyxDWxi67asQz8+eefa+oNZCKhOXJ/ruvUqZN58MEHNYURsL6D5FLcDbDci9RHbCoPFWl0F+64bsiQIWo+3nrrLTkv+Q37XoROJmSgokgZEsoLlGk8KhYLV90gGtsJwexyYPWQ67mGl0dBPltPEgGCWQvv1auXadiwoXO0pB4K93PrBJCPzcWuuuekgtDJpEN0hAGAwQcSICZ2qzRqv2XLFiUSCeZt1RAHqag06ozqI5XscovdKoP9RdpItuXceODhYFZQY+qjLS5QewY5zMPdd9+d8spl6KM5qspojTq5qtqqVSuVLghA+pBeRnJMAsSzvk4mG3YSE8ExpBMVRVqQnocfflivRYq4H+vg1IXqQzQqyy4JvpM9wn+cx44Q7ol2MLrzujPq4Z7Uwf+sF/Xu3VvblwoiW7bATrm3pjNIiGsLkT6+M/BQ3nzzTV3Xdm0tcP9378H1XMcxd43H9UH5j+P8z38g9jz3N0RTD/fFhkIyv3lIqSLja0BUT2cr2xsTgiC7oBYiQh+A/s3IkhkajPkf8mjAO/qeXJkAAAAASUVORK5CYII=;" vertex="1" parent="1">
          <mxGeometry x="770" y="263" width="83" height="84" as="geometry" />
        </mxCell>
      </root>
    </mxGraphModel>
  </diagram>
</mxfile>
